<mxfile host="app.diagrams.net" modified="2024-03-02T14:22:16.724Z" agent="Mozilla/5.0 (Windows NT 10.0; Win64; x64) AppleWebKit/537.36 (KHTML, like Gecko) Chrome/122.0.0.0 Safari/537.36 Edg/122.0.0.0" etag="NIFBmnw4oyk3P1tQUrFz" version="24.0.0" type="device">
  <diagram name="Page-1" id="odhcpoCyUPIz2ITOSrUc">
    <mxGraphModel dx="837" dy="459" grid="1" gridSize="10" guides="1" tooltips="1" connect="1" arrows="1" fold="1" page="1" pageScale="1" pageWidth="850" pageHeight="1100" math="0" shadow="0">
      <root>
        <mxCell id="0" />
        <mxCell id="1" parent="0" />
        <mxCell id="iMnHsvMFKBXxsgqNxU5u-1" value="&lt;font color=&quot;#ffffff&quot;&gt;Mạch Hiển Thị LCD&lt;/font&gt;" style="whiteSpace=wrap;html=1;aspect=fixed;strokeColor=none;fillColor=#0000FF;rounded=1;" parent="1" vertex="1">
          <mxGeometry x="160" y="240" width="80" height="80" as="geometry" />
        </mxCell>
        <mxCell id="iMnHsvMFKBXxsgqNxU5u-2" value="Mạch điều khiển động cơ 1" style="whiteSpace=wrap;html=1;aspect=fixed;strokeColor=none;fillColor=#FF8000;rounded=1;" parent="1" vertex="1">
          <mxGeometry x="240" y="390" width="80" height="80" as="geometry" />
        </mxCell>
        <mxCell id="iMnHsvMFKBXxsgqNxU5u-3" value="Cảm biến khoảng cách 1" style="whiteSpace=wrap;html=1;aspect=fixed;strokeColor=none;fillColor=#FF8000;rounded=1;" parent="1" vertex="1">
          <mxGeometry x="360" y="390" width="80" height="80" as="geometry" />
        </mxCell>
        <mxCell id="iMnHsvMFKBXxsgqNxU5u-4" value="" style="endArrow=none;html=1;rounded=0;entryX=0.25;entryY=1;entryDx=0;entryDy=0;fillColor=#ffff88;strokeColor=#CCCC00;" parent="1" target="iMnHsvMFKBXxsgqNxU5u-1" edge="1">
          <mxGeometry width="50" height="50" relative="1" as="geometry">
            <mxPoint x="180" y="370" as="sourcePoint" />
            <mxPoint x="330" y="380" as="targetPoint" />
          </mxGeometry>
        </mxCell>
        <mxCell id="iMnHsvMFKBXxsgqNxU5u-5" value="" style="endArrow=none;html=1;rounded=0;entryX=0.75;entryY=1;entryDx=0;entryDy=0;fillColor=#008a00;strokeColor=#00FF00;" parent="1" target="iMnHsvMFKBXxsgqNxU5u-1" edge="1">
          <mxGeometry width="50" height="50" relative="1" as="geometry">
            <mxPoint x="220" y="350" as="sourcePoint" />
            <mxPoint x="330" y="380" as="targetPoint" />
          </mxGeometry>
        </mxCell>
        <mxCell id="iMnHsvMFKBXxsgqNxU5u-6" value="" style="endArrow=none;html=1;rounded=0;fillColor=#008a00;strokeColor=#00FF00;" parent="1" edge="1">
          <mxGeometry width="50" height="50" relative="1" as="geometry">
            <mxPoint x="220" y="350" as="sourcePoint" />
            <mxPoint x="700" y="350" as="targetPoint" />
          </mxGeometry>
        </mxCell>
        <mxCell id="iMnHsvMFKBXxsgqNxU5u-7" value="" style="endArrow=none;html=1;rounded=0;fillColor=#ffff88;strokeColor=#CCCC00;" parent="1" edge="1">
          <mxGeometry width="50" height="50" relative="1" as="geometry">
            <mxPoint x="180" y="370" as="sourcePoint" />
            <mxPoint x="660" y="370" as="targetPoint" />
          </mxGeometry>
        </mxCell>
        <mxCell id="iMnHsvMFKBXxsgqNxU5u-8" value="" style="endArrow=none;html=1;rounded=0;exitX=0.25;exitY=0;exitDx=0;exitDy=0;fillColor=#ffff88;strokeColor=#CCCC00;" parent="1" source="iMnHsvMFKBXxsgqNxU5u-2" edge="1">
          <mxGeometry width="50" height="50" relative="1" as="geometry">
            <mxPoint x="280" y="430" as="sourcePoint" />
            <mxPoint x="260" y="370" as="targetPoint" />
          </mxGeometry>
        </mxCell>
        <mxCell id="iMnHsvMFKBXxsgqNxU5u-9" value="" style="endArrow=none;html=1;rounded=0;exitX=0.75;exitY=0;exitDx=0;exitDy=0;fillColor=#008a00;strokeColor=#00FF00;" parent="1" source="iMnHsvMFKBXxsgqNxU5u-2" edge="1">
          <mxGeometry width="50" height="50" relative="1" as="geometry">
            <mxPoint x="280" y="430" as="sourcePoint" />
            <mxPoint x="300" y="350" as="targetPoint" />
          </mxGeometry>
        </mxCell>
        <mxCell id="iMnHsvMFKBXxsgqNxU5u-10" value="" style="endArrow=none;html=1;rounded=0;exitX=0.25;exitY=0;exitDx=0;exitDy=0;fillColor=#ffff88;strokeColor=#CCCC00;" parent="1" source="iMnHsvMFKBXxsgqNxU5u-3" edge="1">
          <mxGeometry width="50" height="50" relative="1" as="geometry">
            <mxPoint x="280" y="430" as="sourcePoint" />
            <mxPoint x="380" y="370" as="targetPoint" />
          </mxGeometry>
        </mxCell>
        <mxCell id="iMnHsvMFKBXxsgqNxU5u-11" value="" style="endArrow=none;html=1;rounded=0;exitX=0.75;exitY=0;exitDx=0;exitDy=0;fillColor=#008a00;strokeColor=#00FF00;" parent="1" source="iMnHsvMFKBXxsgqNxU5u-3" edge="1">
          <mxGeometry width="50" height="50" relative="1" as="geometry">
            <mxPoint x="280" y="430" as="sourcePoint" />
            <mxPoint x="420" y="350" as="targetPoint" />
          </mxGeometry>
        </mxCell>
        <mxCell id="iMnHsvMFKBXxsgqNxU5u-12" value="Mạch điều khiển động cơ 9" style="whiteSpace=wrap;html=1;aspect=fixed;strokeColor=none;fillColor=#FF8000;rounded=1;" parent="1" vertex="1">
          <mxGeometry x="520" y="390" width="80" height="80" as="geometry" />
        </mxCell>
        <mxCell id="iMnHsvMFKBXxsgqNxU5u-13" value="Cảm biến khoảng cách 9" style="whiteSpace=wrap;html=1;aspect=fixed;strokeColor=none;fillColor=#FF8000;rounded=1;" parent="1" vertex="1">
          <mxGeometry x="640" y="390" width="80" height="80" as="geometry" />
        </mxCell>
        <mxCell id="iMnHsvMFKBXxsgqNxU5u-14" value="" style="endArrow=none;html=1;rounded=0;exitX=0.25;exitY=0;exitDx=0;exitDy=0;fillColor=#ffff88;strokeColor=#CCCC00;" parent="1" source="iMnHsvMFKBXxsgqNxU5u-12" edge="1">
          <mxGeometry width="50" height="50" relative="1" as="geometry">
            <mxPoint x="560" y="430" as="sourcePoint" />
            <mxPoint x="540" y="370" as="targetPoint" />
          </mxGeometry>
        </mxCell>
        <mxCell id="iMnHsvMFKBXxsgqNxU5u-15" value="" style="endArrow=none;html=1;rounded=0;exitX=0.75;exitY=0;exitDx=0;exitDy=0;fillColor=#008a00;strokeColor=#00FF00;" parent="1" source="iMnHsvMFKBXxsgqNxU5u-12" edge="1">
          <mxGeometry width="50" height="50" relative="1" as="geometry">
            <mxPoint x="560" y="430" as="sourcePoint" />
            <mxPoint x="580" y="350" as="targetPoint" />
          </mxGeometry>
        </mxCell>
        <mxCell id="iMnHsvMFKBXxsgqNxU5u-16" value="" style="endArrow=none;html=1;rounded=0;exitX=0.25;exitY=0;exitDx=0;exitDy=0;fillColor=#ffff88;strokeColor=#CCCC00;" parent="1" source="iMnHsvMFKBXxsgqNxU5u-13" edge="1">
          <mxGeometry width="50" height="50" relative="1" as="geometry">
            <mxPoint x="560" y="430" as="sourcePoint" />
            <mxPoint x="660" y="370" as="targetPoint" />
          </mxGeometry>
        </mxCell>
        <mxCell id="iMnHsvMFKBXxsgqNxU5u-17" value="" style="endArrow=none;html=1;rounded=0;exitX=0.75;exitY=0;exitDx=0;exitDy=0;fillColor=#008a00;strokeColor=#00FF00;" parent="1" source="iMnHsvMFKBXxsgqNxU5u-13" edge="1">
          <mxGeometry width="50" height="50" relative="1" as="geometry">
            <mxPoint x="560" y="430" as="sourcePoint" />
            <mxPoint x="700" y="350" as="targetPoint" />
          </mxGeometry>
        </mxCell>
        <mxCell id="iMnHsvMFKBXxsgqNxU5u-19" value="&lt;b&gt;&lt;font style=&quot;font-size: 17px;&quot;&gt;. . .&lt;/font&gt;&lt;/b&gt;" style="text;html=1;strokeColor=none;fillColor=none;align=center;verticalAlign=middle;whiteSpace=wrap;rounded=0;" parent="1" vertex="1">
          <mxGeometry x="450" y="410" width="60" height="30" as="geometry" />
        </mxCell>
        <mxCell id="pmMoMxP0c1M7GSZvOQt2-1" value="&lt;font color=&quot;#00ff00&quot;&gt;&lt;b&gt;SCL&lt;/b&gt;&lt;/font&gt;" style="text;html=1;align=center;verticalAlign=middle;whiteSpace=wrap;rounded=0;" vertex="1" parent="1">
          <mxGeometry x="220" y="320" width="60" height="30" as="geometry" />
        </mxCell>
        <mxCell id="pmMoMxP0c1M7GSZvOQt2-2" value="&lt;b style=&quot;&quot;&gt;&lt;font color=&quot;#cccc00&quot;&gt;SDA&lt;/font&gt;&lt;/b&gt;" style="text;html=1;align=center;verticalAlign=middle;whiteSpace=wrap;rounded=0;" vertex="1" parent="1">
          <mxGeometry x="170" y="340" width="60" height="30" as="geometry" />
        </mxCell>
        <mxCell id="pmMoMxP0c1M7GSZvOQt2-5" value="&lt;font color=&quot;#ffffff&quot;&gt;Động cơ&amp;nbsp;&lt;/font&gt;&lt;div&gt;&lt;font color=&quot;#ffffff&quot;&gt;bước 1&lt;/font&gt;&lt;/div&gt;" style="ellipse;whiteSpace=wrap;html=1;aspect=fixed;fillColor=#FF3333;strokeColor=none;" vertex="1" parent="1">
          <mxGeometry x="240" y="510" width="80" height="80" as="geometry" />
        </mxCell>
        <mxCell id="pmMoMxP0c1M7GSZvOQt2-6" value="&lt;font color=&quot;#ffffff&quot;&gt;Động cơ&amp;nbsp;&lt;/font&gt;&lt;div&gt;&lt;font color=&quot;#ffffff&quot;&gt;bước 9&lt;/font&gt;&lt;/div&gt;" style="ellipse;whiteSpace=wrap;html=1;aspect=fixed;fillColor=#FF0000;strokeColor=none;" vertex="1" parent="1">
          <mxGeometry x="520" y="510" width="80" height="80" as="geometry" />
        </mxCell>
        <mxCell id="pmMoMxP0c1M7GSZvOQt2-7" value="" style="endArrow=none;html=1;rounded=0;exitX=0;exitY=0;exitDx=0;exitDy=0;entryX=0.25;entryY=1;entryDx=0;entryDy=0;" edge="1" parent="1" source="pmMoMxP0c1M7GSZvOQt2-5" target="iMnHsvMFKBXxsgqNxU5u-2">
          <mxGeometry width="50" height="50" relative="1" as="geometry">
            <mxPoint x="400" y="480" as="sourcePoint" />
            <mxPoint x="450" y="430" as="targetPoint" />
          </mxGeometry>
        </mxCell>
        <mxCell id="pmMoMxP0c1M7GSZvOQt2-8" value="" style="endArrow=none;html=1;rounded=0;exitX=0.5;exitY=0;exitDx=0;exitDy=0;entryX=0.5;entryY=1;entryDx=0;entryDy=0;" edge="1" parent="1" source="pmMoMxP0c1M7GSZvOQt2-5" target="iMnHsvMFKBXxsgqNxU5u-2">
          <mxGeometry width="50" height="50" relative="1" as="geometry">
            <mxPoint x="400" y="480" as="sourcePoint" />
            <mxPoint x="450" y="430" as="targetPoint" />
          </mxGeometry>
        </mxCell>
        <mxCell id="pmMoMxP0c1M7GSZvOQt2-9" value="" style="endArrow=none;html=1;rounded=0;exitX=1;exitY=0;exitDx=0;exitDy=0;entryX=0.75;entryY=1;entryDx=0;entryDy=0;" edge="1" parent="1" source="pmMoMxP0c1M7GSZvOQt2-5" target="iMnHsvMFKBXxsgqNxU5u-2">
          <mxGeometry width="50" height="50" relative="1" as="geometry">
            <mxPoint x="400" y="480" as="sourcePoint" />
            <mxPoint x="450" y="430" as="targetPoint" />
          </mxGeometry>
        </mxCell>
        <mxCell id="pmMoMxP0c1M7GSZvOQt2-10" value="" style="endArrow=none;html=1;rounded=0;exitX=0;exitY=0;exitDx=0;exitDy=0;entryX=0.25;entryY=1;entryDx=0;entryDy=0;" edge="1" parent="1" source="pmMoMxP0c1M7GSZvOQt2-6" target="iMnHsvMFKBXxsgqNxU5u-12">
          <mxGeometry width="50" height="50" relative="1" as="geometry">
            <mxPoint x="400" y="480" as="sourcePoint" />
            <mxPoint x="450" y="430" as="targetPoint" />
          </mxGeometry>
        </mxCell>
        <mxCell id="pmMoMxP0c1M7GSZvOQt2-12" value="" style="endArrow=none;html=1;rounded=0;exitX=1;exitY=0;exitDx=0;exitDy=0;entryX=0.75;entryY=1;entryDx=0;entryDy=0;" edge="1" parent="1" source="pmMoMxP0c1M7GSZvOQt2-6" target="iMnHsvMFKBXxsgqNxU5u-12">
          <mxGeometry width="50" height="50" relative="1" as="geometry">
            <mxPoint x="400" y="480" as="sourcePoint" />
            <mxPoint x="450" y="430" as="targetPoint" />
          </mxGeometry>
        </mxCell>
        <mxCell id="pmMoMxP0c1M7GSZvOQt2-13" value="" style="endArrow=none;html=1;rounded=0;exitX=0.5;exitY=0;exitDx=0;exitDy=0;entryX=0.5;entryY=1;entryDx=0;entryDy=0;" edge="1" parent="1" source="pmMoMxP0c1M7GSZvOQt2-6" target="iMnHsvMFKBXxsgqNxU5u-12">
          <mxGeometry width="50" height="50" relative="1" as="geometry">
            <mxPoint x="400" y="480" as="sourcePoint" />
            <mxPoint x="450" y="430" as="targetPoint" />
          </mxGeometry>
        </mxCell>
        <mxCell id="pmMoMxP0c1M7GSZvOQt2-14" value="&lt;font color=&quot;#0000ff&quot;&gt;&lt;b&gt;Master&lt;/b&gt;&lt;/font&gt;" style="text;html=1;align=center;verticalAlign=middle;whiteSpace=wrap;rounded=0;" vertex="1" parent="1">
          <mxGeometry x="100" y="265" width="60" height="30" as="geometry" />
        </mxCell>
        <mxCell id="pmMoMxP0c1M7GSZvOQt2-15" value="&lt;b style=&quot;&quot;&gt;&lt;font color=&quot;#ff8000&quot;&gt;Slave&lt;/font&gt;&lt;/b&gt;" style="text;html=1;align=center;verticalAlign=middle;whiteSpace=wrap;rounded=0;" vertex="1" parent="1">
          <mxGeometry x="100" y="415" width="60" height="30" as="geometry" />
        </mxCell>
        <mxCell id="pmMoMxP0c1M7GSZvOQt2-20" value="" style="shape=image;verticalLabelPosition=bottom;labelBackgroundColor=default;verticalAlign=top;aspect=fixed;imageAspect=0;image=data:image/png,iVBORw0KGgoAAAANSUhEUgAAAWgAAAFoCAYAAAB65WHVAAAAAXNSR0IArs4c6QAAIABJREFUeF7tnQl8VNXZ/89MwqrsYUerdXmt/bdWrdbaYrUqSK0bkhW0ta1LxS4okkkmUcANpaLiLEkE2QQriwWtb+2rfVVMQmZLZu6dIKKyg7K4oMBAZjLzf59LbnpJcYG5c2aezG8+n3xmSOae5zm/3+U7z5x7zrkWgQcUgAJQAApkpAKWjMwKSUEBKAAFoIAAoHESQAEoAAUyVAEAOkONQVpQAApAAQAa5wAUgAJQIEMVAKAz1BikBQWgABQAoHEOQAEoAAUyVAEAOkONQVpQAApAAQAa5wAUgAJQIEMVAKAz1BikBQWgABQAoHEOQAEoAAUyVAEAOkONQVpQAApAAQAa5wAUgAJQIEMVAKAz1BikBQWgABQAoHEOQAEoAAUyVAEAOkONQVpQAApAAQAa5wAUgAJQIEMVAKAz1BikBQWgABQAoHEOQAEoAAUyVAEAOkONQVpQAApAAQAa5wAUgAJQIEMVAKAz1BikBQWgABQAoHEOQAEoAAUyVAEAOkONQVpQAApAAQAa5wAUgAJQIEMVAKAz1BikBQWgABQAoHEOQAEoAAUyVAEAOkONQVpQAApAAQAa5wAUgAJQIEMVAKAz1BikBQWgABQAoLP0HKivr++xb9++fm+//fZJiUSih9Vq7RKLxbrSsxAiNx6PWy0WS04kEulGr4UQ1kQikWOxWLRnq9WaQ9J17979ID0nEglL24Peqz3i8bh2flmtVu1Zf4/+d/p3R/mpDf29dGgkEulhOJZy0v5Oz3R8xzaPYme87f2JeFx7ecSje/fuEf3vHf+WSCQSxlhtsan/lAPlouejadKmD+mivYcekUike1u79AtqUmvTarVSMq0U32KxtCYSiVaSLJFIxOnf9FoI0dK7d+/dPXv2/HjIkCF7TzvttI8GDRq0/aSTTtJyxqPzKwBAd36P23u4YsWK85YuXTr2rbfeunjXrl3fSyQSXaxWjacaXOin7XX7MVarVQNKG1c0tnQArPZ3YqZBSv13+q+SPs/auHw0hn5l2wTFDrlpbRj6k8wZ8I371TF//d9H+9AwJtSWvw721iFDhgQvvvhi/zXXXPMyPf/Xf/3XnmQ6gGMzW4FvfIJldjeQ3Vcp8NBDj/xm3rx5v92wYcMFBOBBgwZZ+/btKwYMGCBOOeXkowJLBxiBpCPMjP8mwOjvodf00717d+2YTz75RJxwwgmd2pxDhw6JHj16aP3t0qWL2Lt3rxg8eLDYt2+faG1tFd26dWvv/9Eg3bVr18OfbhaL9kMfmPpr+r3ezv79+8XHH38sduzYIT799FOK91G3bt123nLLLUsmTJiw5JxzztnWqYXO0s4B0J3Y+Llz597w0EMzynbv3vXt1tbWAWeeeaYYPny4OPHEEzWg9OzZU8RiLe0K0O90+OrPBw4c+A+FjICOxWKCfnS4HDx4UBB06Id+F41GO7HCQutnS0uLIFDTa9KrX79+goBKwKaf9q8Rh0dnjngYgayD2fjcu3dv7UOPHvQciUS0Dz76oVg7duz47OSTT1YLCgrm3HrrrS8OGjRoX6cWPMs6B0B3UsPvvbf0gb/+9YWb9+6l/78nixEjRmhgJmDm5uZqlVpOTo7YsOH9I6CsQ1qHMMFXfxxtWIDaIlAQVKhapvfT7whQBC0joDqj1KQnVcnUd72CJi0I2gTXo31AGStpqr6PBmb9dwR90pPeR/5RLKrMSXP6MNy2bZtWWUcikW2jR49+feLEiTMvuuiitZ1R62zsEwDdyVz3er0nORyup994441LI5FIn3PPPVf7D65XYARNgid9Vd61a5egIWhj1dwR0F81vGGUjoBPgKL29Qd9AJg01puxLhFICZjGB/Wbfqc/G//WcZjDqE9HUNNx5B39EJgJ0DQ01b9/fw3+9Du9et+yZYvYuXPnvh/84Af199xzz71jxoxRMlY0JPaNFQCgv7FUmf/GxsbGgY8//sTCF1988aq8vDxxzjnnaF+F6T84gXP37t16taVV0PQ4PHngyItmRmgY4XM02Oq/oxgUk8ZM6Ws4tU/VH30YdOYHjbeTRlQp05g+9ZvGoQmc1P9vUkGTPjq4jZCm3+s6ks76t5JevXqJk046SQwaNEjQ6y+++EKLRXE3btwYPe2009ZMnDhxclFRka8za58NfQOgO4nLNK3rpptu/u9//et/rxo4cKBWYVFFS0MO27dvp+pKgwWNQVNVfe2114qf/OQn4vTTv22aAgSKhQsXihkzZmhfvelBVWRnfugfYHRhcNq0aaKkpESDJgH1S2aeHLMcBOatW7cKRVFEIBAQjY2NQlVVzdMzzjhD9OnTR/ObrinQB+S6deti55577j8mTZp0z6hRo9475oA4IGMUAKAzxorkEqmsvP/xpUuX/tFqtebSeDMB4r333mv/CkzV9Pjx48UNN9wg+vXrK/TrVR2/Yh9PFkYYLVmyRPzpT38Se/bs0Sp34xj28bSd6cfoH4I0/FBTUyOKioq0i3n0ow8tmdEHfWyf2iJta2trhdfrFW63W6vchw4dqg15kBdUSZ9wwgmfDxw4cOHy5cv/2DZVz4w00IZkBQBoyYKnItyMGTPvXrz4uftisVifYcOGacMZVDXrV//vuOMOcfvtt4t+/foImhBA/9m7ds0Vra0JkZOT3ClAMf49XJIQzz33nKB4NMxBX7uNY9Kp6Hu626RvCKQBgZG+Pdx0002mpmQEs359QNeb/vbKK6+Iv/zlLyIcDotvfetbGqhJe6rsP/300w3FxcV/rqioeNnUpNCYNAWS+98pLU0E+ioFrrtubMO2bVt/RBUbXUCiC4Dr1q0TI0eOFIsXL9YuLvXseXhBGwGaquejzPg6bpH18VZqYO7cueJ3v/udBm0CClV1NNuAvoKfdtpp2rDL5s2btfFwylcfozVW8voME4JfqmeBEMwotg7ZjiLoF/oIfJQ/vb+5uVnrE83c0Gew0PFz5swRv/3tb7UmjJoct7Df4EDKnTScNGmSWLRokTj77LO1YSwaEunbt2/8wIEDb91yyy23/O53v9v8DZrDWzJMAQA6www51nSmTp1+3/Lly0v79+/fk8Y+dfjRV22qmqmqogtZbdcEtar58JxlujCYPKj1CpoqNgLryy+/rA2jUAyCK4GMnr/73e+KH//4x9qYtM/nE6FQSPubsfrWIa0Dmp6HDBlyrJIc0/s//PDD9iEJPb5x7Jj6Rx8u5513njZ2TznX19eLtWvXamAkbemZjv3b3/4mrrnmGq09vbLW+3dMSR3Dm/VvKPRB8eSTT2ofkDQWTbnS9LuDBw9+cvHFF1fMnDnTfQzN4q0ZogAAnSFGHG8aI0f+LPjFF1+cQ1XT559/rlXPF110kSgvLxdnn33WEc1S9Uwgoa0xqII2A9B6AP2rOF3Auuqqq7QKmWYZ0FQ+AjRVn9/73vc0cBHcPvjgA60a/bKlzgQ2HdTHq803OU6H65dNByRY0wcfXYyjHwIiXaDbsGGDlrveR7ow++qrr2ogNw5LfJMcknmPcYiJPjzuuusu7SIiXTjUPyS6du362t133/3b0aNHb00mFo6VrwAALV9z0yIuWrTo2ieeeGrBkCFD+tJ/VAIfgZBmE4wc+ZP2MWYCcTx+eJUgAUcfdzYL0B0vYP35z3/WhlboQcMYVF3TM1Wb9CAw6xcPjXOlOw5zUK6pvsiox9fHdyk/vYI25kP5E6hJZ5qtQs9UqeorLekCLFWwNNWQHjIhTbEoHxrz/+yzz8TEiRO1bymnn366Pu1v45VXXnnr/fff/y/TTj40JEUBAFqKzKkJ8utf//q5jRs3jydw0JgjAYVmUEyYMEF06ZKrVcl61dwRzpQR/U0f+jjeDKkC1ceJ9WrujTfeEI888oh47bXX2seiO84WITB+3VJws6apfVXf9H1EvqyCpr7p4+RU0RsrflrdRx82V155pSgrKxOXXXaZ9nd9WMOozfHq+3XH6Qti6H16vNWrV4u7775bAzYNEVkslv1Wq/XR5cuXP/B17eHvmaUAAJ1ZfhxTNj/96U9X9+7ddyRBgabUXXLJJWLWrFmib9/e4uDBlrZFDrnaUMbhyvDfzdPvWltpKlj75nTHFFt/sw4IuiimjzvT67feekv84x//ENXV1doFMyNI6LX+3o4VckeQd1yld1xJfsVB+jzto003PDwcdBjK+t+N4+QE7zvvvFOMGTNG/OxnP2tfmELvITga+2x23kdrT6/aKf706dO1WSVnnXWWOPnkkxObNm1aYbfbbxs5cuSnMnJBDHMUAKDN0VF6Kx6PZ8DEiRP/Z+DAwefp+zLcc8892gU6+g/apcuXLxAhOOvQTraC1jtO4580DKBXxvR7mq9LVR3lRz/6xko6oOm9+mZBejsdK9lUX2TrOHvDWLUfDdCUM81MoeqZngnE+rAGvZ/6Rv3Uh3NSfWLoUDZW65QDTbujKpoq/AsvvJAuGAYuvvjigjvvvHNDqnNC++YpAECbp6XUlpYuXXr2o48+unLIkGFn0PDGqaeeKlasWKGNL0cih0T37rRo4T9naRiraTOm2hGUCAI0HqtvParvT9FxFSHBRL/4R2IZ328U72izKVItrj4E9HVxjpabXinr49jUR/pA0jdC+ro2k/27nrsOa32Y5Q9/+IN48803ter+xBNPfCc3N/c3Dz30UEOy8XC8PAUAaHlamxrJZrON8nq9C3v06DGYLgjRKrZRo0Zp48FUyaYDcqZ2EI19YwUIzMZvLnQg7cGyfv16cdttt4lTTjlFjB49OvjWW2/NWrZs2aJv3DDemHYFAOi0W3B8CZSVlf3S4/Es7Nq1az+askbjjRdccEH7vszGi1XHFwFHcVGg4/g+wZqg/dFHH4lx48YJmgI4ZswYf11dnXPJkiXzufQLeR55myLowUiBsrKysR6Ph/6z9aK5uUuXLhW0zFsfOqDnVI/fMpKrU6dqHJ7pOBZ99dVXa9X1DTfcsLqhoaF67ty5Szq1GJ2sc6igmRpqs9kK/2/v57nRaPQEWulGq9j06W76qj4Z09SYytdp0jaOe1On9Lvb6OP/xcXF2tzocePGvdbY2FjjcrmWd5rOZ0FHAGimJpeXl0+giujgwYM9aa4rXSDUK6lvesGLadeRdgcFOm5YZTwPfv/732vL//Pz818NBoPVDodjJQTkowAAzcerIzK12Wy/8Xq9jkgk0oOGNpYvXy593i1T6Tpd2noVbbzZLHWSfk+rOmnjLAK0qqo1s2fP/lunE6ATdwiAZmquzWa70+PxzGppaelGm8UvW7bsiLtB4yIhU2OPMW1jtazP2zY2QXOhaU70jTfe+D/hcHiOw+FYdowh8PY0KgBAp1H8ZELbbLZJHo9nRiwW60ob9tBFQn2LT2pX3/8imRg4NvMVONpSewK1Psd88uTJGqCvv/7618Ph8Dy3242LhJlva3uGADQjs4yplpWVTfZ6vQ9HIpEutJJt1apVR9xmCRU0U2NNTpv2ZqFNtMaNG/e/qqrOdzqdmAdtssapbA6ATqW6KWy7tLTU5vf7H4hEIrkAdAqFZt60Duj8/Py3QqHQfJfLhXnQjDwFoBmZZUy1tLS0wu/3T41EIjkANFMTJaRtAHRtG6DnSgiLECYpAECbJKTsZmw221Sfz1cZiUSsALRs9fnEMwB6TSgUmudyuZ7hkz0yBaCZngM2m+1Bn89XBkAzNVBS2jqgCwoKvMFg8FmXy1UtKTTCmKAAAG2CiOlowmazPezz+UoB6HSozyemoYL2hUKhuQA0H+8oUwCal1/t2dpsthk+n+9eAJqpgZLSBqAlCZ2iMAB0ioRNdbOlpaWP+v3+yQB0qpXm3b4B0J62Chpj0IwsBaAZmWVMtbS0dKbX650Ui8Vy+vbtK1566SXtz9iHg6mhKUqblnoriiIKCwvXqKo6x+l0PpuiUGg2BQoA0CkQVUaTNpvtMY/HczcALUNtvjEMgK5tA/QCvr3JvswBaKael5WVPeLxeCZHo9FcVNBMTZSQtgHQbyqKMsflci2WEBYhTFIAgDZJSNnNlJeXP9zQ0ECA7gJAy1afTzwDoF9TVfVZp9P5Vz7ZI1MAmuk5UF5e/mBDQ8O90Wi0KwDN1EQJaeuALigo+Ec4HKa9OJZKCIsQJikAQJskpOxmbDbbdK/XOyUajXYDoGWrzyeeoYJ+ORwOL8J2o3y8o0wBaF5+tWdbVlY2zePxEKC7A9BMTZSQtgHQK8Ph8BIAWoLoJoYAoE0UU2ZTpaWl9/l8Pls0Gu0BQMtUnlcsA6CXq6q6DEMcvPwDoHn51Z7t1KlTJ69evXoq3TQWgGZqooS0aaFKc3OzKC4u/mswGHwRFbQE0U0MAUCbKKbMpu67775733jjjfuEECcC0DKV5xWrA6BXOhyOF3j1ILuzBaCZ+l9RUVH25ptvVlosFgxxMPVQRto6oAsKCl5QVfUlh8OBW17JEN6kGAC0SULKbmbatGmVa9asse/fvx+zOGSLzygeAZruSVhcXLwsGAy+jFteMTIPszh4mWXMtqysbObq1asnWa1W7MXB18aUZ04XCVVVpb04loVCof/GLa9SLrmpAVBBmyqnvMamTZtW88orr9zarVs3gTFoebpzi6QDuqCgYLmiKK+6XC7c8oqRiQA0I7P0VBOJRJeHHnroFY/Hc+Vnn30GQDP0UFbKBkDTEMdrVVVV2G5UlvgmxAGgTRBRZhNvvPFG7scffzxq6dKlz3z++efD9u/fD0DLNIBZLCOgQ6HQ6263u4ZZF7I6XQCamf333HPPWUII1/bt2y87cOCA2Lt3r+jTp49YtWqV1hN9P2jsC83M2BSlqy9UKS4uXhoIBN6orq6uSlEoNJsCBQDoFIiayibvuuuun8fj8QV79uwZEY1GxSeffAJAp1Jw5m3rgC4qKnqhsbHxTQCal6EANC+/xIQJE26Jx+NPtbS09KLUd+/eDUAz81BmuoYK+q9+v391TU2NW2Z8xEpOAQA6Of2kH33ttddWRqPRyh49enTJyckRu3btAqClu8AnoA7okpKSJT6frxaA5uMdZQpA8/JLXHrppU8ePHjwj4MHD7bQFLudO3cC0Mw8lJmuoYJe7Pf76wBomeonHwuATl5DqS2ce+65cw8cOPCbM888U5xwwgniww8/BKClOsArmAHQi/x+/xoAmpd/ADQvv8S3v/3tpfv3788///zzRb9+/cS2bdsAaGYeykzXMMSxwOfzeQBomeonHwuATl5DqS0MGTLk9QMHDlz+k5/8ROTl5YktW7YA0FId4BXMMItjXmNjoxezOHj5B0Dz8kt06dJlYyKROOXSSy8VQ4YM0QA9YMAAsWLFCmGxHLYTc6CZmZrCdCdNmiQURaHNkub4fD5fTU0NFqqkUG+zmwagzVY0xe3l5uZuFUKMAKBTLHQnad4A6Cqfz9cEQPMyFoDm5ZfIzc3dkUgkhl522WVi6NChYvPmzaigmXkoM10d0EVFRQ6/3x+qqamZIzM+YiWnAACdnH7Sj87JydmZSCQG/fznPwegpavPL6C+F0dRUdETgUCgubq6GrvZMbIRgGZkFqVqtVr3JBKJAZdffrkYNmyY2LRpEypoZh7KTNcwi2NmIBBYV1VV9azM+IiVnAIAdHL6ST/aYrF8KoToC0BLl55lQB3Q48ePf9Tv9xOg57PsSJYmDUAzM95isXyWSCT6XHHFFWL48OFi48aNqKCZeSgzXbrlFd1Rpbi4+JHGxsb1ALRM9ZOPBUAnr6HsFj4XQvQCoGXLzjOeDuiSkpIZjY2N69xu9wKePcnOrAFoZr5brda98Xi89+jRo7V50KigmRkoOV19iKOwsPDJcDisOByOeZJTQLgkFACgkxAvHYdardbP4/F4LwL04MGDcZEwHSYwimkA9NPhcLgJgGZkHnaz42UWZQtA8/MsnRkblno7VFVtBKDT6caxx0YFfeyapfUIi8XyeSKR6DVq1ChtiAPT7NJqR8YHN1TQLlVVA06nE9PsMt61fycIQDMyi1I1ApqGOLCSkJmBktM1VNDViqJ4AWjJBiQZDoBOUkDZhwPQshXnHc9QQT8TDoc9DocDKwkZWQpAMzLLWEFfeeWV2hAHKmhmBkpO1wDouaqqNjidTuzFIdmDZMIB0Mmol4Zj9QoagE6D+AxDGgA9rw3Q2G6UkY8ANCOzKNWcnJxPW1tb+9JClREjRogNGzZgJSEzD2WmSwtV1q5dK8aNGzdfUZQGl8tVLTM+YiWnAACdnH7SjwagpUvOOqAO6Pz8/EWKoqxxOp1u1h3KsuQBaGaGA9DMDEtzugZALwmFQnUul8uV5pQQ/hgUAKCPQaxMeCsAnQku8MnBAOi/BoPBWrfb7eSTPTIFoJmdAzk5OZ+0trb2wxg0M+PSlK4B0C+EQqFal8vlSFMqCHscCgDQxyFaOg8BoNOpPr/YRkAHg8E6t9v9NL9eZG/GADQz7wFoZoalOV0d0AUFBc8Hg8F6VNBpNuQYwwPQxyhYut8OQKfbAV7xDdPsFodCoTUYg+blHwDNy68j9uIYNGiQ2LJlC+ZBM/NQZrqGvTgwzU6m8CbFAqBNElJWMxaLZW8ikehNu9kB0LJU5xvHuJJQURQPFqrw8hKA5uUXVdDtgMZudszMS0O6OqALCgrm0GZJ2IsjDSYkERKATkK8dBwKQKdDdb4xjduNqqrqw252vLwEoHn51V5B0y2vaIgDu9kxM1ByuoYK2h0Oh/3YD1qyAUmGA6CTFFD24XoFjXsSylaeZzzcUYWnb3rWADQz/wBoZoalOV0AOs0GJBkegE5SQNmHA9CyFecdzwBoZ9tdvXFHFUaWAtCMzKJUu3btuj0Wiw27/PLLBc3i2Lp1q+jTp49YtWqV1pNEIkHj1O3PzLqHdE1WgBaqNDc3i6KioieDwaCKMWiTBU5xcwB0igU2u/levXqtjcVi3xk5cqR2kRCANlvhztWeAdCzQ6GQglkcvPwFoHn5RfchfCsWi13ywx/+UFtBuG3bNlTQzDyUma4O6MLCQlcoFAo5nU7c8kqmAUnGAqCTFFD24WecccaKWCw29uyzzxb9+vVDBS3bAGbxCNDhcFgUFhbWhEKhRqwk5GUgAM3LL3H++ecviMViN5988sla5YwhDmYGSk6XLhKqqioKCgqeCQaDTVVVVbjllWQPkgkHQCejXhqOveKKK2ZHo9E7+/Xrl9OzZ0+xfft2DHGkwQcuIXVA5+fnz1FVtQm3vOLi3OE8AWheftHdmctisZg9JyfnBKvVKnbt2gVAM/NQZrqGCrqmqakpVF1djXsSyjQgyVgAdJICyj785ptvvqG1tfXJlpaWk2OxmPjkk08AaNkmMIqnA3rcuHFViqIoGOJgZB4qaF5mUbYzZ84ctHPnzulr1669pVu3bl337Nkj+vbtK1566SWtM/o8aH49Q8apUEBfqFJSUuL2+XxqTU0NxqBTIXSK2kQFnSJhU9lsbW3tsJUrV65UFOWCSCQCQKdSbOZtG3azcwYCgWYAmpehADQvv9qzfeyxx2atXLlyUk5ODgDN1EMZaQPQMlROXQwAOnXaprTlqVOnPvjPf/5zcm5ubjcMcaRUataN64AuLi52+P3+taigedkJQPPyqz1bu93+QG1t7eR4PN4dgGZqooS0DWPQs30+3zoAWoLoJoYAoE0UU2ZT06dPn/bmm2+WRaPRLgC0TOV5xTJU0E8FAoF11dXVVbx6kN3ZAtBM/b///vvdtbW1d7S0tGAMmqmHMtI2APqJQCCwHoCWobp5MQBo87SU1tK7776b53Q6X3n33XcvPHDgAAAtTXl+gQxDHI8HAoH3qqqqqvn1InszBqCZeX/TTTf96NChQ3+yWCwFLS0tOViowsxAyelOmjRJKIoiSkpKHvV6ve/X1NTMkZwCwiWhAACdhHjpOHT06NF/PnTokK13796Dc3Nzxccff4yVhOkwgklMHdBFRUWP+P3+DQA0E+Pa0gSgefklzjrrrHktLS0TTj311FzaD3rnzp0ANDMPZaarA7q4uPghv9+/sbq6Gre8kmlAkrEA6CQFlH147969Pa2trReef/75grYcxXajsh3gFU/fi6O4uHhaY2PjZrfbPY9XD7I7WwCamf85OTlb4/H4iEsvvVSccsopYsOGDaigmXkoM922i4SJkpKS+xsbG7e43e4FMuMjVnIKANDJ6Sf9aIvFsieRSAwYNWqUGD58OAAt3QFeAQ2ArgwEAluqqqoW8epBdmcLQDPz32q1fhaPx/tcddVVYuDAgWLLli2ooJl5KDNduuWVqqrxkpISAvTmqqqqxTLjI1ZyCgDQyekn/eicnJzPW1tbexGg6Z6EO3bsAKClu8AnYBugaYijorGxcZPb7V7CJ3tkCkAzOwesVusX8Xj8xNGjR9MdvsXGjRu1u3uvWLFCWCyH7cSe0MxMTWG6+kKVwsLC6YqirHe5XKigU6i32U0D0GYrmuL2jIAePHiw2LRpEwCdYs05N28A9IPhcPgdh8OBCpqRoQA0I7MoVQCamWFpTheATrMBSYYHoJMUUPbhFovli0QicSLN4qAhDlTQsh3gFc+wYf9DqqquRQXNyz8AmpdfNM78eSKR6EWApiGOzZs3Y4iDmYcy09UBXVBQ8HBzc3MzAC1T/eRjAdDJayi1BQBaqtzsgxmGOB5RFKUZFwl5WQpA8/KLKui9iUSi95VXXqkNcaCCZmag5HQNFfQMVVXDALRkA5IMB0AnKaDswy0Wy6eJRKIvAC1beZ7xDGPQj6mqqjocjud49iQ7swagmfl+0kknvbV169aRN954o+bdrl27sGE/Mw9lpksLVdauXSvy8/NnKoqiOp1OLPWWaUCSsQDoJAWUffjpp5/+wubNm6/65S9/2btXr17aQhXck1C2C3zi6YAuKCiY1dTUpGCzJD7eUaYANC+/xNVXX33bpk2b7jz11FPP6d69u7YfNADNzESJ6eqAHjdu3FNj7X/yAAAgAElEQVShUCiE7UYlim9CKADaBBFlNjFnzpz+27Ztu+SDDz6YuWvXrtNxT0KZ6vOLZRjicCiK0uR0Op/l14vszRiAZup9RUXFjEAgMHnfvn05qKCZmighbQOg3aFQKOByuXBHFQm6mxUCgDZLScntTJs27Zba2tonDx482BuAliw+o3CGMegqArTT6cRNYxn5B0AzMsuY6uTJk2/1+/2Ptba29gWgmZooIW0AWoLIKQwBQKdQ3FQ2fc8999yhqurDkUikHwCdSqV5t20c4lAUpREVNC8/AWhefrVna7PZfu3xeP4Si8UGANBMTZSQtmElobu5uTngcDgwBi1Bd7NCANBmKSm5nbKyspsaGhpmxWKxPABasviMwhn24nCqqkoVNGZxMPIPgGZkljHV0tLSEp/P92Q0Gh0IQDM1UULahgp6tqqqTS6Xa76EsAhhkgIAtElCym6mvLy8qKGh4eloNIoKWrb4jOIZKugnVVUNOp3OBYzSz/pUAWimpwAAzdQ4yWkbAD1LUZSQy+VaKDkFhEtCAQA6CfHSeWhpaWmRz+dzRKNRXCRMpxEZHtswxPF4OBwOYbOkDDesQ3oANC+/2rO12WzjvV4vDXFgmh1TD2Wkbaig/6KqqgJAy1DdvBgAtHlaSm2ptLT0Zp/PNzsajfbBRUKp0rMKZgD0TFVVmzEGzco+7GbHy65/Z2u322+qr69/OhaLAdBcTZSQNy1UaW5uFkVFRQ83NTW9izFoCaKbGAIVtIliymzKbrf/qr6+fnYsFsNeHDKFZxZLB3RxcfGjwWDwXYfDMY9ZF7I6XQCaqf2VlZW/rq2tJUD3whAHUxMlpK0DurCwkGZxrMVKQgmimxgCgDZRTJlNVVRU3FJXV/cUAC1TdX6xCNDhcJiGOBzBYFBxuVzP8OtF9mYMQDP1HoBmapzktOkioaqqBOiqpqYmuqNKleQUEC4JBQDoJMRL56GVlZW/qa2tpQr6RAxxpNOJzI6tA7qgoOAZRVGCLpfLldkZIzujAgA00/MBgGZqnOS0DYCuoQq6uroagJbsQTLhAOhk1EvjsW1DHHSREBV0Gn3I9NA6oPPz8+mWV2pVVZU703NGfv9WAIBmejZgDJqpcZLT1heqFBcXu/x+f7impgaAluxBMuEA6GTUS+OxAHQaxWcU2gBoRyAQaK6ursZFQkb+AdCMzDKmCkAzNU5y2gZAPx0IBNYC0JINSDIcAJ2kgOk6vG2hCs3iwErCdJnAIC4AzcCkr0gRgGbqHwDN1DjJaeuALikpme33+99BBS3ZgCTDAdBJCpiuw9v24qAKGpslpcsEBnF1QBcVFT3Z2Nj4LgDNwDRDigA0L7/as62srLy5baFKXyxUYWqihLQNQxxPEKCrqqqqJYRFCJMUAKBNElJ2M5WVlRNqa2tpu1EAWrb4jOIZhjge9/l862tqamoYpZ/1qQLQTE8Bu90+vm0/aNxRhamHMtKeNGmSUBRFlJSUPOr1et+vqamZIyMuYpijAABtjo7SW6msrCxpq6D7Y4hDuvxsAuqALioqeiQQCHxQXV09l03ySBR3VOF6DlRWVhbV1tY6YrEYbhrL1UQJeRsq6Af9fv/GqqqqZyWERQiTFEAFbZKQspux2+2F9fX1TgBatvK84ul7cRQXF09rbGzc7Ha7cUcVRhYC0IzMMqZqt9vz6+vrXbFYLA9DHExNlJC24SLhfY2NjVvcbvcCCWERwiQFAGiThJTdjN1uv7G+vt4di8UGAtCy1ecTrw3QiZKSkoo2QD/HJ3tkCkAzPQcqKirG1tXVVQHQTA2UlDbd8kpV1XhJSYm9DdBLJIVGGBMUAKBNEDEdTVRUVFxfV1dXHYvFBqGCTocDPGK2AToxfvx4u8/n21RdXf08j8yRJSkAQDM9D+69994bvV6vKx6PA9BMPZSRtmGp99RQKLTe5XIB0DKENykGAG2SkLKbmTJlylifz0dj0AC0bPEZxdMBXVhYOF1RlHUANCPzUEHzMsuYbVlZ2fUej6c6Go0C0HxtTHnmOqALCgoeUFX1HQA65ZKbGgAVtKlyymusrKzsWq/XW9PS0jIYY9DydOcWCYDm5tiR+QLQTP0DoJkaJzltwxDHg4qirEUFLdmAJMMB0EkKmK7DCdAej6cmGo2igk6XCQziGiroh5ubm5sdDgem2THwTU8RgGZkVocxaACaqXcy0zYAeoaqqmGXy7VYZnzESk4BADo5/dJ2dGlp6XVer5fmQaOCTpsLmR/YMM3uMUVRwk6nc1HmZ40MUUEzPwf0MehIJDI4Ly9PrFq1SiQSCWGxHP7Mjcfjwmq1Mu8l0k9WAVqosnbtWpGfnz8zFApRBb0w2TZxvDwFUEHL09rUSFRB+/3+agDaVFk7XWM6oAsKCmYFg0HV5XLN73Sd7MQdAqCZmgtAMzVOcto6oMeNG/eUqqqK0+nEftCSPUgmHACdjHppPBaATqP4jEIbhjgciqKEnE4nbnnFyD8AmpFZxlQBaKbGSU7bAGh3KBRqcrlcz0hOAeGSUACATkK8dB4KQKdTfT6xDWPQVU1NTU1utxt39eZjH3azY+TVEakC0Fydk5s3AC1Xb7OjoYI2W1FJ7QHQkoRmHsY4xBEMBoOooHkZCkDz8qs9W5vNdoPH46HtRrFQhamHMtI27MXhUhQliDFoGaqbFwOANk9LqS3RdqMNDQ10yysAWqryvIIZVhJiFgcv67RsAWiGplHK2A+aqXGS0zZU0JgHLVl7M8IB0GaomIY2aIjD6/VWYcP+NIjPKKQB0LMURcFKQkbeoYJmZpYx3bKysrEej4cAPRAb9jM2MsWpGwA9U1XVZqfTuSDFIdG8iQqggjZRTJlNlZWVjaOLhNFoNA+Alqk8r1jG3exCoVAzNkvi5R8Azcuv9mxtNluh1+t1ANBMDZSUtqGCfrTtjirYzU6S9maEAaDNUDENbZSWlhb5fD4C9ABU0GkwgElIA6AfUVX1XQxxMDGuLU0Ampdf7dna7fbC+vp6RywWwxAHUw9lpE0LVZqbm0VhYeH0YDD4AYY4ZKhuXgwA2jwtpbZUWVlZVFtbS4BGBS1VeV7BdEAXFRU90NTUtAH7QfPyD4Dm5Vd7tgA0U+Mkp22ooB9RFOUDh8MxV3IKCJeEAgB0EuKl81C73V5cX1//NCrodLqQ+bEJ0OFwWBQVFdEdVdZhqXfme2bMEIDm5ZdxDJoAPRtj0EwNlJQ2XSRUVZXGoGcHg8F33G53laTQCGOCAgC0CSKmo4nKysqS2trapwDodKjPJ6YO6Pz8fLeqqnTTWBef7JEpAM30HACgmRonOW0joIPBYLi6uhqAluxBMuEA6GTUS+OxAHQaxWcU2gBoVzAYbAagGZmH3ex4mWXMtu0iIcag+VooJXN9oUpxcbErEAgA0FJUNy8IKmjztJTaEgAtVW62wQx7cTgbGxvXooLmZSUAzcuv9mwBaKbGSU4bgJYsuMnhAGiTBZXVXNtCFZoHjaXeskRnGMcI6EAg8E5NTY2TYTeyNmUAmqn1bXtxEKCxHzRTD2WkbRiDdvj9/nUAtAzVzYsBQJunpdSWAGipcrMNBkCztU5LHIBm6p/dbs9v281uELYbZWqihLQNgH7a7/e/iwpagugmhgCgTRRTZlMVFRXj6urqnLFYDICWKTyzWDqgS0pKZhOgMYuDl4EANC+/2rOtqKgYW1dX54rFYoNRQTM1UULakyZNEoqi0GZJTwQCgfXV1dXYi0OC7maFAKDNUlJyOxUVFdfX1dVVAdCShWcWTgd0cXHx436//30AmpeBADQvv9qztdvt19XX1xOgh6CCZmqihLQNgJ4ZCAQ+qKqqqpYQFiFMUgCANklI2c3Y7fZr6uvrawBo2crziqfvxVFcXDyjsbFxo9vtruHVg+zOFoBm6n95efnVa9aseSYWiw1FBc3URAlp6xcJx48f/2AgENjsdrvnSAiLECYpAECbJKTsZsrLy8esWbNmLgAtW3le8QyzOKYFAoEtVVVVz/LqQXZnC0Az9b+iouKquro6AvQwVNBMTZSQNt3ySlXVxPjx46f6/X4C9HwJYRHCJAUAaJOElN1MRUXFqLq6unkAtGzlecXTAV1SUnJ/Y2PjFrfbvYBXD7I7WwCaqf+lpaVjGhoa5sTjcVTQTD2UkbZhs6SHQqHQ+y6XCxW0DOFNigFAmySk7GZsNttVHo8HQxyyhWcWTwd0YWHhI6qqvut0OlFBM/IQgGZkljFVm802yuv1PhuNRodjDJqpiRLSBqAliJzCEAB0CsVNZdPl5eVXejyeeS0tLQB0KoVm3jYAzdtAAJqpfwA0U+Mkp60DuqCgYEY4HF6HIQ7JBiQZDoBOUsB0HU6AbmhomIchjnQ5wCOuoYJ+VFGUdbhIyMM3PUsAmpdf7dliDJqpcZLTNszieExV1XUOh2Oe5BQQLgkFAOgkxEvnoZjFkU71+cQ2VNB/UVX1HafTiZWEfOzDHVUYeXVEqjQP2u/3z4lEIsPy8vLEqlWrRCKREBbL4c/ceDwurFYr1+4hb5MUoIUqa9euFfn5+TNDodC7LpdrrklNoxkJCqCCliByKkKUlZX9wuv1PgNAp0LdztOmAdCP0xi00+nEZkmM7AWgGZllTBWAZmqc5LR1QBcUFMwKBoN0kfAZySkgXBIKANBJiJfOQ0tLS6/2+/01qKDT6ULmxzZU0E8Gg8F3sB905ntmzBCA5uVXe7YANFPjJKetA3rcuHFPKYryjsvlwh1VJHuQTDgAOhn10nhsG6CrI5HIcFwkTKMRGR7aUEHPDoVCawHoDDesQ3oANC+/2rNtG4OmIQ4AmqmHMtJGBS1D5dTFAKBTp21KWwagUypvp2ncUEE/QRcJMQbNy1oAmpdfR4xBe73e6lgshs2SmHooI23DXhyP03ajmMUhQ3XzYgDQ5mkptSWqoBsaGgjQI7DdqFTpWQXrsNR7vcPhwEIVRg4C0IzMMqZKKwl9Pl9NNBoFoJl6KCNt43ajiqKsx2ZJMlQ3LwYAbZ6WUluiu3o3NDQ8g93spMrOLpgB0A8qivKey+VayK4TWZwwAM3UfBri8Hg8VEFjDJqphzLSNgB6uqqq7zudzkUy4iKGOQoA0OboKL0VmgfdNsSBm8ZKV59PQMMY9NS2m8Yu5pM9MgWgmZ4DZWVl13q93qqWlpahuEjI1EQJaRsq6PvD4fD7DodjiYSwCGGSAgC0SULKbqasrOx6j8fjjkajQwBo2erziWcEtKIoH7hcLlTQfOzDftCMvDoiVbvdfl19fX1VLBYDoLmaKCFvWqjS3NwsioqKykKh0BZU0BJENzEEKmgTxZTZVEVFxdi6ujonAC1TdX6xDICuCIVCmx0Ox3P8epG9GQPQTL232+031tfXOwBopgZKSlsHdGFh4fRgMEhDHJhmJ0l7M8IA0GaomIY2KioqxtXV1RGgB2MMOg0GMAlJgA6Hw6KwsJBueUW72c1nkjrSFAJj0FzPgsrKyoLa2trZADRXB+XkTRcJVVUlQNN2owruSShHd7OioII2S0nJ7djt9sL6+noC9CBU0JLFZxROB3RBQUGNoih+bJbEyDxU0LzMMmZrt9uL6+vrnwSg+XooI3NDBf1sU1OTt6qqCndUkSG8STFQQZskpOxmKisrS2prawnQA1FBy1afTzwd0Pn5+fNDoVADAM3HO8oUgOblV3u2ADRT4ySnrS9UKS4uXuT3+9fU1NS4JaeAcEkoAEAnIV46D7Xb7ePbhjjyUEGn04nMjm3Yi+O5QCBQD0Bntl8dswOgefnVni0AzdQ4yWnrgC4pKVni9/vrqqurXZJTQLgkFACgkxAvnYcC0OlUn09swxDH8wTompoaJ5/skSkAzfQcAKCZGic5bcMQxwuBQOBtAFqyAUmGA6CTFDBdh7ddJHwqFothDDpdJjCIa6iglzY2Nr5dVVXlYJA2UmxTAIBmeiq0zYOmhSoANFMPZaRtGINeFggEVgPQMlQ3LwYAbZ6WUltqW0n4NOZBS5WdXTBDBb2cAF1dXf00u05kccIANFPz2/bioM2SsFCFqYcy0p40aZJQFEWUlJSs8Pv9b6KClqG6eTEAaPO0lNpS2252LgBaquzsgumALi4ufjEQCLwBQPOyEIDm5Vd7tm0b9tMdVVBBM/VQRto6oIuKilYGAoH/xRCHDNXNiwFAm6el1JbsdvsNbbe8wm52UpXnFUzfi6OkpOQlv9//r6qqqtm8epDd2QLQTP1vuydhDXazY2qgpLQNszheDgQCrwPQkoQ3KQwAbZKQspupqKi4tq6ubg6GOGQrzyueYRbHK42Njf8DQPPyD4Dm5Vd7tna7/Zr6+vq5ADRTAyWlTbe8ojuqjB8//h8+n++f1dXVT0kKjTAmKABAmyBiOpqoqKj4ZV1d3bMAdDrU5xNTB3RJSclrjY2N/+12u5/kkz0yBaCZngOlpaXXeTyeua2trQOw3ShTEyWkrQ9xFBYWvq2q6kqn0zlLQliEMEkBANokIWU3M2XKlGt9Ph9V0AC0bPEZxTMAukFRlOUul+txRulnfaoANNNToKys7Jcej2d+NBoFoJl6KCNtA6D94XD4BYfD8RcZcRHDHAUAaHN0lN5KeXn51R6PZ0FLSwsALV19PgENgG4Kh8N/dTgcj/HJHpkC0EzPAaqgvV4vAbo/xqCZmighbcN+0IqiKEucTuejEsIihEkKANAmCSm7mbYhjgXRaBSAli0+o3iGCrpZUZTnXC7XDEbpZ32qADTTU6C0tPQan89HgO6HCpqpiRLSNgD6XVVVFzidzkckhEUIkxQAoE0SUnYzZWVl1zY0NMyPxWIAtGzxGcUzAPqDcDg8z+FwPMQo/axPFYBmegpQBR0IBBYcOHCgX15enli1apVIJBLCYjlsaTweF1arlWnvkLZZCtBClbVr14r8/PzNoVBorsvlesCsttFO6hUAoFOvcUoiEKD9fv/CSCTSF4BOicSdolEDoD9UFOUZp9N5f6foWJZ0AoBmanTbLI5FADRTAyWlbQD0nlAo5Ha5XPdJCo0wJigAQJsgYjqaKC0tvToQCCzCEEc61OcT0wDoz4LBoMPtdlfyyR6ZAtBMz4HS0tIxgUBgMQDN1EBJaRsAvS8UCj3lcrkqJIVGGBMUAKBNEDEdTZSWlo72+/1LIpFIf4xBp8MBHjENgD4QDAafdLvddh6ZI0tSAIBmeh5MmTLlykAg8HwkEhkAQDM1UULaBkAfVBTlCafTWS4hLEKYpAAAbZKQspux2Ww/9/l8L0QikTwAWrb6fOIB0Hy8OlqmADRT/2w226Uej2dZLBbLGzhwoFi+fLk2BxpzoZkaepxpR6NR0aVLF+1ofe47nQP0ms6HyZMni3A4LK6//vpIOBymIQ5U0MepdToOA6DToboJMUtLS3/q9XpX0E1jqYJetmyZyMnJMaFlNMFJAf0DmZ7pp+PipLvvvlsD9A033LCfAI2LhJzcxRg0L7cM2U6ZMuUiv9+/MhqNDh4wYIB48cUXtb9S1YRVhGxtPa7EdTiT9/pKUmqIfk9LvdetWyfGjRv3WTgcfmr27NlTjysIDkqLAqig0yJ78kFtNtsFXq/3pUOHDg2hCnrlypXtjba2tqKaTl5iNi0YP5CNsKbXv//978XmzZtpqffuUCg0++mnn36QTceQKGZxcD0HbDbb+T6f7+WDBw8O7d27t3j55ZfboYwKmqurx553x6GNWCymVdH6cFdxcbH47LPPqILeEQgEnG63++Fjj4Ij0qUAKuh0KZ9k3PLy8h80NDT8PR6PD29paRErVqwQQ4YMOWJ4w3jBMMlwODyDFTD6bLxoSN+krr76ag3W119//eaGhoaqZ599FvtBZ7CXHVMDoBmZZUy1tLT0e16v95Xu3buf9N5774mFCxeKCy64QHtLbm6u9gxAMzX3GNM2Dmnpr6mS/uijj6hyFjTL5xe/+MX7dXV1zyxevBi3vDpGfdP5dgA6neonEbu0tPS7Pp/vpT59+nx79erVorq6WowZM0abckU/gHMS4jI7lGBMVbLxAuEnn3wi1q9fL2677TZxyimniNGjR697++23XS+88MLTzLqX1ekC0Eztf/75509yOBwv9u3b94dbt24Vp556qjbMQf9RI5GI6N69+1EhTeCmR8cr/kxlQNqGb0pUPZOvNNWOoH3vvfeKV199VVxxxRWiZ8+e661W6+0zZsx4E6LxUQCA5uPVEZl6PJ4BEydOXDZw4MDLDhw4IA4ePCjuuecemu+qgVlfvHC07ukXluhv2NSf6QnQlrY+pHHo0CHRrVu39s74/X4xZcoUsX//fnHxxReL3bt3+3784x9PuOuuu9bz7nF2ZQ9AM/U7kUhYLrnkkud79ep1Yzwez6Vx6EsuuUTMmjVL0D0KCdgE365du2rA1qtmvbv0O/rPrY9XM5UBaRsUoAuE9A2KfJ86daqYP3+++M53vqN9u3r//feXlpeX337ZZZd9BtH4KABA8/HqPzK99dZb716/fn1Fr169+tEwB0GX9l6YMGGCVkHri1aMc2ONqw0xHY+x+W2p01CG/iFLH7gE59raWu3bFL0eOnQovXN/bm7uA8uXL3+Uf4+zqwcANGO/n3vuue/NmjXruSFDhnyfYEv3njvttNPEtGnTxMiRI7UKmYCs782gXzjUIY0LiYzNN6ROkCYY08/HH38s7rrrLhEKhcTJJ5+swXvv3r3vXHHFFROmTp3a2Dl6nD29AKAZe71169YeJSUl87744otrhg8f3vPzzz8XO3bsEBdddJEoLy8XZ5999hG9I4jr+zV03FiJsQxIvW2jJBrWoqXdPp9P0OrStkUrLbm5uc9Pnjx54ujRo/dDLF4KANC8/PqPbKdPn/6TpUuXVvXv3///9erVS1vWu3v3blFUVCRuv/128a1vfUub0aFfDDRe6UcFzdx8IbRvSfSzd+9e8dRTT4klS5ZoQ1sXXnih2LVrl4hGo+9feOGFv3388cdX8+9t9vUAgO4Enl933XWztm3bdlNubm5e//79tSqaNsihYY7FixeLE088kaZZaT3Vt6E0zpntBBJkdRcI0H/4wx/EokWLxHnnnaf5TR/SeXl5X+zfv3/Z+PHj77799tv3ZrVITDsPQDM1zpj27NmzRyxcuNB16NChywcMGNCTplbR/gtUNX/xxRfansC0YOGEE05oH4+mceivukh4tJkfnUCqjO+CrrueqH4R8GhDUuTfSy+9JGbOnKl9INOYM+1sSFPurFZrYs+ePatvuumm35SVlW3I+I4jwaMqAEB3khNj6tSpZy1YsKCme/fuPzrzzDO7Epg/+OADbbodVVjnnHOONrujoKBAq6aN+wh/lQQ6GL7sPR2B0vF92T7P+uv0+abfZIwfptu3bxcNDQ2iqalJOJ1ObaYGTa2kC4L0Ifzpp5+SDesHDhxo//vf/768k5ziWdkNALoT2T5hwoSr//Wvf93fp0+fHwwbNqwLwYH+09LsDvpPTVPvaJbHWWedJa666ipx+eWXi9NPP70TKcCvKwReeuig7ghs+jstRNq2bZtQFEV4PB4RCATEO++8o40xf//739e+KfXp00cb2qBvTps2bXrvwgsvnPHHP/5xyWWXXXaQnyrIWFcAgO5E5wItXhk/fvyY/9t6dGrfvn3/3znnnNNjz5492n9cqqJprvSHH36ofQWmVWe0iIWWhXd8GGFBcEjmke0VtA7gL9OQKl4d0Ebdja/pg5XaIa9oyIO2lx0+fLgYNGiQ9pqGtEhn8nrr1q3vnH766bOnTJmy8JprrknOvGSMx7GmKABAmyJjZjVy8803X/j666+Xt7S0jDz33HP7UxVNP/SfnoY8qMqiC4lUgRG46aF/Fe/4bKzo9NfGr+1f9xU+s5RJXzZfNpRh1E/fH8W4T4o+A4c+UGmWTr9+/bQfGqai6wi01SzBeevWrdEdO3b4zj333Fl/+tOf/v6LX/ziUPp6i8hmKQBAm6VkhrVTXl4+dNGiRRWRSGRM3759RwwdOrQLbTtJD/qPTWCmqoxgrUNCnyetP9Pvaflwx4dxLw8d8F/W/a+rIDNMNtPToW8pX/YNhX6v75/REc76v+mDld5DlTZBmapp8mTfvn1a5bxz5076VrQnHo+/PWbMmPvnz5+vmt4JNJg2BQDotEmf+sBOp/PEBx988PpoNHqtEOL8vLy8vH79+vU+6aSTtP/s+pxoPRMdvARVHdJUcetfwY3VtQ5e+sr9VY9sv5Gtsf9Hq6KpQu44tGGsoI0bIJFfNOREH6p0IXDfvn2fbt++vfmMM85YPnbs2KV2u/3D1J9ViCBTAQBaptppimWz2fo9//zzl27dunVMPB7/WV5eXrf+/fuf0L9//64jRoywWiyWHMvhh5WuV9FYtmHVIZ0j9Det0m77ob9rOzB1GOIwnk/a629QQR/eyUkI/dn4Wovd9neW56qxgu4IaP3WVF8FaILywYMHY3v37o3t2rUrvmfPnkP79u3bFY/HP8nNzW244447HDNmzMA0ujT930p1WJYnfapF6cztjx07dkR9ff1Fu3btGi6EGJCbm9u9tbW1VyKR6BmPx2k1C+1Z2YVGQtrATOA0wlODOO1Umkgk6HX7v9uOoX/TsfrfjM8dzze9bf2ZpjTQa/1ZB7T26dHWrt621lZbDkc7j7WcLRYLDbLT34/oB30IGcCvx9H7YjwFjDnqeR3tQ0X/YDHmr722WCz6cXq79KFIsegDzPh+eq/+HvpqQj80xtSSSCTo+eCQIUP8P/rRj94cO3bstl/96lfbO/O5ir79uzqBFlmswG233dZl2LBhOfv27cuxWq3Wnj17WiKRiKVHjx4W+jptfBw6dKidIN27d7fQ9C79QX/r1q2bRX+m37e0tFii0ehRC4EuXbq0g79r166JQ4cOJbp166Y907H0evfu3UccSzGpTT0mxfsy6/R2qG3je/Tj6VjKgZ7pd5IQOMYAAAGuSURBVF27dm1/1t+vz2LJzc1tbyMajba/1mdh6G1SrJaWlva/668NfWrPl3Sh4zvmZ9Shd+/e8d69e0cHDhwYKSgoOHxFF4+sUQAVdNZYjY5CASjATQEAmptjyBcKQIGsUQCAzhqr0VEoAAW4KQBAc3MM+UIBKJA1CgDQWWM1OgoFoAA3BQBobo4hXygABbJGAQA6a6xGR6EAFOCmAADNzTHkCwWgQNYoAEBnjdXoKBSAAtwUAKC5OYZ8oQAUyBoFAOissRodhQJQgJsCADQ3x5AvFIACWaMAAJ01VqOjUAAKcFMAgObmGPKFAlAgaxQAoLPGanQUCkABbgoA0NwcQ75QAApkjQIAdNZYjY5CASjATQEAmptjyBcKQIGsUQCAzhqr0VEoAAW4KQBAc3MM+UIBKJA1CgDQWWM1OgoFoAA3BQBobo4hXygABbJGAQA6a6xGR6EAFOCmAADNzTHkCwWgQNYoAEBnjdXoKBSAAtwUAKC5OYZ8oQAUyBoFAOissRodhQJQgJsCADQ3x5AvFIACWaMAAJ01VqOjUAAKcFMAgObmGPKFAlAgaxT4/zX0DYU8pkV7AAAAAElFTkSuQmCC;" vertex="1" parent="1">
          <mxGeometry x="320" y="210" width="130" height="130" as="geometry" />
        </mxCell>
        <mxCell id="pmMoMxP0c1M7GSZvOQt2-23" value="&lt;b&gt;&lt;font style=&quot;font-size: 11px;&quot;&gt;Medicine APP&lt;/font&gt;&lt;/b&gt;" style="text;html=1;align=center;verticalAlign=middle;whiteSpace=wrap;rounded=0;" vertex="1" parent="1">
          <mxGeometry x="367.5" y="272.5" width="35" height="15" as="geometry" />
        </mxCell>
        <mxCell id="pmMoMxP0c1M7GSZvOQt2-24" value="" style="shape=image;verticalLabelPosition=bottom;labelBackgroundColor=default;verticalAlign=top;aspect=fixed;imageAspect=0;image=data:image/png,iVBORw0KGgoAAAANSUhEUgAAAu4AAAFNCAYAAABffeoXAAAAAXNSR0IArs4c6QAAIABJREFUeF7snQd0VdeV9/e57VU9NYRAIAlE772722DAvcS4Jq64gntLbE/qZOb7JpNkPnsySSbNLYm7M3HHVNNEN100USRAqD+9dtv51j73XUkmyRgJPdV912Kp3XLO71yk/9137/9mQBsRIAJEgAgQASJABIgAESACnZ4A6/QjpAESASJABIgAESACRIAIEAEiACTc6SYgAkSACBABIkAEiAARIAJdgAAJ9y6wSDREIkAEiAARIAJEgAgQASJAwp3uASJABIgAESACRIAIEAEi0AUIkHDvAotEQyQCRIAIEAEiQASIABEgAiTc6R4gAkSACBABIkAEiAARIAJdgAAJ9y6wSDREIkAEiAARIAJEgAgQASJAwp3uASJABIgAESACRIAIEAEi0AUIkHDvAotEQyQCRIAIEAEiQASIABEgAiTc6R4gAkSACBABIkAEiAARIAJdgAAJ9y6wSDREIkAEiAARIAJEgAgQASJAwp3uASJABIgAESACRIAIEAEi0AUIkHDvAotEQyQCRIAIEAEiQASIABEgAiTc6R4gAkSACBABIkAEiAARIAJdgAAJ9y6wSDREIkAEiAARIAJEgAgQASJAwp3uASJABHoEAc45Ow7gy2Ms2iMmTJMkAkSACBCBbkeAhHu3W1KaEBEgAn+PQC3nmR8u2/RIdp+8zy8dmbeSKBEBIkAEiAAR6GoESLh3tRWj8RIBItAqAuX1vNeLf3z3w1rdDt5wzfy7LujvX9uqE9FBRIAIEAEiQAQ6iAAJ9w4CT5clAkSgfQlUc57+r7/77M1Vm7fPHjls8PZvXj3v7vPyteL2HQVdjQgQASJABIhA6wmQcG89OzqSCBCBLkTgFOdpP/3Txlc+Wb9tPlNsNqKgz9b7rp17z6z+2tYuNA0aKhEgAkSACPRgAiTce/Di09SJQE8icIDz9Jf+uO33S78smc80STPC1TCmIGfbk3dfffPENLarJ7GguRIBIkAEiEDXJEDCvWuuG42aCBCBFhI4UM3Tf/bJzpc/37r3cinglRSwgEfDMDjTs/3bd123YFIvtruFp6TdiQARIAJEgAi0KwES7u2Kmy5GBIhARxHAVJnv/XHHH5bvPnxllFuyqmmgmBZoej2MyfbsXnzb5Qsm9/Fs76jx0XWJABEgAkSACHwdARLuX0eIfk4EiEC3IFDBefB7r219ecXesmviEgCXZGCmDUGFgRSpgUHZ3v1P3nHtN6b2ZpTz3i1WnCZBBIgAEeh+BEi4d781pRkRASLwdwic4Dzwo9c2v7x8b9m1cUkCW5JBYzKYCR18qgJeO87zfebOF+697qZxWWwHQSQCRIAIEAEi0NkIkHDvbCtC4yECRCAlBDDi/qPXNv5h+R4U7jKALAOzOaiKDyIJE5ilQ4glYGi2tvPZ2y9fMD6b7UzJQOikRIAIEAEiQARaSYCEeyvB0WFEgAh0LQJVnIe++9qGV1btOXalzlTgsgyqrEAkqoMWzBCT4YkYaIkaGJ3r2/7Ety6/cWI2uc10rVWm0RIBIkAEujcBEu7de31pdkSACCQJYHHq918tfnnlnmNXm0wTwt2yOKSlpUFVdS1k9sqBypp68Eo2BO0IjOjt3fPYTbMXTMr1fEkQiQARIAJEgAh0BgIk3DvDKtAYiAARSDkB4SrzevHLq3aVX21JKgBTgHMOTJHFx1hcB8UfArAt8PAEmHXHYcaA7D0P3nTlgkm5jMR7yleILkAEiAARIAJfR4CE+9cRop8TASLQLQhgjvs/vb7xldW7yq+2JQWYpIh52bYJICtgmiZ4vH6wLAvi8ShkBDxgVJ8wxw7ove2BW+feMTOLkVVkt7gTaBJEgAgQga5LgIR71107GjkRIAItIOAK91W7y6/mTBFi3bZtYIyBLNJmLJCBg27ZoHl8YOhxUCQOil4HE/Iz1t9z7cX3zCSf9xYQp12JABEgAkSgrQmQcG9ronQ+IkAEOiUBFO4vvF786he7y6+ymQKWrILFJDFWmdsgcwDZdobOmQT4qQ0WKJAAq74CZo4esO7WuRfcf2F/jXzeO+UK06CIABEgAt2fAAn37r/GNEMiQAQAAHPc/+m14ldW7nGEu6k0CXfFbhLu+EvRFsJdAltmwK0Y+FUOEK6ECQNzN955zbxF5/Rh6wgqESACRIAIEIH2JkDCvb2J0/WIABHoEALYgOn7rxW/5gp3S5EbI+6qBcDAEe/AJfF9EXWXGMgSgB2vB48dAzVWAxOH5G/81rVXPDCrL9vQIROhixIBIkAEiECPJUDCvccuPU2cCPQsAqcLd7SDxKg6MBskDsA4iI8AjnDHqLskqxCLRcCvyeBXbICGapDidTBp5ODVt1x+wSPn5GkbexZFmi0RIAJEgAh0JAES7h1Jn65NBIhAuxFA4f6D1ze+tnJP2VWiDBU7pwqh7m7OF5xh7F0BDgropgV+rxe4ZQHoEQioHKx4PajcgNEDeq9YeP3cx6fnsE3tNgm6EBEgAkSACPRoAiTce/Ty0+SJQM8hgMWp33t946sr95RdaTOFYSqME2HHnHYOPPnb0GZMiHZMmbFtBn5fEBrCdaBKEngUG0w9Al5NAquhCmaOHLjs+gumPXNxkb+455CkmRIBIkAEiEBHESDh3lHk6bpEgAi0K4Fyzv3//PrGV1bsKbvCZoqKwl3ktAOAlRTuFprMcOakyXAJNNUP4bowBAPYmMkEy9ZBlhkk9AiEfCpEq07AhWMGr7921ugnZg/L+qJdJ0QXIwJEgAgQgR5HgIR7j1tymjAR6JkEqjgPvfD6BixOnWMzRfuqcAewJCfq7jhCMpC4ArbJwa/5wUgYYAN2WZXA4iZwCd1mEuBjAGbtCbhoRL8vvnXluY9OywtQznvPvL1o1kSACBCBdiFAwr1dMNNFiAAR6GgCpRHe97uvrXxz/aFTM2XNx2whzh0fdwsFu2QDZ1wId4kzYFwC2XZ+jvthFJ4zW+yLkXnGnUx4zTYAwlUwc8SAFd+aP+OxGf20zR09V7o+ESACRIAIdE8CJNy757rSrIgAETiNwL4o7/+jV1e8s/5Q5eQm4a4IoY6C3GbOR6xYZRxFvduQSRIiHqPxQuAnP4q4vGUDWCb4NRUgWgtTBvZaufDaix6e2ptRkya6A4kAESACRKDNCZBwb3OkdEIiQAQ6I4GjUd7vuddWvFd8sHISCneLMWC24qTHoGBPCnghyIE7wl3YRGL0XaS+O/7uopjVmSGzOUiSAnGTg8xNUOO1MG1wn+X3X3HOo1Opw2pnvA1oTESACBCBLk2AhHuXXj4aPBEgAmdKoJlwx4g7oHBH5xjcXCGOnu64Ob7uHF3eHYGeFO6YXiPcZ5LHKTKDWNwEyRsEVVXBiIRBjlbCrKG5G795xXn3nkdpM2e6PLQfESACRIAInAEBEu5nAIl2IQJEoOsTQOH+/Ksr3l1/qHKKK9yFYOdNtpDuLJ1fjCKJ5isTR493sXEJ8DPDMMDj8YDNGSRMCxSPH+x4AwSsBnNiQeb6xQsuuXd8NtvZ9enRDIgAESACRKAzECDh3hlWgcZABIhAygn8Q+HeGGF34+tNQ3Fy35uLdwaS7Yh23CzLAr/fD+FwGGRFA676wNQTEFRs4A0VMGNA9pr7bpp/z8RstivlE6QLEAEiQASIQLcnQMK92y8xTZAIEAEk8PdSZVxR7rrIOA2ZpL8pWHVTadBdBnW8+9HnUaGurgb8aSGwbRtMi4MsyxCPR4XPO7rNjB3Q64sHbrj0rmk5rIRWgggQASJABIjA2RAg4X429OhYIkAEugyB5sKdaT7AtBcU7o5Yd+wfvyrcnaLV5sWrpwt329TB6/VC3NAFB0lhwFHlywpYlgGKbYLXjsCkwqx1d147+84ZvdjuLgOMBkoEiAARIAKdjgAJ9063JDQgIkAEUkFACPdXVr5XXFo1WfL4wEQf92S7JbfY1P2F2Dw5prFwNTkoR9xjwWqz1BoU+MkiV6eJU9L/HWzQrDi6zSSG9g7uf2LhdddNCbG9qZgfnZMIEAEiQAS6PwES7t1/jWmGRIAIuKkyr6x8t7i0akqjcP9q7WkrODkCnYm+qo47jSvcsTOrIslgRusgwyOB34ryfgFp07fv/caCsRnsYCsuRoekkADnPHikomJ6qLe2MZNl1qbwUnRqIkAEiECrCZBwbzU6OpAIEIGuRODvRtzPUrg35b4LU3cHh9tlFeP5tg1eRQbQG0BK1EOIJWBIXtbme2++5sbpvdm+rsSvu4+1tKxs4oeffvzHnN59jo8eOfL3uX3Sl2b5so5093nT/IgAEehaBEi4d631otESASLQSgJJ4d5mEXc3uo6JMfiL1PF+x8FhkyaMxEvAZBVikTBkhQIgmVGAeB1odhQG9M3e8NgdV988KZ3tb+V06LA2JMA5V9Zs2vRvm7dtvUfzevw+jzesaZ6SAf37f9A/P/+1fr16HWaMJdrwknQqIkAEiECrCJBwbxU2OogIEIGuRiAVwt2SnCg7dliVsYuqiLjjr1UFbFDAsrkoXq2vr4PcXiGorT4OHmbYKpjSyIKcNYuun3vnlBzKee/oe+lQZeXwTz/6+DOL2/01rxf0eBwkSQJu2UYoLVBe2D//9YEDB76V16vXThLwHb1adH0i0LMJkHDv2etPsycCPYaAEO6vrnyn+FDV1LbIcceIe5Nw5yDbGGPHqDsmuisi6s6ZArrNQVYY6HoC/F4JuBkD4AYoibA5pl/m7mdvv/LaURR577D7kHMurdi48V927d79MEiSZnHbSXHSPELAy0xCEW/4/b4TBf37vVs0eMir+dnZKOCjHTZoujARIAI9lgAJ9x679DRxItCzCKRCuGODJtwYfFW4o2hHZxkmaRA3DFA1L5iWDh6PArZlQDxaDzkZQYjXVNij+qRvfPaOy2+igtWOuR8ro9F+H33yyafReHwkrqbFOXDOgTEGPg+K9wRYuiHWmDFmBdMCRwqLBr4+eGDBO3Z6r935jMU6ZuR0VSJABHoiARLuPXHVac5EoAcSSIVwd1S7ncxvT6bK4Pc4+swoYDKUexJomgdiiQTIDIAxDoosg5mIgipx8FkRmJQXXHXfrfPvmpBOBavtfWtu2r37nvUbNvyEqUpawjBBVhURccdGWhZ+zZhwB8LNMnTQTRNUVTV8fu3o6BGj/ti3b86f8jNz91EKTXuvHF2PCPRMAiTce+a606yJQI8jcLpwNzAvXZSVnv3mnAXjtdxJcRcGkZgqk/R6F57vkvPdxiJWG5jEQbJ10WF1+vDCZXdcMfOBmXmePWc/IjrDmRCo5zz7ow8+eL+mtnaWhQ9V2DiL4zpKIuqOK4brxcFyntHwc6cCWax3NBKx++bkHhgyZPB/FQ4qeDfXm34Eo/Jncm3ahwgQASLQGgJt81erNVemY4gAESAC7UgAhfvzr6x8e31p1TTMcW8L4d7YhCmZMoOpM9iN1UmecXzdUQQ2dVx1xJ/bugnFom2bEPBoYDdUw5SiXsvvuPLCxTP7sO3tiKbHXmrDth03bdm+7ZecQZotMTBtDqZtAWOyKE5F4e4I+KTVpyvZk+JdlWTQEzEU9/HevXoVjxg24qXCwYOXhhir7LFQaeJEgAiklAAJ95TipZMTASLQWQi0tXB3LCAdCW67nVMlpxETqnNX6kmcNdpFyrYkhDsei/tZEgCTFIibHGRugpaoM6cN7rPmnivPv396X7ars7DrjuOora3NXL1+46dHj5dPZrIEOgp2WQZQZODOaxMA24muu91yXa9+sbaY8oRvVFDsmyY+gUEwGKwt6N/v1cGDh/y+oFevHZQ+0x3vHJoTEehYAiTcO5Y/XZ0IEIF2IpAa4Z7Ud2gkgzrPFe5JYedODR1nRKQ9KeKxSRNusipBOKYD8wQwbxrMaANoiRo4d0S/z++56txFk3qx3e2Ep8ddZs++PbcsX7H6F4Zpp3mCfpHiZDEmilMti4OkyElf/n8g3HH9sIaB2yBhDrxtQ1y40DArr2+/XQMH9H9pQOHAD7P9/qM9Di5NmAgQgZQRIOGeMrR0YiJABDoTAZHj/vLKt4oPV01vs1SZZhNsSo1JflOkz/DGaK2TXeH+yk1G6m0bNE0DywaI6QYoHj/wRATSeJRPKsz+eOFVM5+a0sezozNx7C5j2bt378J9+w/eWBuuH1MfjfXC3HamqsBUBSzLEsWpydT2xlVzXYTctymqLEMikRDdcj1eVaTV4NeYYuP1esIDCgo+y++X+7vhBUVLyT6yu9w5NA8i0LEESLh3LH+6OhEgAu1EIBXC3U2dEFPgUjKnvSlCi8WoTize2TjD0HzTfmBaEAgEIBwOg6J6wFa8YOoJCMgW2OGTMGf0gE+uu2DSM7MGBre2E6YecxnOuScej/c5UnZ8zv5DpVdV1laPqY9GC0BiwlUG02bcVCgJ101sdrL42ClFZjZzGjVJTi68811wPrdtME0DstIzygYNKPrVkKIBr+ZmZBzsMYBpokSACKSEAAn3lGClkxIBItDZCLS5cE9G1J0CVEeQO7nQTh47FjQ6dapO3rto2MQkkdcu/Eo4QECWoaGuFoLpGULsmZiiIUkQi0Ug5FPBrDkJF0wc9vk15419+qLCwKbOxrS7jOdUJNK3trZ2csnBg7dXVlaOicRiA0zTVLH5klhRdJORnD+Xbvq7+NxmopDVAkvkuWOuvKIowvITv1ZlBeLRCHgVNT6woHDJ6BGjfp2f22sJRd+7y51D8yAC7U+AhHv7M6crEgEi0AEE2ke4J3PXk0F2JqwFUeyh24wE6CKD4h0/x1++iqGD1+Nx0i0wZ1pmIm0GZAW4aYCKEd5IJb94zIAlN88//4npuezLDkDXYy6JBau1sdj4w+XlVx09evTScH3DIABQXQB/I9452kYy9BUVD1yYbmNimo0EQsAbCR28mga2aYIZT0C6P3h46JChfxwycOhL2dn+Yz0GLE2UCBCBNiNAwr3NUNKJiAAR6MwEhHB/ZeWbG4/UzOCKJgR0o1tIaweOUfdkoamIsTPXacaJtrs2gk5U3hHtwlywMZJrC293TLFoPhb8OX4tMQ6SHgElVgPTRuR/dOcVs5+c2pftbO1w6bgzI8A59x0/dWryocNHrj5Wfnz2qcrKYcBAUzRVFK/iOxT0fJdBFoWsnFvAsJiVoaWk5aw92klKICLv2HgLH9WMRAKj8LGigQP/OmrokH/vl5tbzFjSS/TMhkZ7EQEi0MMJkHDv4TcATZ8I9BQCqRDujb9AMfKa9Gx3xLsTaXdEedPminbnY3I/hiL/b4W7kP2GCV6Fg2LHwWdHYcqgvI9umH/BU7P6MCpYbYcbl3MeKKuoGHvkcNmVR46XXV0brhticS5jHjymsWOqjKp6hHAXlpD4skRzAvS6ros3KJgvr0hMFLvapiW+9nu9VlogsGlY0ZDfjhk+5GXGWKwdpkOXIAJEoBsQIOHeDRaRpkAEiMDXE0iNcG90a0+WoLqtlZzxuNF05yvnZ65oR6HvOM0ku6m6hY2NEXlJRHAtPQF+xQYpUQ8evR5mjB366dVzL3zifGrS9PWL3kZ7oIAvPXFiyv5DpdeVlZddH45E+uDqKormFLJi8SpaQ2K2u2WJImQU6k7BKq5z0g8+6U9jWSZYhgEZwVD5mBGjfl00tOh3mT7f4TYaLp2GCBCBbkyAhHs3XlyaGhEgAk0EUiHc5WRk3U19QVHefPuqcHd/gukyziai7m4Ra+OBTek0sqKJzpwKWBDSGEC0BiBWa80YP2r5Ny497+FzKG2mXW/xOs6zykpLz9t/8OBdFadOnReLxkOSqoAkKaIDrng8Ew2cOBiWlUyXwSZNthD0KPCxYBV1Pgp+dBWSZTlS0D9/2dhRI76bl5NDBcjtuqJ0MSLQ9QiQcO96a0YjJgJEoBUEUibcRZfUpONIUrg3z2EXEddkNF3ksTfrqirsIZ1vgSvn8VwcpTpTwLQ5eL1eMONxACsGQYWDFauDgAzWyMLs5fdeN/fBKTlsbytw0CFnQaC8urqg/ETFZYcPl95aU1c7ORqJabKmiIJUzHG3bS4+102zSbzjgxpG5zkXAh5z3jEqH2uIgKaqdv/+/VaNGDby+4P65a5gjFlnMTw6lAgQgW5MgIR7N15cmhoRIAJNBFIh3Jt82pmT497o0d488t48FcaNyTspNjbKdcaEmHOPaBLuEpi2k45hWQZWOYJHsUFjFth6DDQjDLPGDPhswdwZD8zs7d1Pa92+BNAH/vCpUyNLDx+97eiRwwsaopE8FOZYvIqdVLGQFb82k6k0WKyKG0beMQIvHtiSEXj83IgnILd3781jRo3+t+ED8t9ijBntOyO6GhEgAl2BAAn3rrBKNEYiQATOmkAqhPtXGjDhCJsJ9+Z+324uO6bWOJH1vxXueDhKO0e4Jy0jJQ1iCV2Id01TACwdbEMHldngkWyI1R2350wZtfSGcyfePzOfxPtZ3yStOEEN5xknjh6dtnvXzucqKyunyqqi4Uo2RKOgeT1CvCdT3IEzx3lG3CrJyLuFHXNVyYnAAwOPpp4oLOz/67FTpv0ki7G6VgyJDiECRKAbEyDh3o0Xl6ZGBIhAE4FUCHfX5rHR9rExbu64zKBMdzfcR+ZmMrruCndZ7OcIeyfq7vrRYLqMiWJO84BlYhdObOgjCYtIblogMQtkbgCPVMCcsUXLb7n8wvsn92J7aM3bnwDnnJ2qrx9ccmDfbTt37loUiyUyQhnpEInFQBY58GgbaYHFnU6rKN5Fjnsy6q5I4Hj5Y4oNk8Dv89YOHFD46ylTp/40wNjx9p8RXZEIEIHOSoCEe2ddGRoXESACbUqgrRswoWjXTUvkoGMUHYUXCjAnquoIchO1GZMdgSaEO6bN2Oj+LQQ6BzlpC+l0WHXdR3BvR8Y7tpFOBjzGZJvsJfE8wivcigGvr9BnjS5a/9D1F9wxJoMdaFNwdLIzJoDuMwePH5u7a9eexw8cPDjV6w/ImAqlKCropiFy3jH3XawrptBgpya3xiHZZVfUO3BxB9QPHjToN5MmjP9/GT7foTMeBO1IBIhAtyZAwr1bLy9NjggQAZcACvfvvLLyjQ2lVTMljw8Mjg0vW/8rEAtQVc0LkXgMJNsCn6aKaLhhGI7olp2IuZu9jldCsY3iW7KT6csMhTs2W2ru+y4UXOPCuQLe/YYb5Xda+qA3uA4BjwRSohpG9vasffaeq24a6WNkLdhBtz7nXD5UVja6oqpq4Z69JTckDL1XPJYAzecVQh3FO3q/432CkfemNy5NDbtc8e73ecPZmZlvTZ408Ye5GRkHO2hKdFkiQAQ6EYHW/9XqRJOgoRABIkAEvo6AmypTXFo1o62Eu25jIx4OHhnEP1PHdAdLdNXkTBLOMG631ObCndmOaQiXnGi8myDjptw0Rd5FPLbZ1JqsJIVwx+g+yBDH4lUrAgEetib0zyx+4c7LbhzkY0e+jgn9PHUEqjgPHT9w4OrNW7f8KBqN90fRji5BqkcToh2LWN18d9fj3+2eKx7uuJM+kxYMJDJCaWunTJz4TH6fPutTN2I6MxEgAl2BAAn3rrBKNEYiQATOmkAqhDuXNUd8JSKgSpj4YoGmSGCZXAh2g7OkeMf0iKZOqbIIsCfz3Jv9Fm4S7kLWn+YK7xSuNv1EApkpYJg2WIoMwCzwyRZ4zFo+NF1d8/zt19w6IpOVnjU4OkGrCXDOpfLq6unFGzY+depU5Vwmyx58Q6NpmvB7x7x35y5wUmaaC3f8WlhKxuL43sbK6ZVVPHn8hEeK8vOLWz0gOpAIEIEuT4CEe5dfQpoAESACZ0IgFcKdSVh4KIERrQOfAiDZJkjcAD1hcn8oncVMAIvJQrw3ynBmgyIsZ9BtxG3F5Mygsdi1Md/Z7biZ/PlpfvEo3FH8oXd4MD0EdZEoWLF6yE/XYFBIXrXohvl3TM6lnPczuT9SuU9NLDZg69atT+8p2fdNJkt+se6S+5jW7Mr8qw28ZIWBkdBBlWQw9ITdKydn/cwZ0xcVUqOmVC4XnZsIdGoCJNw79fLQ4IgAEWgrAqkQ7tFYAkJpAQA9ChozwQt2VZ/c7NKGcGRgRVV1puwNMgNUMEUuuxN1R8EuAxcSnPOmPjuOBaSzx1cjr83FvWsV6ezHDR38fr8Q77V1EUjr1Vv4gWt2HOR4pT5rUK/1j31z/s1D/OxYW3Gk87SOABaurtmy7dF9+0ruZZLUv7q2Bjw+v+P/726nCXfDTEAwGIR4NCbcZjjYVkZ6xtpZM6Y/WpCTs7F1I6GjiAAR6MoESLh35dWjsRMBInDGBFIh3FFsexUZzFgdaNyAvOy0Q9deeenD0ZjR54OPP/tRTUMix2QqGMLaUW707naSXlxP9+be7UK2Nwp8p9Nqk5OM6xOP+fMM3Wm4hXJfNGrSVD/E4qYQ8pFoGNL9EijxKhiU41/3vcVXfWMII/F+xjdLinZE28g9hw9fU7yh+Ps28FGxhFOk7HbQdS/r2oji2xy0/lQ1WUTeZVkCbll2enpo7SUXn/dAbjDryxQNlU5LBIhAJyVAwr2TLgwNiwgQgbYl0NZ2kCiwLWDCEUa1DZDNKGR67NpH719w3ZV92NKfrj72nfc+XbE4zry9Y9wjxDtPhlfRFlLI9aRGb950qfmsXbcZV7w7nVYdf3gU7Aqm21g2MIzGcgay5IGEoYPi0QAsE1TQQYpX2dMG9/risVvm3zzMz8raliqdraUEMO+99MSJ81atWvWzqK6PtUX1cbLzbtMjW+NpUbxbRkLku+Ptous6+L1ey6Mpa+bPvvS+7LS0XS0dA+1PBIhA1yVAwr3rrh2NnAgQgRYQSIVwd6wcAVTOQU7UQkGQVyy8af63Lhsc/BiH9uLKkiffXbHxmZOGNyvKNWCgQtDrgXhdHaSl+SGaSACXkpaAwtM96ettJ3Pbnc5MwJNR9+bCHb+Pe2PkXXzeLKPGHRc2aVKsGFhZ41AXAAAgAElEQVS1x+G88cM/v/O6i+6dTD7vLbhrUrdrOBweuXJD8S9KDx+eBpLs8QeDotsqpj1pXr9ouOW6zjQvWsaEmeRtYWeG0lfPmnn+Pf1yQntTN1I6MxEgAp2JAAn3zrQaNBYiQARSRiBlwt12upmq8VoYGDQrHlww+65Lhmb91Z3IS6sPPfXGss2P1phqH8Y8kDAt8KkKNDQ0gOrzOjnOjbnNXy1OdM5xmvsMinjuRN7dtBoU783TajAWjxvDBwArDlkBDexwBYzql7l88d1X3DfOy0jopexOO/MTl9fUFB7YX/Jsyb5DN0cTsTRF84h1RVciWVOFiHdWOenz39ScSXzfsmxjUNGgN6ZOmfhcps9HDkJnjp72JAJdlgAJ9y67dDRwIkAEWkIgVcLdHYMihLt18qEFc+6dOyTzfff7OznXVn9x7NH3Vqx//GTUzDE0P+iSAqrmAVs3RJv7JneZZIdUxkT0/auuMxhvN53uqknxjo41KOvcxk54TSeVxhHuKPywMRRPhEE1I+A1GhIThhUsveOGeQ9NyWDU0KclN1CK9q2OxQp2bN/x6J6Skjt0w0xXvR6wuO2Idsm1EXUu7nbOdd+uWKaJnXsbBhUV/WLU6JE/ywkEylM0TDotESACnYQACfdOshA0DCLQmQhg90fGWJPlSWcaXCvHgsL9+VdWvr2+tGpaWzRgwmE4qS1OUyQpXgMDA/aJxTfOuXfekMy/NB8m51z97bKDi95asebbJ005O+ZLg4QtgYZNlOzG1IfkIRKAcKFB15nmv6KbhDsKeJFjj8KdYwfVZgWsSQd4kS4jq5CIR0GTOIQ8DDQjAuGKYzD7nCmf3HL5OYsmpLN9rcTZKQ/D/HGn1jOZTNIpR/m3gzoVifQt2b33id0lJXfGE4kMFO+GhX13nfvgdH93PAN+D/PebfSCt6y6MWPHvjhm0NifhkKsqotMm4ZJBIhAKwiQcG8FNDqECHRnAttO8WHbduydN6CwYM15Rf5u0+wldcLdiXJLsToYELRPLF4wb+H8IaH/Of0ewYeh36za+/iflhY/dsxQc3U1CBKXUbqDzBzxjjnNKMgaRXtjSowbcUXBLowjxTeciDvmubuPD00ONaJrKzBxThXLH624yHf3SRYY4Vp+7vihH3/z6vMXT0pn+7vD/VzNq9OrjoRnM8ZMX6DXprws3wnGmGPb0gW2hoaGPlt37160u2TfAwndyNB8XiHexXaaTSS+ccE1xzcy+OAnyzJIDGpHjRz1zzPGj32RMRbrAlOmIRIBItAKAiTcWwGNDiEC3ZXA5hpe+Pp7y36ybN3W6yaOGbnsjqsufXhmPtveHeabSuGOfJR4PRQG7RMP3HDp3ZcPTf/gHzH7xer9T72xfOtTlbqcbdgK2JLiCHfGHAGeFGRfPb7J4100bsKy1GY2kX9XuEsSxHUb0kMZEIk2oKcNKGCAbOugSSBy3i+ePOzDqy+c+NQ5fdN2dvU1Lj1WeuGadRv/S7fMrLx+/df3zs1dmt2372f9A4F9jLF4V5hfOBzuvX3fvkf27C25ryEay0R3oK/WQCRnkVx7TKdRJFl4vMfjcUgLBqrGjx/37PihQ3+HDzBdYc40RiJABFpGgIR7y3jR3kSg2xL4spYX/faDjf+yfNPu6w3JE2aGHpg6LG/F7Vdd9OR5/djmrj7x1Aj3ZMoCRs3j9VCQxsseuHH+3XOTrjL/iNmv15x45I0la56sMqW8hITiDPNinJx2/KXs5Kzj545tpBNPd1JjLIY2lKoIs8vcTOa9O1cSLXrEkSj0UdyrEDd08Hn9YJg6eBUGiWgEgj4NwIiCHauFiyYO+/SqWWMev7AgbUdXXWPOua9469bntmzf8aRhmSoS45wn8vr129OnT583CgoKPirMyNjdFQR8HedZO7Z++VhJyd4HMfIu3r4k/1K7/u7uOuGbF1VVRYMmj6KCaRng9/qOTps65cmRAwf+uauuJ42bCBCBf0yAhDvdHUSACEBJnBf94s21//rRhr3Xqul9ozqTTZ/CNKPqmH/y0Nwl37xsxtMXD8jo0uI9lcJdBQ5yPAwFQbvs/psu/1rhvo9zzxfrKh/83YefPxmVfX3Q493gKLiVZE6z06BJwQZLSbtHFOI2qGBIChjMI+5ahSeEeHd+kTvOMm73VUfoK8Ju0jAskU7BbAtURQIzoYPXI4Otx0HRa6xLxxd9cMvsc58al9M13Wbq6uqGrNxQ/KuDhw5f4A0GRHGnif8SOmgej94rM2tPfr9+7w7My/tr3169djHGop35v30959nbN299dMeunQ9wYJmueHeFuyvkuWWCR1XFmxr0d9cUWRS1ZmZk7D5n6tQ78vv0Wd+Z50ljIwJEoOUESLi3nBkdQQS6FYHttXzQi2+v+Ldl20qvVrP6GrbslQw9bnkUWWOWnojXHNMuGVu06ua50xedlx/ssp0aUyPcHUcXFNgqpsqksbIHb7r87ku+JuKONxCK9xXrT973p0+XPVcZMXtxbzrEbQ245gU9YYBXk0GydFC4Ia6B4s0R7loz4W4AA9MR98m8Z/fmFOk0pxXQukWsGNlHkY9iHowIePR6OGds0fu3XTrz6SldTLxj4e+ugwdvW712zU9BkkOmbYNu26BoqqgfMAwDUOCqsmLkpId29+ub99cBhYVv5eXkbO/M6SRhznO2bd701N6S/QvjphkybUu8e/F4PBDXDVGYijaguJYyvrHBtwyW043X5/NBwBf45IJzZy3qnZ7erQqQu9UvX5oMEWgFARLurYBGhxCB7kJgWy0f+N/vLvn3lbtPXm34skCXvFghCZrEdEOPq7Zts0yfwqsO72JzJo/4bPFNcx4Zlca6ZKdGYQf56sp3ig9VTW0LVxknCioJ8aRyC5SYI9zPJOLu3j8o3leuO7LwjU9WPFsZU/rawRyoMyRQPH7QEzHwSLaIqKN4d2LqmCqDEXdVXFvmWH6KkfZkJ9bkXs3vT1fAu99rbjMpuq1iAasVh6Ach3OG9n3/5ksnPz0lx9tlfN6P19QMKN6w4cVjZccuk1UNbAmJNHUixdoBmXOwTQuYZYPXo2IEfndWZuYHQ4cP/31nFrZV0Wj+lm1bnjl85NhtFoe0uJ4QaVU+XwAaohFQZQls2xbCXTyE2VxE3BWJYQqNXjSw6NfDpkx+Kq+Tv2HoLr9PaR5EoD0IkHBvD8p0DSLQCQlsq+L9f/lh8X8u37bnClMOgD8jExriBhj4hx+jdn6PiMoaiQT4VUmvPX5EmzlqwLIHv3npQ9O7oHhPlXAXcprbICfqYGCQlT148+V3zx3odE49kw3dZv6w7siDb3++/tnSet4nooaAqwHgTAYZTCHOFa6LjyKqCkyId7fLqnMNR7j/PdvA08eAQt7xh5eAoe0knlaVIRGthqAdhjlThv31hosnPj0929PpH9CQ3a6DBxesW7fhJVBYhmHZoJsGSIoiBKysKmKuEjaism3xD6PS6BYpS1IiP79wVf9++a8U5eV+nJaWVnEm69Xe+9Tgg8n2HT8+dOTw9abNFSZLAJIj2PGhBOcpHk7QWSbp3S8i7xzA6/NUTJow4YXxQ4f+sr3HTdcjAkQgNQRIuKeGK52VCHRqAvvDvPd/vrf6P/+67fB1diAbPJgxkUiA5vUCyBJEonGRC41iUQgfyQteVbLqTx6TpwzLW/X0bXPuHh9iJZ16kqcNLpXCXeSjx8NQmMZFqsxlLRDuOExs0rRuzZF7X/+s+JkKXc2DYBbUx5rSIVSOKTFuZD0p1bFBkyhCbZqomw/fPOddJEAnN4xEC5kvkqQlkDF6b9pgKTJomPMerQM1UW1dMrbo41vmnvt4Z0+bQf/zDRuK/3PPnpKrg6E0MG0OmFKiaRropgmSK3AxnUSWnci0ELuGELwWhrEDwcrc3D5rBxcN/smQ/L4rOuM9faymZvyqlav+q6qmeprH5xfRdq/fL8Q7zsP5PyqBkpyvKHIW7kQ2ZGVk7Jk8btLioYX9PuuMc6MxEQEi0DICJNxbxov2JgJdnsB2znP/+w8rX/piV+k1Nb5+EtO8oCVqRVRXpFHIGjDVB/F4FLzgiAIueYBLMkgYno1UweTC0IoHb7x84bScriPe21q4CwHczPFDStRDURDKFt80v0URd/eGOsS5d/mmk/e8+cnqJ4/U6flKMBtiNhaYNnVGxci+6ziDx6HLTPNUGEfEJyPvzXLenRZRjsd7k3BHYxonDx6j1OgbLmkeqK88Dr00C84fVfj+nZfNeGxsJ+2wyjln+8uPXrlq9brfhMPhbHRXAUkGNDSXmAKmaTr53xiJxj5VHNNITJFOgiIX/5lmUvRygMzMjF3Dhgx9vaAw/7c5gcDxzvYfff+xYxdt2LTp3xui0XEJwwCMvLNkd10LhTraiTLmOBMlH1Bwrqae4IX5BR9MmTRxUd/MzNLONi8aDxEgAi0jQMK9ZbxobyLQpQns5jz7579Z+fKmvaXzG5QA6N5s0V1TNerAp0mQSCQgmrDAG8oUKRS2HoO0UAAiDQnxs1AoBEakBpRYDYwb0Gf9fTfOu2VWLjvQFaCkQrg3iXcJpHgDFAV52eKbL22VcMdzoXj/dPWhu9/+dPVzVQmWa3jSRT67mxojUnLQAjJpFykMI9H2MdmoyY2+OykzjTL9K8sj3GaSQh5Totx0C5vLAB6faOgj6Q3gtepg9ugBH9wwe/LDk3O9nW6NKxoa+qxbV/yzA4cOLMjIyBDRZ920xEecY3MRi4W74gEUubmFnCJKLQthj/nv3LTA69Ea+uTkLCkaNOS/Rgws+KSz3de7Skuv2bRp47/WN0SGYK47/hPzkZrmi/N3NyYKVzESz2LDhw59dcSkSY/nMBbubPOi8RABInDmBEi4nzkr2pMIdGkChznP/L+/Wfbquj1H5uv+bMuSPTI6bmgeBfSECUziEPBgq3UL4iZGcxXgGLk0DPBwHUI+FSQ97uTUegJg1FfBpH6BzY89cMU3xnrZwc4OJyXCHRvhcExXUZLC3S5bdOOcr7WD/N9Ycc49rxaX3v76B8u+W2N5+0TlNEhIHjCZ6ji0J8W7kzrjnEm8KWlMm3Gi6E7k3XGbadzEWNFWElMpbNGIiWE6FK61LYNlO5FovBeseC1oeo09e9roj649f9zDszqZeC+vqJj7108/e6UmXN8rFEoX40ZLRCfyLAvXFRSxIp0ELTOxK62iCKFu2aZwm9FUj0iX4ZYhBC4Wr2K5cZ+cnL2FhQW/zMsp+GNubvBkZ7m38d5Y++XWxXv27vtOwjDSMS1IzAtfKeAbGPFw4tQvOOkyFng1D1iGjh9PTh439okxw4e/2lnmQ+MgAkSg5QRIuLecGR1BBLocgQOcp//Hb5e+vWrHoYulzFyoijPw+LygWrpIKZA1H+hW0sFEUSChmyB7/BC1sSsjQECyABJRkK04MEWFGPODZBvgjRyHohz/lmfvW3DNxEx2uDODaSbcp0geHzPQDjGZOtLqcTcT7kq8AQYE7bJHbplz1+yBwbOK1mLO+/Z1B+79zXtLng0rGX0b5BDEZa8oTEXxrto6+ss0pq87BauOKHdTZ1xh39TECQtbnZx4jMWjcJds08n55mgmJAOTNPFghh7oHo8KzIiAFK2EOROKltx6+fkPTEhnncZa8ERt7cA9e/fef7Kyck5FRcUAWZbTLdMWVog4h4RpCfEu3FbwQcSyxEOpm1KCH4Uji6wC2E5aDRpI8mQRqyYrtYUFBUtHjh7xQt/s7E7TWRYbNBV/sfLHB0uP3mpLzC/eJCRTZBoj8EnhLssMLMNAK0yINoRhYP/8jTPPmbU4NxRa2+p7ng4kAkSgQwmQcO9Q/HRxIpB6AuWc+3/w38veL95/4hIzkGVHLJCYsI4zhXuMKGJLen43H01zEeg0+XE8orGNI0bjcZNRvcfq1GFZ3u1P33XlZVOz2dHUz6h1VxDC/ZWV7xaXVqFwhzYR7hjlRHqSAmoiAvkB89iiG+bePW/I2Ql3nCHn3PvnL/be+8fP1z91VA/kNUgBMBUP+LweiNWcgIyAF7hhirUzJcyFZ2CItyRO7jrG1WUbhONNo387jlcSsXhn/ZrqVkXyzOmNflSZg5RoADVWbcwaPfjzu6664L7O9IDGOQ9UNTQUVFRWDisvL59dVn78mnA43Bej76rmASMZkcY3DKKIE5168N4HANPUGwtW3bQaJ1qN/JyPEoDZu1evdSNGjPg/IwoL/6d1d17bH3UqEsn7YvnyP1VU15wrKTJE43HwBwMQjkTFnLCANRaLiYcUFO3oqsPRbYdBYviw4b86f+rkZxljkbYfGZ2RCBCBVBMg4Z5qwnR+ItCBBER6zK8/f2t1Sdn5ujdLTsiqEKyaxMGjamDpjj94azYU9gnOQbN1SNPD8aIMreRHj153zdBOmjaTioi7ELoiV1oBWQ9Dgd8sX7TgsrvnDw581Bqmpx9zlHPfkpX7Fr61bs+z5RHIrbcV0RU03a+A3tAg2tyL1BcmgcHQ411KCnchOkHBiDIKdzelRuIi2o7iHVN8pGRxKgp7Idyl5Ed8pMO/DjYHD7NAs+LgtyIwbkDOx/fecund4/2srC3m11bn4JxLNQBp4YqK0YePHbnx8MEj11ZUnsoLBNOSD1aSKObEuo2EaQhB6zQwSlpsJoV6Y8SaOSknyNdI6ODX1EOjRg5/acrocS8xxuJtNe6zOU9paenMVRs3/CHcEB2Mzabiug7+YBCwcDUe18UbNXyjgE2oRN0C5sJbJoTS0k6OGTnqhbHDBv/qbK5PxxIBItAxBEi4dwx3uioRSDmBY5xn/+C3Kz5cufPQ1EBWH4gbNhgotDVNiBFR1Mac6GNrN1nB5jYWSEYCIFYLRdlpe5+457prZvRiu1t7zlQd1yziPrmtUmW45PhoY7oFCvdCn3niwZvm3nPZoNBf22oemDazdFXZg28vW/t0ZYznyv4QYHdQ3FBvOukvTgRdvDlJusk4BazOWxLxViWZIuN8dN6YuNvpufD4c9wP56YxBh5mgNVQBRmyyccOyltx1y3zbpkYYOVtNce2PE8V56Ga8sOjKyvrFuzYuWuBaVu5mEKDa4XRaOGD7rzREP9EHnxyABipdzfxM9MARbgpiQfdUwMLC387dvi4F7Oz/cfacsytORc+rOwoKblqw5bN/083rX44B3yThjaYmPbkzkXkutvCtx6YbYGh65CX2+eL6VOnL+7XO3NLa65NxxABItBxBEi4dxx7ujIRSBkBFO3fffGNdzaUxc/TtWxbVlUpEYtD0O8TUVQs4pNkBbOkk/4iLR+K6E+JedJJrSNx01aMqJSjWQd//Mytcyd4O08+NM4uFcWppwv3Aq9x/KEF8xZeNrTthDuOfSPn6povjt3/3tK1362MWZkcO6tyWVh3ojR3i1Sd1Bc3NQalXLNcGPwKH9ZElB0bOOHXbsdVp9DVjcw7qVOSqGdIRCPgUyXI8CsQrTkOst7Ap44ftuyu6y++rbOK96QwDx08fmpsyb69iw4fPjzf5jyIlpG6ZYq6Dsc+0rFPbMoNxx5NjowXufCiIy2AV1HBMkx0n2kYkF+wdNTosc/n52Z92fL/NW17BKZTrdu69ekt2758wuPzBqPxhJiT1+OHmJ5odNZRmOR0VJUZ2IaJIl4vGjDw7ZkTxz0aDHae4tu2pUNnIwLdkwAJ9+65rjSrHkzgEOd9/uk///rOjrKa6dybxgzJA+GoAT6PF2QjLsoxZcUDJrppoHBpJSsRzbVN0fDGkGTw+nxg6lGu6WE2KNO7+zv3XHf5lE7kAZ5K4e6mymDE/aEF8+5pa+HuivcNaw4vfmvJmkcr41I/y5sOcZAdRxsstE3ms2NuOwpOFOU2pnxIbkQZxTgDyW4u3E2wGabT4PHJSodkcyaMujNJEZHbeCIKKjPBo9oARgPIlg7jh/Zfed9VF982OYsdaeUt1C6HYQS+6vCxS7bt/PLpEydOjlM9mgdFO9qb8mRqET59us2aXOHu5sJjvjuKdhUj71jIa5h6Xl7eyknjJ7zQPze7w4s8w+Fw76Vr1v3hWHnZXFlRQdZU4csvHl6YLB5SvJrja49pM5qsiAd3VZaqpk2d8p2x1FW1Xe5DuggRaCsCJNzbiiSdhwh0AgLYAn7xi3/es7K0tlDO7CdFYjFZ0nzAFJ9IE0jU1Qp7ONNy/qg3hmpbMXZHuNvg8fqg3jDBEikYFnglU9caqrURfTJ2P/7Nqy7tLAWr7SHcC7zGiUU3zk+JcMcl2se5Z2lx+cPvLFn9xIkGOyfuTRM2kYrtLKVsozRzouiucMd8dqHFRdElhtkVsR9+asim2Le5cHf2wZ9LoJsA3mAQdD0hxHt6mgfiDbWQFvRB/FRZ4uIJw5ctvPbcO0YF2YlW3ELtdgimlVREIjnHSo/ctLek5N7a2trhqkcTqWNYM+B6oeOAhN0pNjBC28jk5+KRB59wLVu4zni9XjMtFFo1cdyYHwzq128VYwxBdthWevLkzM+XLH23IRrt7Q8EhCsQPlCrikdE3lG445xM3XDShWwOlmlCv5zeH886b9YjOaHQ3g4bPF2YCBCBFhEg4d4iXLQzEej8BP7jsx2P/E/x7h8eromagYyc9Jhhg25ZotGSpvpF5M1KxCE9FIRY/Gzr7LD7pAmyV4O4EQfNq4LKGCTCNeC3EtGhOekHvv/4lVeMZB1vFdkdhDvefdik6bPVBx9947Mvnq7igXT0eMciU1dwO5FWzHv/asGpI9ydFBhXuFuSI9zFWxgU/yIfXrjFixQcbMqEzixevx9kWYK6+ioIBQMQbaiDrKAGrOYkzBg+8KNFN1xw++A0VtHZ/3fgg23ZqVNjdu3a9dShw0cv13y+tJipNwl0SWrMeccIPBawNjQ0gM/jAb/XB5FIRDRqUlUPutJY/fP6rhs5fNh3hxQULGOMOZWuHbDhg8mGL798bOv2Hc/rphESrjKJeJOXPSZHoa+9aYr5aYoq5iED1E8eP/Z7E8aM+XlHjr8DkNEliUCXJUDCvcsuHQ2cCPxjAr9aX/7YHz9a/t2KmJSmpGUBviSPGSYwxQumrkO6X4VEpEGI+dZuWBApK15hO+fzKmBzRwBhd0pV1UDjJvBwFQzuFdry/MKrr52QyTq03XqqhbuUqBfFqamMuLtrhQL0l8t3P/vqZ+sXx+S0HKcEFV1l0ODTcZdxClbdssumJkxOPrxTmOB0Wk3mtzdr6OT8TBI59Li7rmNKDUDQ54WEHhMFm2DGAU01lUSdNW1YwfKFd1x46xjGOk2zov/tvuac+w4cPXrVpm3b7wvHorPi8biCueHNCzqRGN7PHo9HCF5s2ISf4zsN03TeapimAVkZof2jRo18YcKQ4e8wxhKt/f90tsfVcJ6xec26/1Oyf9/twCRVUhVIYOMlrxdiCSffHT37XeGOD9xgmpCTnb1l2rSJiwpz+60+2zHQ8USACKSeAAn31DOmKxCBDiHw6rrSx3/xlzXfq4ZgQJd9wDRs4GMBtw1QQRc+7hJTk8WKLR8iCjvRzRPtJXlCuMs4KRqOp7jYzLjutWPa0JzA1ifuuOq6jsx5T4VwF82Mkk18ULinOlXm9FX6+dJ9z763YsPTcS6lh+MWKIFMUbSq2wy4JDtdNTGFRhRZuv8w9O50fHUF/FeaNCWXTkTchWxHqeq4D7lNnfA7eA7L0gENRhUjbpwzdvCyWy6dcvf0bNbhjitnejeXh8MjNm3c+IPDhw9fKilKEIW7YZmiE6nboEnYfSqa+BrFO6bLYLqJ06wUnWcsUGX55Izp0x8fU1T0JmNMP9Prt/V+xysrp3yyZOnrMV0fDHLSGjQp1sX4LeelgCai75Z43OOWbQwbPOyli2ZNe4ExFm7rMdH5iAARaFsCJNzbliedjQh0KgK/31h9/y/fXfbDGu7LYoEQ1GMKS0ADFd/q25iviwnQTRZ4LRl8o3AHx8tdsS0hEDFF2kRPcQmEg0eaTwa9uhzGD+yz7pm7Lr9lbAf5vHdH4Y6R95+trfj2e58seSIGaqjBViHBFJA9QbBsBsxyCk6x8JSB6Qh28XCFghz9vdEWMhmZb5Za40hSNyLvuNbgIc5HbO7kPAZwBYSA5fEEN6vK2TWzxnxy92UzHhySwQ605F7qyH0xUl26d++3vty58/GGhoZ80ZwMH1Uwx53jw4kFsqSKQm78HDd0acGHYMEJ3zDJCoBpVZw7Y/rDIwYNepsx1voGCWcBA1Nmtuzc88j6TRu/B4wFUbzjw5fwc5dQyDsuOu7/ePyIb+CyMjKPjR8/7qFRAwe+fxaXp0OJABFoBwIk3NsBMl2CCHQkgd+uLl/8hyWbfnQ8agZUn5dZ3AKmMOEsocmesxLumJKBYg4b/SjcBFmIAlsUqmI3T66pEIlFQMHWq/VVyqxhBasW3TjnjskdIOxSJdzdBkwdEXHH+2oN51k/f+mzVSXlJ4eYnjRVV3wQjWO6klc4yODDlLMuTj67yH1PCncZhTtP5sMLFxq3kNX5HDch1pMfJQtz4EW8Xfw8Yprg8WkgWVwP8JimVR+0vnnptH+/74pznurIe76l1+acq3uPHp23ceOGf6mvrx+qaV5Z5IhjIXey+yqe0+KOoEcRbFlGUgSLqLV4EE7zBXZdcslFi/plZy9nTDwltftWz3n2ko8++X15xYnLZVUT18c54IYPJa53vYpFqujvb1pgc8seOGDAy+eff/6zQda5C43bHShdkAh0MgIk3DvZgtBwiEAqCPz3moqHXvt4+b+eiht+LZQJtdEoeP1BsA20l5EcV40Wbo7Ic2J3WNgounSiM3zS+9qUAAxFgahhQlp6CIyGOoCqMmvGsPxVj9x22cIJ6e3r854K4Y5RWCeaqUBHCPdyzv2/+qjk6VWbtz9cFTXSE6oPTMUDIHnBwmi7jQ2yuBDv+EDVJNydxRbC3Y2eY9qPEPXujZB0W2EchZ0WOVYAACAASURBVHky4s6EaOdJVa/6NeE4Y8SikKEk4PLJQ199/urJt3fVQsdjFRXjd+/du/jIkWM3JAw94PQ6wM64TtqJZWLeUZN1pODJLWEVKeP/BdOyM9MzVp4zY9qTeTk5G1v4X6rNdt9/9OjcL9au/1UsHs/H8eL/b7SIdKPuwtNdUcTDBtYrYK5+yB84Om3apIeH9i98v6MeOtoMAJ2ICHRjAi3/a92NYdDUiEB3JvDy6pLFv/94w/NlUcjWAiEme3wQTzhv9Fsj3IXgE79BkuJdRHbRQxxDtPiCXoKYaYMSCEAsoYNXYeC1YmDVnoRzRw9acvPVFz94bg4raS/mzYT7lLbsnIrCHTtVup1TU+XjfjqnA5ynv7308BPvLFn1HV1SdQMUj6V6wEKbT9kjhDvaPDrpLXYyTaYpBcaNpLupUqKjarJY1bkpHOGO+2E6iNOcyf2TgW9abLDNGGT4NTNWfVKaMWbQmy/dfsFNjLltnNprZdv2OjU1NQN2lJQsKjmw/27dsELIRVJU0XEVCzqdhk1u5NqEAN7fkYjg4/FoUF9bawwZNPjTKdOnPZmXltYhHYSx+PaLzZuf2rL1y+8wRVaxW7Lr7Y6CHburunaXWLCKqT6WofMB/fv//rypU5+lpkxte0/R2YhAWxIg4d6WNOlcRKCTE/hd8YmHX/lo9XPltYlezJ+GnZgaGzC1Rry76RTutJ3mP01fAUM7QS5EPOZYq7aJNoLmsQM7lXnnTFpy22XTFs3s5dnTHthQuD//ysq315dWTW0r4Y7RTMfru0m4P3zz3LvnDkr/IJVzOlTDM95cv//JVz9Z8bCSnhMASQHd4MBUVTTWwiJK0Rk0uWFRqYikJwtSm9Jg3GyO5i4zrr2/YxPZ5EyTTKMRqTVY8GqBz45xOVbDL5014U8/uGbyLamcc3ueOxwO52zbtevJPfsO3BPXExmADkqaKhjig5rogYApKKYunGYswxAPOZaFzY48oMfjicGDBr01edKkp3ICgfL2HLt7rRN1ddM++vjTN8INDQWq1yO+jTn7ovlUcrzC2x0bNCkq6LE4BLze8tkXnHd/fl7eXynq3hGrRtckAl9PgIT71zOiPYhAtyLw2ub6u/7rnWU/qOFqX0xngWSaTEuFe/NUGVH4iA4VQhyiTMQUDAVUSQE7oUPAo0E80SDkOzZpkr0ab6g4yOaM7r3sjqvmPDI9N5jy9vHtJNzLF910+d3zBwc+StVNg6L9L1uOPvbG52sfa/CkBcKGDaZuQUZaCIwY+vLb4PGggHfepjh+7o7YBo6CEwuSlWQEPlmwmhT0rlWkKERNdmB13p6ASBnBmgb8h+us2Qb4YzUwfUjfNx+8++JbR3Wgm0oqWHPOM77YsOHxYyfKH6iuqcvCwk6ncBVv8aY/ndFoFLKysoTfu6o5XWzxPtfj8bqpkyf/dGj//j/PzMysTcUY/7dzcs49q7d++dju3bufT5iGDyPtKNwx0o4PdqIzrKSIzzUJC5U5mIZuDx886I9jJ058oncw2KmbarU3T7oeEegsBEi4d5aVoHEQgXYk8IdN4Xt/8+6nP67lSqYhO2JD2N8Jt4y/3RxPcCEDk8WKrhhMWs41E+6Y6c5RuGPuvMVBw2iljRFJR9gnsPuk1wOKFQGtthSmDuv/2a2XzX78/Pzg9lQiaC7cmdfH0Ipbbkz9aPmVUQgzTDHA5lbAQE2EoSBgli1aMPeueUPSP2n5Gb/+CHRAeeWzXY/+efmOh6ssLd30+kDSPKBwBoaug8I5aIoE3DZF3rKk4JriI9Vpwr3RV8QR7kKwN9pDYjMnJxXGtYnEhy1hfYkOJbiO3AK/FbMvHTfkTw98Y9JdAxk7205eXz/5DtiDcx4s3r71gb0lB++LxmMDRWOr5P8Qi3PxfwbTULAxk4i8WxZYtgkeTK3hgDaR5ZMnTPjJuKFDX+oIj/eaWKzwk8+WvllVXTUF3xhgkSrmuYumaSo2YXLS2nAeHlWDWKQBc/UrL734ooeL+vdHa8sOccfpgKWmSxKBLkOAhHuXWSoaKBFoOwKcc/b2lor7/v3dFT8Kc3+mbcSEADElDXSbu50hxR91LGsEpgrhhrIFxaHEnQ7v2HtRfF+4CyadSJr5g+M+Ti51k8GGYzPoGArK3Lb1+pPSJeMGf7ZgzjmLL8xjKUubETnuL698q7i0ZhoKd1Qk+JjiRJlbvjl2mE5xJ+b2q4lqKAraZYtvnnfX7IFtL9wx0v7+hpJH31mx+eEK05vOAulgcbMxNcmZh5ve4nyOW1OxqSvOxaokJ+zkvmMBK+5o4nriQ5fkWD6iGZAt0kFUiMWj4Pd6gJsRsCPVsUsmDX/n0ZvOvSefsVjL6XWdI9BxZveB0mu37975XHVtzWhkgxF3TJlBws6bKqfjKua/q2rSA940ReGnbRrHzzvnnGdGFxW93N6zFm45Bw/ftnTF8p+AImWgyww2ZVI9PkgkEqDKzjxEFN42QZOdCHxudtYHl82//G5ymGnvFaPrEYGvJ0DC/esZ0R5EoFsS4Jwrv95w6sHfvb/iOzHDzAmmZ0JlQxywaBU7qsb0BMiy8yvCdY9xUigc20dXJja5QrcMEwpfbBaUpkoQLy+BSyYM+XDRggsfHRFKTcEqCvcXXl751ro2F+7o3GIJ4T4II+63XNbmwv0w55nvfVzy8DurNj4ZkdP8cTUAUd0CFTV20sWnZfSTe6M1KHbUxEcrEZlXkg9VyZ9bJliGCaomg09lEKk+AV47DFdfNON337hi4uJRjDW06rpd7CAs9ty2d+9NW7Zt+2E4EumreX2iUZMQ7RK6tjgpNK54Fw9QjIEiSaLRkd/nPXDRued+qzA3t927k1Y0NPTZtmHzz/YfKV2AjdFs0SFWEQ8ZMuPiLYGioHC3QJJlMA0D0rzekzMmT71vxIAB/9NVHYK62C1GwyUCZ0yAhPsZo6IdiUD3I7CTc2312uP3v/Lp2qerYtDX6/VDHFuhe73QEE+AV/WKaLkMiaRAVERMt7Vi/XSCHH2xuQmKHbfiNcflc8cP+fChG+c8Oj4F4t0V7sWlVdMAI+7o7HdWqTKY7+1G3E1Q47VQlGaWL7r5sjvbMuJ+lPOs1z858Mj7y9Y9FGPeTEP2QMwyIRhKAz3hvPlozYbrim4zDCQwJEWIT3yTIppoYSwZaxVUnxB4gCLVqANvvArmzRz/69uvm/bEEMbqW3PdrnoMpint2Lz5wT0lJY8ZhpGF+e5uuoz7EQUxCmFMJcKcco4Nm7A42zKhIK/fR+ece87CbL+/XTvL4tu1g2Vll61cvfpX4Vi8r6Sp4gEDN3ywcK0hTbQ1lZnwdQduQX7fvHcvvHj2whBjlV11zWjcRKA7EiDh3h1XleZEBFpAYCPn6to15ff9+bO1z9c1mDlKMAPCugGqL+j8gcdoMk8Asw0ReceoLKbUYAoGCr/WpprgLx+FAcQTMWGpx+wED586ws4ZM/jD+26Y89C0DHaoBdP42l2bC3fXVaalBbnNL+Kk+zgpJxj1lhMo3O3yRTfPazPhfojzjHc/3fv4W8u2LG6Q/SHVF4D6KOZTa0l3EwyTt67zrdNUCdObmj+A6OJtCgpPXOuYJYPf7wXJiHCz6ii76ZLpL9115fin8hiLfi3wbrhDNefpu7dseaJk3/6HovFYBtY4iE7BaBOJtopq0r3FcjzTsStp0B8Qwp1bdmTokKKfnz91+nfbO3e8oaGhz/KNxT86Wnb8TnxDgCIdBTs2YRI1Gooi7ie8pfFh1jQS4Fc95XMuuPDG/L59V5PDTDe8mWlKXZYACfcuu3Q0cCLQdgT2ce5Zte7Yva98WvzcsQYrx+tPB1uSwUhGZVVuCZHHuSGEniH7Re67aOzTylQNYVGIjhZeD4QThtOBk8chXl1unztq0JJ7rpj9wKxcdqCtZukI9+VvbSitmiZ5/MwQfvNOikPrN0c0Cx+deD0MCEH54gXz77pkcPDj1p/TORJ92v9n6b4n/vzJukdqwR/U0rMgHA6D6lNBliWIx+PgUbRWC3cx7qQfOUbVMcMd36fghl7w6B4jK15gegNA9RG4Ze7MF++8bNwzfRiLnO3cuvLx9fW817Y9W57ZtXfXQhMgDf3dhbc73k+Scz+4X2NEW+S9yzLEo1EI+n3l554z89Eh/QvfaE8GnHNp79GjV2zYtOmXtfX1uWqykLb5uF3hjnnumN4Dtm0MHTz4ZxfPmIEPGj3yQa0914iuRQTOlAAJ9zMlRfsRgW5OQIj3Tafu/f0HK184WWdlcw0dSxwvcAm7Zwo3DacA1WQe0T1TfL/Vwh2AGzp4fT6IMwlqG+ogLSMATI+CXF8J04cN+Pyh6y+5a2ImO9wW6I9EeN7zry5/a9OhqumucBfC9SxO3tiOCDVbwhHuDyyYf9fcsxTu+zgPvfvp9if/svLLxVE5GIrYKmBqj+rBFvY2GEZCFBNzy/Vcb80ksMgS3U8skND1B9BxBBdbBiMp6BXbBKPqsHn7/HNfun7e6Bd6WnrMP6JaXR0r+HLP9u/s3l9ym2FbwmrRbdCEjz5Y7OkKdrSL9Gq4bk5xd1ogbeNF5513e9/s7J2tWbXWHhPl0f6fL13/H/sP7r/G4/ODpDjRduE/z3ljxB27wGJ6DzZS0ySldP7cOVf2ycpKqeNTa+dExxGBnkiAhHtPXHWaMxH4BwRQvK9Zf+y+X3+09tu1tre3ZctOsxmJA0ev52SEWqRSYHHbWeSI4xBkWRXniRox8Kf5Ia4nwIhFIN3nMROVJ5RpQwd88eyds28d6Tt78e4K942HqqbLHi8zuDOfsxPubqqQJIR7YYiVP7jgirvmDva2OuK+k/Pgx6uOPvXmp2sfrUqwoD89G1D8qSj+MNKuJ8Ab8IOu6yDbrRfujvWnKtreazwODF2BMEcb36hwCRQzBnJdGdwyb+bPb5g3tl1EO6aiZAKEu0JqRmV9/fC1Gzb+/NiJ43NwLfDNkWE4NQcKOjQlu6yKhkexKGRnZkFtdTU+AOvDhg5765JZs+5m7ejIg8Xom/fsuXPTli3/ljCMNHzYwIcMTOkxRF6+82ZAvH3B+g8GoMcT8cljx/1w+uSJ/5d1M59++iNABLoqARLuXXXlaNxEIEUEULwv33Tq3t+8u+S5iOXLMWUNOKYDKI43u9i4ISK16EfS2g2Fo81RKDjuKIaZEKdCP2wUPSrm1IdrYExBry+eXXjZTeP87KyK+vZEeN4/v7b87U0Hq6Y5wl2olrNLNUlOXjTdSTRAYYiXP3DzFXfOG+htlY97BefBV5bseubPy7YtrmeBNMUThGhCB7/HKXpMmAYoorjQFILL8Vtv7Qpg/BcfnGxQuS589rFIFc/NjQR4jFpYcMH4n33rsvHfL2SsprVXaclxW3bterKurm5I3z79Ps/qnb2qo7qOnumYD5adnL1+c/HPT506NcLj84FtY1kvFxH3WAJdmWTRqRRrQdDrPT0thI2Z0DKyetKECc9NHD7yF2d6rbbYr6y+fljx2rUvnqiouARFO/5DAY+dVPF+8qiqsIPEiDtG3rEMPSOUvvriSy66KdvvP9oWY6BzEAEicHYESLifHT86mgh0SwKHOPd+sf7kvb/6aNXz1ZaWjZF3bPSDee+6pYMCTBSWirzeVm6uDzr+EtJsLIq0nGcC5vjDC39xsCw5XisPz01b+U8Lr7pxZIAdb+XlQAj315e/teFg1XQlKdwZVuO1srgTx+G0uUdbPQkUIwr5Qat80YJLW5Uqc5Rz35uf73nmnWWbHj1letMkb+grU3U61eK30HcdH5qERPxfx4/jc9fob9dKAq/mg0gsCormddImZAlkswHk8HG47sKJP1905aQXstvJPQabBS37fNlrp6qqJvp83npJUY4NHTzkvf55hW/3zQ7uYfhk0ck29EnfcfDgbcXri39s2FZvfBDENyI+n/NGxM15x3XAR158SBKiWFXBpypb5s4+/8acUE5Je00Lx7utpOShFStX/dgX8HsSline4sj4HiCZLoMPG9hQDAW8EO+cV190wYV3DCno95f2GiddhwgQgX9MgIQ73R1EgAj8XQJu5P137y/9bl1CzVQCIYhh8xavB2zD8anGaHlrt9OFu2JbIDt9gMBEQcwkiJtxCHol4OFT8RF5WTv+9eGrry9irUubQeH+g9eXv7X5YNV0yetlFvYeOmvhnnTlkBRQjAboHzDKF984/555gwIftoQL2nIu+Xzfc29+vuHpsOTVbE8IdKwhcLuXcqdDrdMECy0bHe5Ol9rWucrg8UbCBLQANVGomQnwSTZYNcdgwSWTXrrjyonPt1ekHceyeffux7Zt/fK5aDyWKfL3cb6mFc/Myjw4sGDAX4YPGPKHUMiTsgZdLVmv5vue4DywY836/yg9fOg2wzJVtInElBlZVUTuuPuA5yyYJXLJsTGTpihGUWH+GxdOn3lbez6UHCwvP2/16rW/q4uEi2SPBhZwfEZu3ITTkt00btswjWHDhvzi4unTn6Ui1dbeJXQcEWg7AiTc244lnYkIdDsCKCg3bjh6928/3vBPx+qM3qG0DNBNU4hqbNZydhF3dC9RRKqHgmIGLRWFSw0HSwIwsWGr1wOxRAR8XgX0qnIYkRPa/r1FN1w1ztdyq0gU7j98bfnbG0urpsmanwnv7bNI9XEEmSPcQXaEe4HPOLl4wfyF84YEzjg6ibnH//eT/d9+d/n6/8/ed4BXdVxb7zn1FnUherfpvYMAYXqxwbj3Ejtxx8YVG/u5Pae85MVpfxLn2XEJcSPGuNARICFE772IDkK93Xrq/N+ecy/gBuKKK5A98318EuicOTPrzBVr9qy99osBMVE2JZVoYQO8iQks6snizMTR0mMCKdJ1RmoxSookqw4nBoosQyioAdoauiUbjJLD9JZxg9++aWTvmV2SSHl9LeiyYLBFXm7ef4pKiofg3ERBAt0yWcQX15hlm3pSQuKBrh07/7tz+67vJySQovoaW22eU1VV1W7BimX/DoWNzGA4BJKigoUuTKyqqtOipx/MvYUVPyKgCsKx0SNHPtiuefOYcyJqM76zr6murk7bunv3L3fs2f2Q5PEw4k7NqK+74/HONheYcEsok625VWXntddcM7G+PegvdG78eo7ATwEBTtx/Cm+Zz5EjUAcE8Hj9nxuLHnz3q5xXqwM03ZPSCKoDfnB7vGBgcZkY+z4j/QAQbQEkGxhxRwkI1vBE4q5hMFmRwLRNkCzNSLU1uals7vyfp++c0vkCyfu+IG3x+oc5/9l0uHyIqHic4jkXkbiLug/auM3iR2+d9MA1tSTulFLxb9kHXvswe920GsGTJCemgT9sgCIKjLSjbAGbgwueSJgRVx85pkj7t33rCRZWwnJLlgGqXgXXDu3xz9tG93u+U1L9Ft3ZuvfAfZu2bPqdaVtpDtklYNpOwqQiOTp82zTxe3/jRhlrOl7Z/p1O7drNu5wiwPsOH74lL3/NH2ygzTBgjcncKGaKFmc6G3sk7pgULNjUatum9ZcDR4z4WX1JknA9HTx+/Prc/FV/8et6cyJLIGC5BraZcCqqsu9FEWz8jAgULF2vHjlixKNd27T5uCEkDsf4K4nfxhFoEAhw4t4gXhMfJEfg0iKA5P39dSceeXf+2pkVhtg4wSVDSDfAllws+h5rs5ExYKMSc0hBqYxD3LEAEIAOmDCJJ/cENcGgGCFwYWQ7Udn56rSbxna7gMjrN4m7FxypTN1+BeL9rEiVKDmuMm671sQdSfubSw+88nn26qcDgscjJadDeZUPRJcLVFkB3USLRkwQtEGxHXkMeq0z1xfiZl/xZ+ey42QOIZE5Rr9GT0nwXhUrZYZrgASrYPygHu8+eOuQp9sRUhXr+4zlvnJKk1YuWjy/pKxsGGXVSB0ZFq4C/Mo2MISAS1GjTifgdqtlTTMaL+rap+trrZIbF8Ty3It9D6VUWbl23e8OHTn6YFDTVFGR2VywWczBCP8478NxbsETJgBZFE4OzRz6VOc29eftHggEmmXnr/rzwRMnbpRcKshEdNaxHV1xeNxlg8WqqTra/JZNm825dvToe8hP3Mf/Yq8b3h9H4EIRqNv/Whf6NH49R4Aj0GARQEnHn/MLp89esvp1X1BXieoRLFG9SMTdqULK5CARaQgDCkmOQJj0IOj3AfqKp3oU8JUWQd8Ozdc/c8/4yb0SSUltQD2LuA8WFW9E4163X4FR4o6l7kGvgVYuq3jazRMeuKZz0jmlMlgQ56/LD8z8aMm6mZqc4NaJCDqSO0VimxTTtJm7DspwRCYjcpJRsbECWMSJuF8ocT87UVUEC2RbA/CV2hMye8168ObB0+ubtON89h49emde3qo/WkDTsVqrgacAosgSZZG0Iw6ouTY0jUlMsKgREmCRCGZySuK27l26/rVx+w6fZRDiq806iOc1laFQ2+ylyz8pr6ocxE6i0I0Jk61pNEnYZu4tzou0sJoqqLIIzRs3/TJr9Oj7k0j9yJNwI75u25YXNu7c9YIJ1CUJkpMpYVBnfILE3gMeSCGhl0UCxLaLrps0aWzTtLSd8cSQ980R4AicG4G6/a/F0eUIcAR+Ugggef/HmsLp73296lXLk+YNmkZMkg2HgJ5xSYn+IqLgWE4iOcVGTQNckgi2HgJREkAWJQhrOhDZBSRQHB7YUtzz4uO3TriSnJ+8R4n75kOVgyXFS5isN3YvRTY+LECFUVUBtfoR4v7obSiV+WHijpH2f+bsefVfX+fOrFYaCyQhHYL+KpBdCgiqAmENLR9dEA762dyRrCIaKJZBfKK44QbnfMWvzo64Rxfq6aqedhiUUJk+ZkCP2fffOviRzpeA+GJi55bclR8fOXp0MisIRAFMFF8JmIXrrAqcp6MLR9WUyKp6Mo24iBscHTwuV1mrVq3mdu/S4zdNUlIOXeoP5MGjJ0av2bDhL/5QsAtL/BTRdlNwItqRUwT2NiMOM0jcBSAnhw8d9mzH1q0/rq/xHyspzMrbsPnvpZUVXQnFEw0FrLDJTgREWQXN0EGQBSZZYsXXbCvYv0f3p4f07vtWfY2RP4cjwBH4LgKcuPNVwRHgCFwQAhgt/kPOsec+WpQ3Q1eTU0zCzOQixPL7ZTNRIs7IbkTHfibBMiqPQWW7Q3IYgUdPd1ECLVADiS6s4EoZaTdBBNGbBKJeA57gEeiY4d7w+rM/u+Z85P14kLZ48cOc/2y4SMQdf3mipwsSMipixN0PzV1m8bTbJj5w7Q8QdyTtf88tePmTr5e8rLtSjbDaWK7RbfC60EHFBM22QJJVMPArJgDbpnMCwUi7wJJ5nb85LtwCS0xFSu+0aL6Bg7cNBCtgnrU5YX3ZFhDbAJflp6N6tf/48VuH/rxVPRYCOnuxHThZdG1OzvK/2UCbm4gj2iZKmNPguK8wEolaa/yZhbINdNrBOTgabFEioAVD2KXWtlXrlT17dXuxdaNmGy5oQV/ki3Fzm79u4692H9j/uE5tFTckOK8Ib49IlyIJqqIApu5IgVo0a/rliNFj7ksmpOIiD+l7u6uhNekr87f+qeDIkTuoYYHX62UuQ4g1nnIYWEBKcJyj8N/csgwpCYnZN1096RpCiFN0gTeOAEeg3hHgxL3eIecP5Ag0fAQopWTW2iPP/nHuqpmQ2CSJmkGiGRaA7AYqKmBZBtPxSqhPP4uI48wxwRJlGkgiTZbAd6aIEEaTnXZmA+AQfWwsRM7IKRJT/HfBDlmKFRbbZqSuf/GB8VP7n8PnHYn7Kx+vnJ1fUDKYih5BdrnBNvSYXwYjz7oBbrcbNApghHzQIkkoefSmib+4oYPrO1IZJHRvLj/20uwlK58NEMUjJyRDGGvdRObCPPnYacOZIeE2xmHkDh7RDZATaUfJCEbkkQQa7Oeoe3cqojoaZWLpDEl0CEHZCUbwqR4EMVwNI/t0+vSxO4be246QcMwg1OFGlGssyM37oKio6OaQronsdAA9xUWRFQRCr3PTcuaF/xbVhjP5EKr/UQ+P3vPoSoRVQE2Tetyegr59e77evd2VmEQZu1dpHeaFt2IRqQXZ2XN9oXA39EqX3CoEQ2HwuNxszKZmMnJsU6eQlmWYoLrUk4MGDnyuZ9u2H9Xx8bW+feOePU/nrV3zmiRJXicROvJJi2yisJKqpmksQRhXFTWsY9dfO3lq49TULbV+CL+QI8ARuKgIcOJ+UeHknXEEfloI/DHv+PP/+jpnhkGFFE9KKlQFdAAk7kAiFVCjxPibRDxK3C3UsNfBh1y3bPAoMtCAD7q3SMj/zbSxN7Ul31+kiUXcZ62YvflkzSCieMQAkqeo3jiG14a/PNVI8qRBCEhUgwwXLZ12y4Sf3dDRO//sLpGk/n7x/pc+y9n0guFNk/2Gk2SKhZvqotbByqnONsd2JDRnkXu20bFN5l7i8XhBC/hANIO2h2rCiH5dPrv55kG39yfEYcaXoFX4/T0WLMn+e3l1VX9FlFRJVZzNB7XB0HSQVYUlRTI7SMuJ+mIEmFUiZYWv8FRCZHaFqPZHAmybBnhd7rIuXbr+amCPbn8nl2hTgvPYuHX78xu3b3lZUGV3UDdAdblAD+tswyGBc4rAXFtwLraBX63O7dt/0r9r18dSU1PrJUH4SHFx5qr169+qrqrqgdIkNLvB04GoqwxKknCceCKA60gEoWZQv/5P9+ra6Z1LsGT4IzkCHIHT22sOBUeAI8ARiBGBv+Ydfv7DpRtfqbZkye12S4GwBpbsAsqiwRgRdSp9Rqm7Ez93Iud1aRjxlgTCIoICkQH85TCyS/qSJ+6edF8nDzn57b6RuL/6af6nuXtODCKSS3KjNECvS1AWdcvAxiCiW4hRA83cVskjt11z/5QrvPOiz6eUqv87b/cLc1dtedYvJLhDhBAZLfgw0sqYUmyuPAzFSOTdwORY9nd0n0G7HJyXAFRW2ddwwA9JLgGE6lPWyH6dBOwplwAAIABJREFUvvjd7cNvJYSYdcG/rvcGg8EWp8qrBu8/cvCG4lPFA4PhYFMA8GK1UWqhq1DEfYVpriVGeFFCxCqSUofARwmmFfG7x02QFg5DempaWbeuXX7Vt1uXt8glkgH5/f4mXy5ZssynBbtpugmqxw3BQIiNWyYS23AQlmiLm1eL/T3Z6z00oG/fGd3at/+srvjW5v5SShN3bNjw+737999vUVvAgmS4LlG2FD3RwKg7SpOoaYEqSdA4Lf2rayaMvZnLZWqDML+GI3DxEeAR94uPKe+RI/CTQ+BPa0499+G83Nd9YVP1pDaBiqAGoqQwEoAWhjI1GMnE6Do6h1ggn5GIROUgF4gaEncRDDAtCpK7EYhGCIziPfbonlcs+8XNk+7vkU6On90lEvfnP1g2e9PR8gGqJ1E2bcIcXGJtTLZCZFYF0wrVgGxUwxXpSvEDN0762aQrvQux3+OUuucu2fX0nLxdL5RbLg/xJIOGCbcCatdtMNBtJMYTB+Z2jlpwlMcImAMQkSGxqqqoFxdAo44PvFe0gfiKg2N7d1jxP3cMnXqpSfvZmKPsqiocbl1YVDThyJEjVxeXlAwyDbMxknVsYV1n0XXUirOoOp4sRBRE+O8ulwtMXWeRYZSioM+nroXRUrO8T49uv2rZo8f/NSbEH+t7rst9G3fseHjD1s2/JbKSENJxg8kqpoKumSCjvAflZJLEiDs7VTBNs0uHjh+PyRzyQH2dFmwvKLh33caNf9B0PUVA70cBPfTPlFJln2H0dkcHHMwrIMLeKVOnjGnk8Xxnc1wXrPi9HAGOQO0QiP1/rdr1z6/iCHAEfiIIvJV3cMYHizc+W2Eq6VicSbcpSyRFgo3EHQk8cwghUq3tDM8FHRYkEqwwEEmFgO1lUe8UMQzBUwUwvk/3JXdeM/KBvs3J0WgfSNxfeD97zraTVf0Ub7LkD2ogiA7hjaUxW0aQmPmJy9JBNnzQ1GWU/+Lma++9vot3HjqmzMkpeObD+Stm+pTGQJOaKFW+ILhdCrhMP1Ak3RhdjpG445hpxB8cv2cbGUbaUetOnERWIqI8hnrCZTCyZ7uvf3vniOsvpfb7fDijv/jJysq+Rw4deaDg0MGrTNtKEmUZkFBiwipGp5meHcCJWEei8tgv2kSyhtWP8FoK4FZdZb169nqld5eO71+KYk2VlZUpS1atXFFR4++NvvwuzKuwcWPhaNzx9EBBNxdHKsM2IClJSfv79+37ZNe2bRecD6+L8fNjJSVZ+WvW/qOqprozbvbOJu7sVMiyIBp1x82mJIjlwzOH3d+5XesvL8bzeR8cAY7AhSHAifuF4cWv5ghwBM6BwFvrSp/6cOHKl0p8eqorKQ10jGpjCXtMwnMU2CwZ1UIfcuJY/Z3P0vCHHofEXZVsCOoW6EIyI6mqHYBUyYbygr0wdUzmopvGD350QBPCLALRDvLNT/PmrCk4NSBsK4LiTmCkJNaGxB03J9iSVRmEYBWky3bJUz+/4XZXC8jdmXPoxTkLlz2heRqlFoYlIJ5UkGQXhP01kCiYoKIRTR0qzzJleySxFfHF2D2zegQCUemMis4yviIY06vdV7+/e8SN5BJq2i8EZ0qpe8/ho/dt37njPn8w0F3XDIVIzukBK0zF5DOOVIZp3SWJ/ZseDrOovCrLTJON1pFu1VXcr3fPZ7p36vTppZj/xt27H1m7fv3vRVl2oRQF/dHRPjRaA4AlDpuaczrlzEfv1rnjP0YOHPx0fYwXN5jbV61+5+ixo7capsW855G8Ryu+4gYJTwnYhtAwwK2qdtvWbd8fPWQQngrE/gG6kAXBr+UIcAROI8CJO18MHAGOwEVF4J+rD0//+5f5LxnuRulYeRGJe9TG0HGGOdPqkpiJrinI5XTMwRS8jl1i2A8ewQa3bVOt6hQZ3PuKpT+7ZdTjmUlk72YfzfjLh8u+2l5UMyBguYgBoqAwr/BvjulCwBBVx3WD6iZINoVWKUlHb7521MvhmprUz+bO/a3fpIrlToKgnAg6UZm0BjXoihVmVUDRVSRWrb8j1cGylhYoNuaY2oDbI8Qa/8iWBu5QKWR1a7V4xr0jr29OSPBC5nY5XFtUFWpXcHDvI/sK9t/hDwabiWi7KThVSKM5Akje8fsoiUfSjrF3LNiEUe2aqmpo1aLl9kH9Bkxr1Swjj2D1pnpsp3y+jLyc3BWVNdXdTNvZaGDiLRJiSYgk2uI6YPMgLDG3RZOmOSOGDX0wIylpf30Mdfu+fb/Ysn3b7/zBUDLmGOCmiEl3cFWxAkzOpgktS5HEJyQkbBozatQ1jRMSiupjfPwZHAGOwBkEOHHnq4EjwBG46Ahg5P3dL7NfMURPElb5dMhkRMqANoVo5Yi0IMbETDZgYoON1SeRtAkewGihqohghkOQKKkAmg+MQDEM63XlvF9MGfVAv0ZQes/bOdlr957Icqe3IEGdgkCsmCP+Tkl4nSUbIm92YVEow/InutSaYHVJGsqZiawIAUrBlD2gUwFMg4CqKKBYFhhoy8h03LFvHChqklEmYjsJm1iBlVWgtQ3wWH7IvDJj7syfXXVnQyTt0UWJdQP2nzo1ZceOHa8XFRZ1ExVZQKIeDIfA4/Ew68ho1J0lsBrosWkxC0OMumNE29QNu3nTposH9Ov7VPNGjfZe9AV/ng437tj1+PpNG38tSrIHizKhXh/HKWBpUlzKIjjWlrjJtSxI9iaU9u/d+5nuV175r/oY69HCwmFrNqx/q6ra180iaK8ps5MNZjoqCEyG5BTBclxmVFkumTRu3HUt0tNX18f4+DM4AhwBTtz5GuAIcATiiACSrQ82HH/y7a83vFJF1UQs5qJ4vEzzHjZ0x08cnWbqEvtE4s6Cp+g+4lgJ2gQ3BACiLYBkmyCSENBgJQzu1P7jO+8a8dJ7c3f8feWmHWNEd6pABZkVUIqZOOMGBBw3RUrRvUUCsAQQsaon6AAEJR0UTAGYdAUlLEAV5qkjMq6OCaTO19o0jMhGG0acnQdbjPUpbg/4fAFQXR5QkMRXFQaHd2+55LX7Rt2TTkhNbfq/3K855fN13bNz53P7Dx68WdcMt+J2Md17NOKO40d5BxJNPM3AiLYqK6cj70F/QO/UoeOszL7DXkhMJKX1Od/yYLDll198tcQmpAsmqapul+OOY0eSUwkwIo+Rboxqy4SYV7Zv/9fuQ4a82JSQQLzHGqC0eU7O8rcOHz42WVQViEp6cDzMbjNC3PE0g+nyJSkwoE+fx/t27vxuvMfG++cIcAS+iQCPuPMVwRHgCMQFgY2UymtXFT71wYKc50JUTfOkNILSGj9IisyioVikCSt7xtywYBEj3swY0qm6ehZxx6i+TTUQbQ0SwdQ6d+6ce7Ssqm1hRVU7UXDJSHhx8xBzO03cUaYhgw0KUFtwNg5YEImg3R9uLhw3HZQMCTYm66Ku33lq1Hv9XGOIEnYk66cJO9ss4FbA8TnXLIEVgqJhvw01xcKkwZ3mvnDb0Ht/LKQ9ig8me+49evT5w0eO3VVWXt5cVGS2npBMsuqebjfopgmmrjG3mXA4DAkeLyPFqH/3uj01vXv0erlf9y7o8R579a0LXDS4kV2xatVbewoO/hwkiWDEHZ1bBDsi84lsNJhuH/MubBuaNW26bkifgY82z0jZdIGPi+ny3PXrf7dn777pRBQk3JKin/5pqUyEwKNMBk8EcIxXtG03Z9KIrBtjehi/iSPAEYgZAU7cY4aO38gR4AicD4EDlKorVh2aPit7y7PFYSEdyRQm54mKG9Dv3RWx/DtfP9/7c+K4qDiVWVGOI2DAO6IhR+phQ9g2MZkONF+AEREpIdG0bZsZ8ElEABNt1GN6uCPVObNxYPVJQbAdrTUj1EjsCXUqobJrnUg785FBP0OUzmDRm/O4ynybuEeTGvHfPW4VAoEAzgbcKP+uLoQx/Tr9+5E7hk5rR0i9FPGJFb5Y78NiVrv2H7xt9969LxaXl3XEyDuSSVxXKFvCZjDZCWFk3ut2MwKPxa5MTYekxMQjmZnDpnVo0WR+ferdj5wszlycvWQuSEJj5vqDVpDstAgztJ2xMg97lKOYJnhcrpLBfQc806ND+1mxYnUh9+0+cODh9Zu2/CZkaEms1kIkQRW3nbjRxsg7FmJiPu+6AamJiRsmXTd1bBoh1RfyHH4tR4AjUDcEOHGvG378bo4AR+A8CCB5X5RX+MSsRSufDxg0FSPvSNpBQKFKbMWH8JFIjtERHqkw+sKfTdxVC2sLUbBEVNILoIguCOsm2KihABPcKLG4CHaMjJRH2jdlPxG/cfw56vgjun5MTMXNBo4dm4nuOheAwdlyGacDAyRRAFWRwKw8BRMHdP73U7cOfvhS+ZbX14eBUioWHDl+zeadO94oKS3tjmQSCTwSdJQfSYrCovDMIx2lSxFpEZJ3LRiCjIxGa8eOGX1jfXqRU0oTvlyy9NOi0pJJVBTZyQAmfaI/OhEjxbhwXaPFJfN0t4weXbu8NXLgwJmkHnzoiyoquufm5X9UVlXRA20h8VQANxKodZdFJ9KOGndW+MqywS1JJ0ZnDb+rVbNmOfX13vlzOAIcAfy/jzeOAEeAIxBnBLAQ0derDj3+8bKtz5WGIS3Rq4JFCYSt80ecf2hoDnFnNdqZVMbCSCDBdD8TkLizojGqDP6wBoroBYJkyTLApQgg6tpFIu5OcilG0NGeMtqw6qczOili2RjZaGBlU0Di7hQtxQ3H+Yh7VB7DrB4jf5iOG/cDWIBIMGiotJDcOHrAe49c1//xHztpP40xpfLeoycmb96y+VeVlZWdPF4vK26lGToj7ogRS1QFYLKZoN/PXGYwLULTNL1P925vZg0Y8Gp9VgDdun//Q3n5+W8SVXVjhB23rTgeJO64lbMsyr7HlYOuOC0aN83PzBz8aMvU1G1x/ohCTU1Neu76jbOPnTw+Kkrc8TPDKhNHK7xiISyWQyCAIgg1Q/r2ebprp07vxHtsvH+OAEfgDAKcuPPVwBHgCNQLAocpdX29tvSJD+eveN4X1FIkjxds0QVWxFkjlkGc0Ys7xEdnpMdmxB1bGOU0kgKWw9+YLMaliqAHA6Cizp65n8fakHbhHyTtJrLoSKIpWjIi9UKrRkyadX7N4kZCwCJUp6/F8eA15z91OJu8s74IAVmgoFADfIWH6c0Th7/zs2t7P/djlcf80BuilKq7Dx+7dseOHb8uKS1pLysKoN87Jq1itBgbSjwwSsw8+9HaUJYZWRYpLR0/8qobWjdvnhfrCrjQ+0prajp9/vXX2SHLasnciJglpIjCKsDNHtpFYlNwDroOXsVVOqBvv+k9OrT/ON6yHpQg5a3f/D+79u+eRonAKouxMUWSU9GxB08CmIOPIGICrdajU8fXBvfv/+sLxYFfzxHgCMSOACfusWPH7+QIcAQuEIFCSj1zVx15/IOFa58OiomN6lY51ClAhLpxLECEchQdNcJEACkS/A7ZBiQkeICgNIcl21FG8A0Tj/zVuiWnsiRUh7gjaWdJqOh0w+KlaPMnMVJOqHDGPYeYkesc4JwCVD8MYrQyKNPNR/TFTANt2yBaGijBcjppaO93bhnTd0bPFFJ5ga/jR3E5pdS17cDBe7Zs2fLLYCiULqkKy2dghB3zGzSNYYcVSqMReHRHMUIh6NS67ce9e3R7MCMjw1cfYFBKvfNzc98+cPTobUyPbzrFo1Cfz/TtxLFdRE25bZjoGqR169jhD1cNGvQGqQd3mS379j26cfPmX5o2TUYMkbg7m0YhUiDKIe4YcUf3pFZNmnw5YczoO+pjbPXxfvgzOAINAQFO3BvCW+Jj5Aj8iBBA8v7V+vJp73yx+DldTkozicioLsatf0g2wooNRZojS2EO08wfHokvWj8icUepjFNN1LmeokOjoYNsWaDIAmBBKM2yQXYngmFgrD92O0gn2h8h7lgRllCg6CLDZoOEB33EybeIuc0SaKMGkGKkciyTwmMCa2TcznxtlkDLCuGgrAL9tEXCPPBNLQxiqBImD+n+j0duHjizFSEVP6IlcsFTqamh6TsPbntxz959jwaCQUV2qUyjHdK0M1VVI5p35vWuaeDCaqC6Xj5lwoS7mjVrtvCCHxrDDegus62g4Pa81avfAoF48XwICXxIC4MgSSAIEtOUMw96ywbT0KBty9bZIwdlPpqU5Ip7MaY9R09OXrMu/2+GZbdEyVG0Qq1pOu5FUuRjyKQzlgWJqrr92okTxyfwQkwxrAZ+C0cgNgQ4cY8NN34XR4AjUAcEioqod/GhQ9P+Nn/Ds37iTUPfc0FSwAAJjNNkGEBEV5aIVjz6OIyuM504xYqsToJrNNnzTPDaYRjMHhI1xM7fHDIfTRiNyFzqMI1vJAkx4h1pjno5SuzPfoJTSdZp0WucEwPmSU8cTbxNcRNjgUtyKmkiucPIsYLkneoA/gq4eljvtx6+od9LLQkpr8scfiz3lvt8Xddv3PKn/QX7x6heL4u6Yx6FY6PprIzTOQJ4JoIbPJtC48bpC6aOm3AjISRUH1iU+3zdPv/qy681Q2+Ha57VIcAqut96OFsdNgVFlE9lDRvySKfWrb+I9/h8lGYsnPf17NKKyqtwIxEd03cqDRDKTrqSvYmHxowcMbZJSsqheI+N988R4Ag4CHDizlcCR4AjcEkQKCyknq8LKx5+74vsF/1hI1VJSISATkF2ecGIFKYxzajV9jcj7meIe+zJrZdk0t96KIl6yaPTDLqJML/3yGkB+rNrIfC4FFZhE91oXMQAf/Fx+7oxme/ee32fmR1I/RYSuhwwO9cY9hw8fNv6zZv+VOPzZ2DU3bTwFAT/mztDPZnkKJLZQCwbE1crhw0demuH5s2X1Mf8SilNXJu9+N+nikunOGdHDnFnPP3b6wNPhwQxMGhg/6d7d+z4j3iPj1KqzFu27N+Fp4puMvHcCHM1vmdTgbtm3BDLRKgcNnDw9K5Xtq+XCq/xnj/vnyPQEBDgxL0hvCU+Ro7AjxQBdJtZsObEY/9asu7ZkoCdkZycDEFNBw0lMJICBAltxEIxSt2Zx/Rp6tWwgUE/eQsoqyiLpB0j7wKhbM5I4iRXAvgDIVAEAl6ZQvjUQbhu9JB3b5/Q98VuCaSoYc/+4o++nNKkbWvWvrl3/4H7bIEQdGhBoo6e6Sg3YtIPEaVZmKeKBZBs9rVdm7ZzJ47Iup0QEr74o/pmj5RSaf32rXds2bb9LRBE1/mIu0DB6tql8z/7du7/YlISKYvn+FDKk7tuzd8PHDxyf9g0RFGUzkncRQqhHt16vDm0T6+X4jku3jdHgCNwBgFO3Plq4AhwBC4pAkjev1xf9vDHC1e+5AubqXJCGpT5Q+D2JDhkC0yQqcEsF5HcYgIf2ig6WnZW2/GSjj/mhxMbJIomkhQMcAoHyWA4CnmUeWDBIKKCiHpizQ+CvwQmD+n23l2TB7/Y1UtOxfzcH/mNRwtL+23YuumdwlOnemNlVeZHHinKxDzdI8QdcwdkPOVA7TYhRZMnXTu2aVrizvqA52DRidFLlyz7DAQx5XzEHasLN2/WJHvo4MEPN05OLoj3+Dbt3XXnju27/+oLBZPOR9wlIHbrVq1mTczKujfe4+L9cwQ4Ag4CnLjzlcAR4AhccgTQKnLBqoNP/2vhhqerqTvV402AoG6ALchMTIDEHQk8SpVtIoERKVzE3NIZeW/4DefC6kNFDCYx8RaIDETzgStYAuP7d571wO2Zz7YnpLjhzzZ+M8Co8ebde59fv3njS4ZluyUk78KZJF9H8x4h7NSpBKprYWNg/4EvD+zZ7TfxG9mZnsuDwZaLFi360BcMZp2LuGPyMjUtSEzwHhkxeOjP27Rsuize4ztQeGzcurWb3qsO+JufTypjmxY0TktfM/Kaq8f9VOoHxBt/3j9H4HwIcOJ+PoT4zzkCHIF6QQAj7/9ZfvjpObmbXqjWiccSVQBJZcmcTEIScYBh9VKRuJOonWLDJe5RPXt0fkgoWSknojiRYDDArDgJkwd2nPXIHcM5aa/lSjxaXt514/r1/1dUXDoUK1UhOWdabdtZK1HyjsmfGNEWBQKJiYlbrpkycnwiSSyt5WNivgxtIRfn5v75yIkT92Dd1B/SuGPFV8sw8WQgMGTg4Gd7drryHUJIpCpBzI8/540ny8szV+Ss/KDSX3Pl+SLuOLbUhKQd48aMmsoTVOPzPnivHIFvI8CJO18THAGOwGWDAEbel606+Mxb89bOND0ZbhOtEAm6x2CFUmzfJOnn8kC/bCb1AwNB0h51xGEnCqhrFyQUBoFhE5BsHdzhsvDYPu1m3z956FNdkrh7TG3fKUbdN+za/cr2nTtm6Kap2kjOsYAQcZxlUPMuCWjGSEDXdXCrCtimVTlsaOaD3dq3/09tnxPrdVjsaPOeXY9t2Lz1DRuI51zEHaPatq7r/Xv3fXFIv95/JoREM7Zjffw57ysN13RaumjFJxU11b0FwcHsuy3i32RTSPYkFFx1VdbdLdPT18RlQLxTjgBH4BsIcOLOFwRHgCNwWSGwi1JlwfJDMz9dsvYJS0lIQVkMEnfUfLNGbEZyWa3UWlQdvawmd9ZgoraPGGOXwKkYhfNkQWHLtN1GjTCiS5NPp9971YNXEFJ9uc7jch3XieLKXrn5uf8KhIM9Dd1kFVVR747adjPii4+FmPSwxiRKsijZrVs2/7+xw7MeJeQsb884TfBEUdHgednZc20gTc9F3KllgxYK2n27935nxJABMwghVXEaEusWNxWfL1r0UUVV1Y2GhUWYzkHcTQuSEhILBw3pf1vH5q1XxnNcvG+OAEcg8l8gB4IjwBHgCFxuCKDzxt9X7J/5/uLNz+qeNG8oHCay28M070EtDB5FBsPQWIGiy7k5VSedKO/3Nfw5Wl+iT7tuWKAoLqB6ACRfMYzuc+WnL9419BcZhNRLVc/LGcdYxoZraN32bb/Zum3bdEGSRSTr+Iclp0oSi7QjcUe5DNgWIEFOTPDsmnz9DVnJ9VDQqrSqqv9Xixf/JxjW2oqyc6JkWE4lVaz6iuMklLJx4dlMamLSmjGjR92bkZQU90JMS1ev/svRY8ce0E0Ljea/h7zTiJSLgFt1VfTu1fOBXh07zonlPfF7OAIcgQtDgEfcLwwvfjVHgCNQTwig3OF3yw69Mmf5+qd9puglqhd0IgImG4YCQfB63U5Z+AbcbMsAICKIqgcMXQfB0EDWquDqQR3nPn3zwLt5wl/dXm7BsWO3rF639k/BkNbEZn7ueL5BgYhO5B015KzhMYdtg9vlKhmVlXVf22bN5tftyee/u7Iy1HbJqmWfFZeX98OTANThI3HHTRyODVu0CBOeMCUmJOwbk5V1V7NGjTacv/e6XbFs9do/Hjp6+EHLtF0oVftu1N3ZiKKMR5GkUM9u3f42pHfvZ+r2VH43R4AjUBsEOHGvDUr8Go4AR+CSIEApJX9YvO3VOasPPFcDHkUQBMG0LRAVN4QNx/28ITeFRdoNoFQEF5airDxJx/bv+NUjdwy9tV09eIo3ZOxqM/ZKSlNWZWd/fvxk4UiQRJAkGTRDB0CLTSTtkWRVCbXcFq4nQevetfNfMvv1e7Y2/dflGvSc35i/+o19BQWPElEQMMIejbjjCQ0m0uLGghXUpTaosnIya/iwW65s0SK/Ls+tzb2rNm5+eW/B/ucM3fRiAasfIu4suZdSvXPHK98bNTjzodr0za/hCHAE6oYAJ+51w4/fzRHgCNQDAm8s2PXavNU7Z4ZtQdJBAsXtgZCmgyA6/ueXa4tKZKKSme+M07RAVSQwdR1cRk1wdK92S5+8fcgdTQkJXK5zamjjWr1l05s7d+193LQtUZQV0E0DKFZPRfKOUhSWqCoydxmgNjRu1Hj21AljsRiTE/aOU6OUqmt37nxww6bNvxUkUUWJTBhPXTBpNmJficSdOeLg6QCFwJDMgY/2vKLjrHhr8Lfs3vfI5h1bf6lrRsq5iDviZpum0bZN648mZo3gXu5xWiu8W47A2Qhw4s7XA0eAI3DZI4CR998u3PbaJ8u3PSYkN0nVw35WWdUArD16+erckRT+EGnHX75uWQKtusL0kjAZ0qX1sqfvHTG1FSGhy/6FNKAB7jtycNKGTVveq/b7GuOasdD3HwmnU6uW+aSLAoAIBKhtgVtxHbhu6uTJSS7XvnhOk1KqbN2//+e5+av/V1YVN0bcNcNxesSKr7h20PUGyTsSdzCtcP9+vV4Z2IM5y8S1wuveQ0fvzN+w9ve6ZjRGqQwwmdHZzTnpEomAxN1u06LFV5NGjbqVEKLFEzPeN0eAI8ALMPE1wBHgCDQQBFDz/sf8UzM+XpD7vC3ISRoGSCU3WOBUxmwI7ewkVZHaoIAJQqAcBnRsvfTlB0dPbU5IsCHMoyGNsdhf2Ss/b82HRaUl3ZgXkUhAFCQwLBNkUXG07tRJWgUT/00qHT1m1NS2TZqsjuc8KaXijgOHblmWl/t/ikv14rPQpjJK3FmRKJaY6mjwbd3Qe/bo+mbWgEG/JIT44zm2gsLCqctzcv5imXbLcxF3lPHg2Fo0bbJwythxN8d7XPGcM++bI9BQEOAR94bypvg4OQIcAYbAn1cUvPT2VytnqI1aJwR1/bKOuEcrdEZf3dnEHX3a5UClObBzi+XPPTDmZm75GJ8Fjqc1i3NyPj5aeOIW0wawMLp+FnFnkW3MmxBF9EtHLXm4Z/eur/Xv2TOuVVRxXHuPHbtm6YqcDyVFTkQnGXS7YTwdV7UgMMcbjLYjebd1w+japdPf+gzJfCUtzvagxeU1mfOXLXpfC+sdvo+4o8Qo2nBsTRqlL546fsKNnLjHZw3zXjkCZyPAiTtfDxwBjkCDQgAj7/9YVzrj7blLXtDV5ESTyFhr1CE3TrzydMEmR2wAIFCsR4o/da5gyXYXwwM+avfN+hJYsShs+Dz2NWoHaWOCn83kD2y+qm5FAAAgAElEQVSstmV7rBD0aZOc/eyDE27qQEhNg3oJDWywS1et+sOR40cfNywqIClmUhmWmIpiGQIULKZzN7Qw2hvSti1avzdmxND74z3Ng4UlwxYtX/qZKAhNwroGqqqyFYqnAbjpQylKlLhbhmF16dzx7QFDhs5MIaQynmMr8fubLl269KsaX2DA9xN39ilyPm2EQEZKWvYNkyZMindV13jOmffNEWgoCHDi3lDeFB8nR4AjcBoBRt5X7H7p/by9z1VTtwc0P1FlAURFBc0ACNkKgKQABYkRdokaINs6CGAxAm1hySOBgGDXQR+PpD1afd5WwT5dJMoGkZpMfiGYNsiyCoZFwAATLGJAgkTBqqkID+vSJvv5+666u02cSRhfNgA7Dxx8Mn/tml9SIG6MuEeTPwlq3DF6zIp6OSRUEghkpDb6/LqJ426IN3bFVVXtc/PyPyyrLB+MTjeYNItWleh8g7aQGHHHFYoRbtS6pyYnLhk5cvR9jTyek/EcW3V19ZULViybVeULDGZbUIGVO3M2o2w8zveoxcfE6kYpqesmTpk8Md4binjOmffNEWgoCHDi3lDeFB8nR4Aj8A0EsMLqfxbvfXF+/rZpNqWptiCCL2yCOykdDBurraLFH4BIUcOMVn/o+U5ZtN0iSOcFEOriJsmIe8R4xEZ3G6zuCmATmz1LxMJKVABJUqDCF4Tk1CQglt+AQLnYv33zxdN/MfrObvVQ6IcvG4BDhYXjVq7K/5emG00M22IVVBlhp04SKIksBCSk+G1aSnLeTddcPTbeyZbo5Z6dv2JWWXnZMIoZshj9RzKMBZhkifmk4/hEHCOlkJKYsH/0VSNvaJqWtjOe77UyFGq7aPHif1f5fENxTRNMQj3rgWLktIqIAIamQ0pK8t5JoyZe1yhJ3RvPcfG+OQIcAZ6cytcAR4Aj0IAROEyp64vsnTNmr9jyhE/wpoI7BWrCOihEBME2wEXQLcQp0mQSCXRBBYsIIIDJvLHrRNxReEOQ6KGtIHIupDYWoBgD2DMFILYEoqRCUDNZxN9DA9C9WdKXr02bdG+7OJeub8Cv9aIPvaSk+spla3Lm1/gCHXULteQii67TiLYpStxZFVVWQdW7f9LECWPSPZ7jF30wZ3VYHgy2ys1d+V5xScnoKHHHQlGYMItjZBp3psF3CkQleT37Ro0Ze2vL1NSt8RyX3+9vumD58o/Lq6uvqg1xT/R69k4YNeHGZumJu+I5Lt43R4AjwIk7XwMcAY5AA0fgAKXq1zmHX/r3kjWPV1qupIRGTe2Qr0pQiQUKNSPadxEMIoMuuFi0HVXNdSfvjq4dG24CgJiRCLzNovoY0SdEZNVdExQFQuWFMLx72zm/vn/kfelc016vq66kurrDipV5n1dUVnU3ccMWqVRqRw5MBBGcCDwSZdMCr8ddMHbk+GtaZCTF1RKyNBBolp+/5h+FhScnE1kCHAISZTYWIVJ8CbXu6DdvWeB1uw6MuWrkrS0yMjbHE8Campr0Rbk5n5ZXVY8+H3E3dQMSvJ79Y0ePviXeG4p4zpn3zRFoKAhwqUxDeVN8nBwBjsAPIoCR99nZu2d8lrvjCZ8tpWIxG3QJIZaJCnfABFbUuyOdtonAou74PdOhRxJJY4E3KhlAeQxq51l5eNaz5ETgTR1UW7PlQBmM6dfli4fvGHEfd4+JBem63VMaCDRfsSL367Ly8r7slASj2SicOiviziQz+PIsGzxu95EJY0ZNaZqWtqNuTz733X6/v8nytWv/evz4iesFRWZmLSY43v8siRY17oLAVi4S9wSXcmjMyNG3NM/I2BjPcVVV0dTs/AWflFZUjDsXcccjK5Tz4IZi9MiRd7Ru1GhDPMfF++YIcAR4xJ2vAY4AR+BHggCS97l5J577fPmqh6t00ghkr4Q6dyTRUXcZESUHmJxK8N/wF2DsxN1xq3HAswSHtKNm2ukbNe82yHYQUoRAcFiHxp9Pv23E9JaElP9I4G5Q06iupmmLVy2cX1paNpggaRfIaY07m0jE8Qc9iLCCqsftOjb2qjE3NM9IiStB9vlo45Ubcv58+MiRm0RVEXBFGriZxMqpuKH8FnH3upSjo0aNublVo0br4/kCKilNWbZgwaelFRVjLYL7iO/XuGOaN2523KpSMH7EmHtbNEnLj+e4eN8cAY4AJ+58DXAEOAI/IgQwYXVe9u43ZmVvfNJMaCEGQMX4Kka9QbYdrfsZPXrU0C52ABhXjySpslI5VAZKVTCJyiL5kl0FfVsnLPjlz4ffwTXtseNc1zvLKU3KWbRoQVFx6VABJSmYoIw6cuL4pn+HuLvUo6OzRt3asmn62ro++1z3+3w0Y+WG3D8dPnL4lihx120L8MTIxCRa3EicLZVxKUfHjBh5R4smTeJKkBGvFQsXfFJaXjHeIuhq+sPEHcfodqkHR2WNurdN47RV8cSL980R4Ahw4s7XAEeAI/AjQuA4pe5/Ldz6649W7JgW9jYRNDGBxdVdlgYyNRhpdyiI45GBspm6GMuwKHvEFpIlqdoOcbfA7ZTR0cohs0vz7JnX972tUxIp+xFB3aCmghHkFYuWzDtVXMyIO8pQ0Mc9StwxOZX9PRJxdynK0ZEjR9we7+qpjLhvyv3joYOHbpVcKiPIGlZ0lWXm5R4l7picapsmJLCTgJG3x5u4l1KauHLh/E9KyisnnI+4o/+9S5EPjczKuqdN48acuDeoTwYfbENEgGvcG+Jb42PmCHAEvoPALkoTvlpaMHPeqk2/qDCEFNuVIFmAXu6OnhkT/FQ7zGz1bCahQd/ss03uLgxURyuP0Vu0mtRAsk1Q0CQcbSGpm9lREskCGiwNjenWesG0uwY/3IGQ0gt7Cr/6YiBQQ2n64oULvy4rqxiCUhkWzUbfdNuJaFu2waLc1MLSqjYkJHiPj8zMurFVs/hKUlDjnrth01+PHDl8HUiiIAji6eRU3FxEveWjrjJel3pkwpixtzVNj+9JQAWlycsWzP+krKISpTLiD0Xc8fODY/S6XQVZQ4fe1a5p07ieUFyMtcD74Ag0dAQ4cW/ob5CPnyPAEYAiSr0fZ+999tPlG58MSN4konjBsBzLEEbQWSEmYHIZ1LVjcqpT2qbuxN15gs6KPKkov6D4BJTLSKCjJ3fYZyZYITK0a5tFz9+c+UBrLynkr6x+EUDbxexly+eWlVf0w4h7lLhHCzBh5VQk8NHkVK/XfWTcyPFXN0tP3B3PkWLEPXdj7t+OHT16PRUFFnF3kkGx0i4uTyc5FYk7c5VxqQfHjhyFyamb4jkuR1q04NOSMpacek6pDGKW4HEXjBg27J54n1DEc868b45AQ0GAE/eG8qb4ODkCHIHvRQCTUucsLXhhzvK10wOCO8mQXHbQpILX6wVqhCPFa1DPTsAiCksixYJMTMoSsXOMDVr0b8eovVN0Ce0lZdtgUhwkM7g5MBQPGBbbNlCjoohkdWy+9OVHRt3djpCi2J7J74oFgTKfr8uSZctmV1RWdxcV2Un8xFMYQXa07qKjeUfZByanej3uPTdMnDDO4/GciOV5tb0H/dKXrV37t5MnTk6losCSQM8m7ngCgMQdT4ssw4DkBO++q4Zn3dyqSZPttX1GLNehtGj5woWflJSXY8T9vMQ9EYn78JE/4xr3WNDm93AELgwBTtwvDC9+NUeAI3AZIYCkff6y/c99unTNkzWCJ0VKTGMFmIjsAlPTQRWxABNGwR2SjraQKHERqBN5rwtxx1+eou34uJtYEh4rprIKrQZuEdhGwVTc4AtaoLiTQLF08AbKoUuGmvvbZ6bc2JxwzXt9LaXjJSUdclflf11d4+uExB3fPLN/xNVhWSArIui6DqqsMOKekOBdeduUyeMJIeF4jrG8PNhq+dqc98vKykZhASaUyqCrDLazpTJI3FHjnpGWujtr6LCbm6Wnx7XQkePjnvtJeVUV+rj/oKsM2irh5iLB494/asSIu1s1arQunnjxvjkCHAGenMrXAEeAI9BAEdhIqZy9+NALc1fkPWmClCInpkKxXwPJ5QVFdoGmaSCj7IBZPjpUiLnAAIAhOMWT6uLhjn0pluMLj7IYJr9hiaoOecfnBcMmpKU3hlMlVZDodkGiYJtSoFTo2SJl1ZOPX311N0L8DRT+BjXsfYePTV27ccPb/kCgEUpl0A4Sk1HRvhO/KqrE1gsSd9S4p6elzLth4sTrCSH4IuPWqqrC7RfmLp1VU1OdGfVLR+Ie9XEXcU1ReroAU+sWLeYMHjLk8QyvN65yq/JgsOWSpYv/XVXjH1GrAkwe995xY8bc3iI1dUvcwOIdcwQ4AgwBHnHnC4EjwBFocAggac9Zsu/l2Tkbn9FlrwvJl47l6tVEsFH+oBugyDIQE505nAgmEnik7Sht0QWMuqJkBr3YY9O5s4h75F5KFUbcMTcVI+9AdEa2UO/uUj0Q0HUnoksouAUToKZcy+zebvmT94+6tQOvohr39bd5++6XNu/c9qKmGy4QhdM+7lGNuyQL7P3IooTE3W7duuUnk0aMuDfexL0iFGq9cOHiWcFQMAttIFEqg8Qdi4dFI+5R4g62bXVo3/79wcOGzUiKcz2A6urqDvOWZX9QEwgOOV8BJqycmuj17J48YcKNjRIT98T9ZfIHcAR+4ghw4v4TXwB8+hyBhoYAkvb1y/f998fzV0yrklM9QnIj8Pv9IKoukCQFNMMCt+KGYMAHLlEEEUzmJMNi7uggguSIRdzrRtxZlVSCOndMekXy7+iTowQe/121Kdi6BqKEz6UgyIRJM4gJNMGshv4tpNz/euzWq5sTEmxo76EhjXfVug1/3n1g/yOWTUVm4RkpwITEnW3qBAqmaTLiTmyqde3a5e2sfn2nxXuOhWW+Louy539umlZnp/CSI5WJEneUoZyOuNu22bnDFbMG9ej1XFJSUlytRauqqq6Yv3zZrPMRdzxhwjGmJCetu3bKlMmJ3DUp3kuG988R4BF3vgY4AhyBhoMApVT83cLdry/IyX8qKHpcITkZgjYBT0IiaIYBRthgHtiM7KAbh2WdJu6s6E6EuCO5doh7VEZz4RggAcR+sCeUzLCEVCFC3Fn/Avt3CSwAaoIt2GBJEhimBarqBQhUQopVbHdu7Mn99ZN3T2nMZTMX/hJqcQelVFqWv/r9Q0eO3MHyDvCURHBsIKN2kLhe0FkGk1MlAuUD+/S/v2fnDl/Wovs6XXL0ZPHYeUsW/keQxGSKhZaYf7vjcIPONyiVISidoQC2qRtdOnR6p09m5gtphFTX6cHnuRldeJYsWTS7yhcYzM6jMIcjcg+ubOa+w4qP4SoHSE9Ly75pwoQJhBDHyok3jgBHIG4I8Ih73KDlHXMEOAIXEwEkYL9fsu+VuSs2Tg+JngRNUIEKItOssygqaw4hZ9+dpWuP2j5Gk1Gj1zvXxN6i/aDkBlu0O9S9R8fgSHQc2sMcaKJjZB7YJqimH/q1SFn+9EMTr+Wa99jfxQ/dWVpV2n9ZTv571T5/d8B8BCTCAm6nKBAiAqUWyBjpNjWwTQtSk5NODs/MvKFd06ZxTbTE9bzrwKGbluXlvO12ebw4HlwfSNyZpzylIAnktITHCAX1Pn16/7Fz3/5vZBDiu/hInemxoiLUemHuojk+f7C/c7J05mdR0h6VnYFN7cYZGYtvHD/+FhLnccVzzrxvjkBDQYAT94bypvg4OQI/YQQw0v7mwp2vfbVq82NhNTW5ImiBmpTCtOx18WK/lJBaggAhSsBNDDMhWCL0a5uW89pDkydz2czFfSsHjxyZlLd+3bshTW+C0iYkoRQLcNkOgWcEGbdcFN2HABITvXvHjxp1XaOkpL0XdyTf7I1Sqmzbe+DBlWtW/Y+sutxM084i7RGpDKvkSpm0SkECH9bCgwYOeHVgj15/irfbTUFh4dS8/Pw/amG9zdnE/WzSjrMhmC9gU7NZk4wvrh099k5CiBZPzHjfHAGOAE9O5WuAI8ARuMwRQNL+3/N3v754zfYZYZDEgAUgySpQUQKbnomwX+bT+N7hmSZ6iZugigbQmqLggCuarPztI9fdks4TVi/a61y9adObO3ftmWYLIFmYjCyJYGGRLCTuouMqI9oAkkiYu2HjRo0+unbcmHviLfuglKrrtm5/eMPWzb8RZUVl5qSCABbaVBJnfGIktIbuSKZuBIZnDXu4e7srPySkDiV/a4Hslt37Htm4bfMrlmk3/nbEnRH2SM4IkxxR0Nu0bvXhpOFZ99Wia34JR4AjUEcEeMS9jgDy2zkCHIH4IYBygt8s2P76l6v3PBUQPLIgKwJKCRRJgHA4DIKk1smLPX4jP3/PLEcS68nLaCdpgkiDIAUqaJ82GQt+88i1t8VbDnH+ETb8K6ooTV2xeNHnhaeKr5IU1I/bp4k7RtqReGJ1UhGwyhBFPXmwe+eufxrWv+/MeM++glYkb1q551d7D+1/SJQVIUrcmfdRhBijvp053dgmCEQ8OXb0iJvbNmmxOt5jy9+6/aVdu3c+Y9o0GZ91tlTmbOKOhawEIKHunTt+MGLAoIfjPS7eP0eAI8Aj7nwNcAQ4ApcpAoy0L9zz6ty8zU+GiMcDLi8ENB0UlwrU0ECRZCYrQC/uhtgc4k6ZE47P1EBWCEh2GIRgOVzVtdXXT1477u52qaSqIc7tchnz4ZMnb1mZv+oPgWC4mayi45DpOMoQ8XRUG8cqi4Tp20UCReNGjr27fYsmS+M9h6qqqnZLcvPmFJWX9pFV12lyjBF3VhyK4KbCYsTdMjRITkzaM2pU1l3NUzI2xXtsORs2/H7//v0PmRQ85yLu7FRAFKsH9O79Rv9u3f433uPi/XMEOAKcuPM1wBHgCFyGCBygVJ2/bO+MDxevf4YmN02o9IcJUVVQFAVCoQDIElaZJEDQxqWBNlYMSrfZRiRsEwjrIVA8EriwWGflCRjdq+MXj18/5qH2CaS4gU7xkg4bJVb5mzf+etfuPdNtILKAjj6WFZHIyKeJu4TOQISCbZiQlpq8afTkySPr47TjRElJ74XZy+aFdK2FLCuMuCNpxxYhxIy4o9ONoYWgXatWS4cOHfBAqjv1SDyBpZSSxXl5/zhy7NhdNhDXuYg7SntkUTwxdOiguzu3bLsinuPifXMEOAIOAlwqw1cCR4AjcFkhcJhS19xVp575eNHq6aaopPtNNEr3AJFEoEaYlafHpMJAIMAqXdbVGebSTV4ARVKZB73L5WIEviJQDS63BIa/3Egyg/LwDi2/eviO8Q919ZJTl26cDfPJx4uKeqzZsOnfpRVlPR1fdMfWUDfN064tuO3Dn6EXOVi20bVz579nDej3NCHEjOesKaXC3kMHJuWsWvuhLZAk9G9HqQyOESPtmJCK48LkVAEIEnejd49erw/r1+/3hJBQPMfm8/kaL8rNm1NaUTYM0LXpe1kCyooc7BRJOjZqZNb9bRo1yY7nuHjfHAGOACfufA1wBDgClxkChZR6vs47PP29JVv+q9RQXKqqOoQGiQ26bKAOmThSAmaZZzZk22hMjHQ8sd2KCr6wH0SPBwxLB0UWgQRrQPWVGRMHdfvyprGZT/TNIHEtc3+ZLYU6DQej7Vt27355w9atz2mG4cK1gr7okqI69oqyzAouSSxiLDF3IlEgJcOGDX2oa9u2c+v08FrcTCl1rd+6+fmN23fOFCRJjura0cudJahaFvuKEXck7mY4pGVmDnmjX5du/xtvR5niioqeS1bkzKry+3qKovSDxB2nKQFBydr+cePG3toiNXVLLabOL+EIcATqiACPuNcRQH47R4AjcHEQKKLUOzvn6JMfLVj5fIC4FeJJlTXq2PeJVGcPMQSF2T8qtgZYEsYG9HFvwHIZ1Odj9ckIhDaRmGYfCRwBA1yCDoFTBXDT6AGz7rsh8+kOvDJlrRZbmc/XJXfV6neLiosHgyg4enGBnJaiYCciOrdgMSxJZrFuj+peN37CuOsyvN64n26UlpYmbt+35839h4/ej3s3PAnAFi1yFJ0kRtxxY0cNPTA8c+hTPTp2/Ge83W4OFRZmrd+w6e2SyvKOEmLzAxF3HKNgU0jweDdNvf66ibxqaq2WJr+II1BnBDhxrzOEvAOOAEegrgiUUpr48bL90z7L2f6kD1yNABM2wwaIqocRW5GajNxaBGN8SNwd/3YLC+g0YOKOlVtP2+1RrJKJxF1kFVmpYIFFNHALGoXKE+SagT1n/fzq4c9cmUhK6or3j/l+Sqm8fufOmdt27JhhWLY7StpxzmcnfiJxx+RgZMa2aRndu3X9a9aAAU/WBzaVlZVtFqzInl0TCA+MSni+TdydCqUUqGVBotd78KrMzPtaN2++Mt7j23XkyMQtm7e8Ux3wNycR3/vvPtPZUEiCQNNTU+fdMHHilHiPi/fPEeAIOAhw4s5XAkeAI3BJEaigNPm9FYcfn704/6kQuFOIKwn8YQPcXg/YllPPBQm7QDG+brAS8FghFcvXY4XSOhY/vXRzZxsSR+qDMwOKc0S6hmcJBCw0FVcIaLoPRN0PLq0Gpgzo+sGDk4c/3y6BFF26gV/eTz5ZWtV3eV7uexXVlT1REoMRYyTvKK+K2iziDFCCgpVJTd1AuUzh1RPGTWmeEX/HFnz20eKTY7/86us5ssub+H3EPXqGhMTd0DRo26b14hH9BzyakpJyMN7or9m25ZWdO/fMMKjtRorgVPv9ZoueBIiEhNu2avPW+Kxh9bLhiffcef8cgYaAACfuDeEt8TFyBH6kCBykNHnekt3TP1+9+/GykJAmebxgUkyIQ/03elc7tNxJ0XMkMthMIoON9S7jW4cmvqgTRs/ZMwRbdBTDKJNBIo8OIwKAQSjzeZdFAczqEtsVKBOmDu3zz3snDXmRu8189/VQSr2rtmz71fbt2x8RXYqEeRFRsv5t0o5JzSISd9O0WrVq+cnVI0feXx+VP7Hw0oYd255dvW7Nf6muBOVcxB01+OFgUO/Vo9s7fQcMejmJkPJ4LkrMDVian//+/oKCWwVJklCy5Wwsv5+4CwBVvbr3/P2Q3j3fiOe4eN8cAY7AGQQ4ceergSPAEbgkCBymNGVe7uFpH81b/kxYTkwirhSoCobAm5DEIu26YQFVPCzSLlENJGoyBxmMspuggiUI7GffpRWXZDoX/lCCMhlMPgSQLDFC2h1Nv8V+hraAArjcbvBrIZDAANkIUDVYTif17f7ez6YOm8llM2dgR6eW3QWHb9i4fcsf/MFQC1GWwDIpw5HYzgYQN38Yfcd1xNxbTAM12kVDMwffeUXLlssu/CVe+B3VlKblLFn4eWFx0QhgG1DH7eb7Gsp5wLZrBvTvP71f587vXfjTLuwOSqkyP2f5J0eOHp8qKQo5bU/5A8RdFsWiEUOGPdaxbas5F/YkfjVHgCMQKwKcuMeKHL+PI8ARiBkBFmlfuu/xOXlbn6mhcpJNBdBBAFFxgwUoDwiBy+sBzURCY4PL1hjpYombgBpwhRGyhkzcnai6zUikYp3RLUYj7uyUgcigWyaAJINlaZCgCGAHqsCtB2BMv67v3jFl0Mwe3OedrcNT5eXd1m/Y/NbRwuPDPAmJEAgFQZAUFnGPWoY6rkSEEXn8z8/UdeuK9ld8Nv6q4ffG260l+mEprqzsNX/R/C8Ny2xj0zM2ld/3YUKZTFpKyokhgwY92qFFi69i/sDV8sZiv79J3src2UUlpVmiHNlUnCPi7nG59k4YM2ZS05SUw7V8BL+MI8ARqCMCnLjXEUB+O0eAI3BhCCBpX55z8LHZS1Y+edxyp0spjUD31YDb7QYQJPAHg+BJSgZdD4OAfoksSQ/LriN1l5g6Gcm8Q8a+fYh/YWO5lFfjyQFq9x2Fu8707iKzGEFpkJOgalABRAkjxzqzjDQNlArZoLpdduXhXcLPR3V775asATM6NEssvZRzudTPRsK5a+eOXx88ePhOzTJlxeWCQCgEsqw6VUiRqGOknURIfETv7naphZlDBt/eoVWr3PqYA54KbN6x4+6NWzf9PxCI93zEPRQIQKeOHRcM6tNneuPk5APxHmPBsWNT12xY/6eqGl9rSVFOf7p+SCqTnJi4ZcqUKRMSCU+Yjve74f1zBKIIcOLO1wJHgCNQbwggaV+4/OC0r5evnl6qQ7rmzYAQJeASKAjEBkO3mG0fusqgPlkGpw4OElmmaY84yCCFZ9F21LhTgclnsEUjqyw6jw7wkd9wzJ0DpRERu0V0qXEI8sVpzvMd6Q4bW0S7jn9zxnz2GJ2xnSHuACKE2T3SaVt6Ef/G5EA2pSCjYsIyQCASmIRC0KKQ7gZqH99K7pk04r2JIwY/0y2ZVFyc2TSsXtBGtHD/3mmbN22eGQiFE91eL2iGAVgplVInKfUbEXfbSVKltmW0adXyg0mjRj1BCAnWx6wppYlfLln0bnFJ6Q0gEGLi8mXJs9+VyuBmVde10IA+/d7M7N3zV/Uxxu379j22aeuWN4JhLVlQZLBtpyjUt1skOdXOSE394sZJk+6qj7HVx/vhz+AINAQEOHFvCG+Jj5Ej8CNAYC+lidl5J578eOmqp0oDNNnbqBkEdcfWkRGrsxJNkfoyIh6lDcxtxdG3OwTdIe1IyFEfbBCURBCQTOaDASLRAC8lEoFwOAgeRYaAZkJYSQZFcYEc8IFLBEB3+LqQd4tYIAoqWLYI1CbglgQgdhCIGQBBImCgtSPIYIEbKDstQKZmAgqDmH87kb81n+iLjrrlIOGPSoLOLAIk9OiuIxETwqXHjVtHDvzw7uv7PtuJkLIfwVKp9RQw0XP1jm23Hyw49LqmaS01w2REGCUyuPEjRATDMMDtVkEPhbEQKKuSim4zCR737vFXXXV3RkrKplo/sI4XFvp8XeZ+/nk2CEJz3KCyd4sFl5DBR+wf8WRAwoqlpgWyJBUPH5I5vVO71p/U8dHnvZ1SKq1ct+H3ew8eeNQGIrLqAvjZMk0A+o8AACAASURBVAxW7Mz5ADrjFAQCIoVAn+7dXx3Yq9f/nrdzfgFHgCNw0RDgxP2iQck74ghwBH4IAayIOi/vyBOz5uc955MTUqg7DSqDYXDL0QTTGLBD4mthhB7JrYoldZjURLBNEInOwu9BLLDjcQEN1QCRVQgKSWAYFjSSCIT81SC6kVDH3qhIGSEXiApG2GRnArJggCSEIaiFQFFdYGEiLfU6xJ05yWC0P3h604EnBrE03MToVADZDtlK1QnhmkHdPn7ijuFPNPuJFGlCv/bNBfuuO3Dw4G8ryirbIOE1o9IqEXMCLBBFGSi1GImXUJpkG+BCyZFpVvXr1fuFgd27vkMIcY516qFt3L3vkfz1a/5HluQErEzANpeCALj/xAg7JqOyEwKLssqujVLTtg/uP/Chti2brIn38Hw+X0bu2vVzD584NpSIEhDRKQTGKs7iRgIlR/iHOc2wU6Cy4YOGPNHliis+ivfYeP8cAY7AGQQ4ceergSPAEYgrAocpdX29svCJOcvyZ1QG7VRQ3aALIhBFgogSJrbno/OKbTGZAQGVSWaA6KgOB8k2mbTGRxQQFRlEy+cIbYgbq8iDqQXAm5AAYYzQxvZ0Fi3FqKke1iBB9QKxsTKnAJqhgeqVwaY6ENNxjbGpGpH74BgtECEEhFpAyRn5TyzDkAQVCNVAsIO2XX1KyOrW9ouZv5j0i+Y/8sg7kvaDp05cs27D5t9UVld3REmHoihgMeUUcRxjLItFs6OknQK+C4KRbKtNuzazB/Tt+1TjhIR688OnlCZ8vmjxf04UnZqg4OYBVx6ydSTCEc29LDiRbVszcNxW5w5XfjioV8+nk5KS4n6ScujkybGr169/p6q6unWUuJ9dsArHxURfiKlpgldVCiaOHXdjk9TUbbGsXX4PR4AjEBsCnLjHhhu/iyPAEagFArsoVdbkFz7+7qJVM8rDpFFKcjqEdA0skSnQnRpwMUacT0tlgDDijv0R5k1jgWhRsAQJAsQNsiqBECgBK+wHSXRDUkojqKyuAsXjYUQv1obEHS0Hw6EAeAWZma8TxQs1IQ2IKgMRbJBtTDpFKRBWRMVkVDFC3J0kU0xLjbXyK/7ylqgIhFAwwADBDoAaqoIhndrMfeLn4+7tQEhNrHO7nO+jlLp3HTgwdeee3f9d5fNfoZsmiKIEgiSyTdnZxB3ngfjIIi44yuQnHrdr11VZox5s0yQtvz7neazs1ICFC5d9aQJtxuwfMdIe+RRQ22YbDVVSGJe3DRMUWa4e2K/fy706d/xzfYxz0+4dz27ZsvNVk1APngBYFKVcZygCOwnAcy1RRDceaJyauvLmyZPH15cbT31gwJ/BEWgICHDi3hDeEh8jR6ABIoBR0f/LOzx9dvbGGYVBkk68iez4X1VlsKjFvkfCFStxxyRQkZ3aO+ITRtJYYigSeMexhbiTIFhdDgl6mTmob7c1Rwsr2xWWVjYTPQmigewk1k1D5H3YgiPBEE2DJdaqCWmgUWAJt0jMJWqAjNKdSHCVFZZiWn70f8StBoquY5PK4BNUIkIgGAZbldAxEtyiZduVGHlv9flz946/sxUhoQa4dH5wyJiIenLXnnsPFBTMKC4taaW63OxaJOuIZpS4M/04ymZsC1RVZdVHEWWZCDUD+/d7pnfnzv+qj2JL0YlQSknO+vUv796790VRlmW22ZBlFnHH5GN8l0jcFZT2WCgBMyEtJXXLkMFDH2vbJH11vN8hFl5asSb/r3v3H3xAUGSCJxhI3KP+8tHiVcyMFSVHhmF2uKLdR+OHj7gn3mPj/XMEOALfRIATd74iOAIcgYuOACa6/XnF/mfn5mx6ocpQEk3RC1TEEkIYZbacKqiixIhWrA1/eWE0GxtWGEXKLmL0HW0jWUIn+nRblhAoF68e1O2TKZP7vP7PLza/k791zxBXYhohosgK9MTciBMlxWguEnOUYVg2gZBhgkFEUD1uFuFFC0IZEyUjCbWOT7vjchMraXc2KQCozvYmJkBlIIysFCxbA4UGwaNV+Id2bLXshZ9NuL15PTmmxIxjLW8sqqpqt+9AwYvHThyfGgqF0pFM2pajuWbFqtiGTTxN4lHbjtFrSSCMDGuhgN69a9d/DR46/IWkepYSlQWDLRYuXLAoGNa643sP6zpLkMV1YKF7EjrgmBaIRGTRdizo2rZ12w8H9x4+PTWVVNUSopgvqwqH26/MW/nPY8dPXkVkiaWEY2T9dAEmzBHAEwKWN4CnF3Z15sCBD/Xq1CnuSbMxT4rfyBH4kSLAifuP9MXyaXEELhUCGL37S37hi+9/tXxGgLg9sprASIk7wQs+U2NSmdSkZAgFgoxox9qYVASDqmAB1mmyMYGOqKiIYM4tihkCyV8K4/t1nXP/tYMflBLBP+NvOSv2lvqHYMGnsG4yb/SYG7FBRuLFIr0i24hYYX/g/7P3HvBZVnf7+Pfc69nZgQwSNmFvkCFOhorWXUddBdSKuBD3at/27dvx79u3tdX+2mqH1VZtnVVURGUFCEuQvQNJyJ7Puuf5f77nPE8SrUIIyZMEzu2HTzDPPc59nTvhOt/7+l5Xr7TkOtMy0qpqG9zgScGaPMgY/ENRGGMCRdtLogJW3/F7cavCkx8HNjUS9ubC6/aA7lhgyxR0IwSZfg2M8iPOeUP6vv3s9y66IZHV5ZO/j+Mfgc/T/vLys/fv3/9g8eEjs6Om4ULSy4OUCHdlwTmglJFKTuJjK0KUx9gWeDUXJCX5P7xwxrmL0wOBnR09xhOdb+3mz+/5/IttP5FVxYsNtEiI+YKDssWfW9W4Jh+XtHw+q8aNG/vEuIKCP5zo3B3x+aGjx85bVbT2+aZg01Bc0CJxRztNHBPbkLgrChsbEnhFkssuuWTmFdnJGRs64vriHAIBgUDbEWj/v5ptv4bYUyAgEDhDEECS9dtP9jz21483PxjWklOI4mEuLgqSa8tikg5sFtXDIdTwArHb/yuI9YYymYnDEkgdSQULI+Sxum2EwGvUwcxh+e989/Jz7x6TTkoOUtr76d8XLl1fXDWOaCpIsgwUTWnaWXTnUh3UAcsQ1Cm4JAp9kt0l1152wWNGU13KG+8u/XG94wnokofJdlDNjsQdN0PCVEoppn9vr9Aek1Vldj4bm2wVAFuWAb+lR8KQqhLLF6lXRmQFPnjkvsuvGEwICut71FYVCmXv2bPvsf0H918Rjkb7EIJu/9yHHTd8x4JSJYtio7LDHFpQioR/lxWJPXOaLIHs0KMXz5q5IK9X9seEtPIdTQAajbQx/b23P/ustqFuZJwMY7gRkmKicLtF9vaJVdxx1UEhPTVtxfnnzvheRlLS7gQMEYq27/yvoqL1SyRF9qB/u2Vh43Srn03HAU1BGY/FFhxuzVX4rWuunptKOv9tQCLuX1xDINCTEGj/v5o96S7FWAUCAoFORwB1vM+u2P/Y3z9a82g9TQrIriRGoFDuzRxYYlSLeZkTM0aYT0UuIgFRVObP7fO4IWqbECESqGCCL1ILU/v3fvfJmy+8K89LSvHSR8M097GX1ry98XD1BPBoTMMr4X9OezXmPGjJkRQw0NVGD0G+z65/YN7lV16aBSv+vO7Iw39659OHg1JSWlhyA1VcQK0wIz6yJwkikQhoEuGe9O3e+MIlji/3ikf3exSNmCDbIXDptXDusD7v3nfb7G/3JyTa7ksl8MDGxsb00traOZ9v3bYwokcn6FHDjfcYtyhE+TqmoeKNuzUNLGoxAsx6f2OEE78gcfd53eXjR45ZMrag4DVCCF85JXBbVbRx4f5DB38S0aMBE6VVuGCVJUbc2VsXRta5rAftFlVZiQwZPOj/nTNp0sOJGG8lpf6Nn3z2YnHJ0WsRUtmtMSyZzWqs0o7adpQbYeVdAhIpGDzwL+dPnXZXAmEUlxIICARiCAjiLh4FgYBA4JQRQNL+60/2PP7KJ0VLDHdqStiQQVHcrEKH0hAMDMINfdZZGyGJi9vbT9zRx9y0uBZXpSgzcIC6CERqj2Gl/YPH558/rx8hx+I3tydMc//7pcK3Nhyqmij5VEASJSPRbWdzKJ4X9esOJWDKLlDMEGQrTdV3f/uSm64ZlvzhPkpdn644uPj1z4qeKQnLkpacoTrUAt20AYOCkpOTQcdQoFMg7hzL2MKIoic+3g9KHSSwZRtkxQYnUmsHrAZy3rABb//ilguvJwRN7rvnFg6H+5TWVk07eOjwgkOHDk9UXe5UbOS0kTSiVr25Coz3CuDWPNDYVM8DlfxeiEajYJoG12c7Jvg93ooxo4Y/Ma5g5Etdcd+NjY0ZHxeu/bikrHSM5nY321TiohHHiMQdN5RMMTcZw4S01ORdE8dPuH9wfv5HiZilw9XVF6xfu+75qprqIZhQhU5J7GcDJTP45gLHaZrsLYeKjdiyXDF16qTbRvQf9EEixieuIRAQCHwZAUHcxRMhEBAInDICP/tg1+Nvrdr8TKPs08JUYYEtXL/Okz/5hvaIyNwpoELGIaTd1W52NiKB4vZBFLXyjg5JGoFQXal59ugBn93/7QtvGeEnX/LoRuL+w5cK39xcXDlJcUtg2lji1E6NuEsK6JYJNpHARwzI0yIVd1514a1XDEv/EMeI5H3Zp/vufWX5xmfqicsneQIQDOtMW4/VYNRnt3tjYU58AcTdaRQgbBHCfXVsCS0xHbCdCHjAAG+0KTguO2n1E/deeWV3qrxTSrWGhobcQxUVlxw+ePhbVTXVkyzHTmXNw+iwgpV21LOjJpzJrTERlWvbqUXBpfEKsWUZzMsd755bK8qVEyaOf3rM4KF/7iqN//pt2xdv3b7t+8GmUMCfnMQs2w18Xmw7lkYaC1zCOUT5j2XqgwcPemXmtLMXJspmceu+ffO3bPn8f8PRSBISd8QbNfgM3/hXfJtBCHtD5PP5ds6aNXtmps/XvChu9zMsDhQICAROGgFB3E8aMnGAQEAgEEcAK+2/Wb7nydc+2/Rkte0C2Z+q6bbDtNtMw4sJjPj6nTVhcqLJiAGgo0b79eWcuAMYJgW/WwXJCgM0VcGUgrzl99006+bhvpZKe3ysSNz/62+Fb2wuLp/sUhWwHAoO0drto87PiwsTCUzqgMsMweAUWnnP1RfOmzUw+b1WGCm/WX1kyV/e++SxCHEneZIyoKkJNf4u5q/TTok9s5PEMCfciMOJO9f8c2xsCVjTrqRg6JAJXtBBqT9mzRjS553/u3PujV1FZuO4VIVCObWVlTMOHy2+uqqqekI4ovdyHMePFV8kjpjYiVwWCWScuGNjJ0vwjBF5RtxdLtCjYXZat6ZCJBSEQCDp2Jgxw/9rXMHIF7ui0o5jKQ2H8z5btuyj2vr6ocxnXsLFotl8P3gfzJGUUtbwiY2fSX7fgckTJj5U0K/fm4n4LVNLafLnRUW/2LN373fZwLDR17bZAgkxjqelovaeu8pYkX79+v5q9tnnPJ0IGU8iMBDXEAj0NAQEce9pMybGKxDoJgggaf/Vx/ueePXDlQ+F3ElJsj8dGuqaQHO5gCoYl452ctz5xWXzYCRsHLSYC4iHEWZ0YD9ZqUi8MZH5oNsOeBQH5GgtjMpNW/Xkom9dM4iQyq+DCIn7919Z+8bm4srJHlbNxUWExqrl7d0khwJRNTCR1IRqYUDAqbz/utnzLmpF3PHclFLpuTWHnnhl6ScPBk0lyZ2URUI66uOxZbV9G3rIo+QIF0aqLbNqO/OJZ9b2XPcuyy4wTJPp//1uGbxgWLS2VJk9asib3/vuBTd2ZeW9tqlp5IeffPx8VVXtREVR3Krm4nMS82BnenYktzF5TDwAqDVaSPA5qZSZ5p06tpOaHNg1bNjwn4wcNOj1rlycFH7++VNbt21/1AbqxcUFVtpRxoN/x40nu8q8gRYdXEzTHDxw4KuTpk+/J1FNn0fKKmcUbi56vvxYxQjN427W3sf921Fzz7IXVJX54FuGXjt16lmPjCsY/sf2PbXiKIGAQOBUERDE/VQRFMcLBM5ABJCIvrCyePFflq58yvSmBmrCEaJ6/KBICjQFw6zBTVI07GVj8hgMIWISBmwYRGJG3VwCcZLEvZm0Mx9zlEM44ASrYWxe8ron5l91TUGsEfWbiPsPXi16c8OB8kneGHF3MPCGUZKT3/CXp4ZkhgJEsfE02gCDkuDYA9dcNO+iQe7/0P+ytxMrvnjynx+teyAkZaQGLRUkF16/fRuvqnM7SQ3znGKn4T7xKJ/B5kIJJPTllmQIBushze8GSQ+CHKyjs8YPfeOWb02/Y0QyqW3fCE79qFWbtvx07/69dxu66SMKX0zFGzexABxv2+XVaV6ZjjefomRGN03wYgIuarBN0+jbJ7dw3MhRP+iTlbWKkOZGilMf6EmeYX9p6bTC9etf0qPGAJRSYaorvweuGWfhUKyqHXO+kSTwuFxl4yeMfWDUgMGvneTl2r37ll17l2z54vPvN4XCPpQZYR8Bs4CMNabigsIwDPCoKnMu0lT58EUzZ12bk5m5sd0XFQcKBAQCp4SAIO6nBJ84WCBw5iGA4Up/Xn3w3pfe/vjJeldmsq56JGKjPzmw6rNN0FucV8O5a0ocIyRiCieULD2Iy2eYy0wbt9bEHV1TFAhZQzLdm34474qrhvpI2fFOwyruf9/w1oYDVRM9qgIY0IMyl/YSZ5T/uCUHwroNEVcyOFYEhiTZZQ9fP2ferHyVady/bnuhcP9Dv3lz3Y+klDwaMSKu9l4fx25hOizaUoIBqmM3Y42ad/YmQXGBbhjgcqusMh8JNqHLCoSjEeo16sklw9P/ufCqS+/om0Lq2jgFHbrbgWPVk9ZvWv9ibW3tyLjNY9wqEX3DsdobJ+rxijvrC2Be6A6XYqHeHWiwb17+h+OGDXsmOz19R4cO8iRPhpao73+68u3DR4rnIhmOmgYj7vH7wNPZNqYGI4Hns68SYg3o3/+d8QUF301PT288yUu2a3dKqXd54bqfHzh88C7sGmAnkQhrTGXe+LFwMVxkaJIElmHSvD45H1164cwrEqW/b9eNiYMEAqc5AoK4n+YTLG5PINCRCGykVN28+ug9byxd/l91tuYLuVIBw+R9MkbMmxBybFBUDSRJAWpYjKajihvJPLMqRNcTpOoSJ+yc1KP2nW9xEouktOXzVnfA3GN4mJGLhkL9Mz27n7n38itHEXL0RPe5L0z7PPPy2jeLDtRORCLLrhzzAz/RsV/3ORJ3xTHAojJYvnSINNXBAL9R9vjNV8yblU++kbjjuX69+thDf3l3xY9MLaDhGwi2fKDkG2U7HA++8V4BXlE3JY6nDFGQqR1z7eHNqsw9Hyun2GCISa2WyVxYMKjJIDL4SJR6ag/YsyYMfePOy2Z9ryvIOy4Cl64p/HVpaek83TRcrKquaazKy4kuupjwxlQk63HNNUtNjTmeqJpWOmzIkBeGDBr0fC+//0sNye2Z11M95nBZxdVLl330vCTLmYZtMTKMBJ7lGKCdIqtmc1tI/J4qKyiVKZ48YcJDIwYMeP1Ur9/W4ytra89eUbjudyUVx0a43R62EIpr25krD2rdY+PD9FnbtIITRo96ZNLYsc8TgstAsQkEBAJdgYAg7l2BurimQKAHInCIUvdHayrueuWDFf9TGtTBk9bLZcVcHfkvkpg1YUx6gqS8+fvNcpQvy1I4EQOQY6oGrBLzhk0JiETBo0rQWN8A/qQAGFGdEXa37IDLicCANNfa73/vqmuPJ49pDTMS9x+8vPrNzYfrJoCikPZKZOLn5AFQXEtuEw2kaBD6B5zSe268ZP7F/d3HJe54jhdWH378t++sedj2piVTI4Qm5WCrbjApJ6vxtwuYjhp/S8Ex5dIj3DDYiTf5MmNzhmWM3scWQfztxlf7CLg9pwOaKkGk/KB13Yxxf51/zeTFAwlpSPSjWYwE8rPPXoroRr+ooYPH7YOmcAjcbjeTWuGbEbbAwzc0wBc5/LlxzLTklJ3Dhw376YjBg98mhPAO1S7csOF2xYoVL9c1NJwXNbDSrjCNPtezc5lP3E1IU2SIRkKQ5PNbacmpb18+e/bNhJBIIoaPsq1te/fOX7dx4y8cIEmxn15mI8r7Cpj5E7hUGaLhCPi9HrCiRunlc+ZelJWVtj0RYxTXEAgIBL4eAUHcxZMhEBAInBCBo5R63l95dOHLH6x6OCh5etneFGjEACFFPenm0tYX4/aFPDKI67LRcYb/WkKSo+sRSPJ7wbYoSNRito9SpB6G5qRtfvJ737pquIcUn3DwsR0wgOnJl1a+tfFI3QSqaAQXCe1NTf3qNfE+JKMRBgRIyT03zl0wqw3EnXnfrz72+Mvvf/aoboHfm5IK1U0RIIqLBUsxr2/EhMHRsuDBxQuz1YxZYra39Ink3SAqeGXT0aqLpbmTh794x8XTliS68l5Hacqy9z94o7au5nyUvlg2BQX7I7AfQsfKO7cmxJhbB/XikoTuK8dSAkmfTZ445ue9Unttaesz0Jn7UUpdK4uKHjt0tPjBqGH5sRkV7RW/avnZbGeJ70UoJpJKR2bMmLFocG7fdztzfK3PXREM9t68acuvDxcXf5v93MUsN5G48x9IwheBjgUyyslsi+b0zn5j2uyZt/UiJJiocYrrCAQEAv+JgCDu4qkQCAgEjotAOaW+1z47suj1j1c8WhN1Uog7CWxJAwXtDLGRrZ0b/vLhnipIIGXOF6jFKspYVWXUFEOcQEJ7a3CDaXuNOrkgN6Xo3lsvmzsxiVSfzKW7G3HHsSN5f271kUde/nDDow1UScYqc0S3ANx+iBg6qCgTQQLPegHiFJ1X4DmZb3t/wNdiJUtgRSOg2BHwGEG4dPKwP9x+/bRH80hiG1a37Nv3na1bt/7S0M3MsB4FVeVuOAG/n3m043OGz4qsSMH05NSdQ4cN+u/h/Qd93B2q7HFc9xUfvHblmrXP6pbZGxuz0c4yLgKLe6LH5T3ohGOhdEmRoznZvf9xybkX3k4I4a9RErDtPHz4yrVr1z2nG2YWuvi0Ju5f0uLjz53mAj0SDs6YMv2RccMLnkvA8MQlBAICgeMgIIi7eDwEAgKBb0QASftbq8sWvbT0s4eqTUgPpKZD2DCBII1CWXY7HVnwgnHijhV2lHwgLVUous9wHTv+zSI8XCegAZDGChjfN23do/dcdlkBOTnSjteLEfc3YxV3qasr7nHQsW/gk0+PPvTmp+seb4zYXi0pjQTRqobwhkZ03lEpYo66EW75aBLuhsMWOe1MXuX9wTa7hur2gBWsAzl4zL7ynAm/m3/1Wc/0IaQmUT8aDZSmLf/wozdLSkrP8fp8TCIDsgSNdfUsEdXtdgc9btfe/Py8fw0ZPPiv6V5vSaLG1pbrVNRXDFy1Zv3fq6prJ2GTLXNUQkkPSr9iKaTM6pLSWEgUMCecFJ9v2/nnnHNdTkbG7rZcpyP2qaE0aeu6oh/t3LVzkaJqJF5xx3M3V9xjF2K+Pg4Fr6rtu2jOrNnZqamHO2IM4hwCAYFA+xEQxL392IkjBQKnNQKVlPpfX3V44b+Wb3y8PColS74ksGwDFJcKto2e1Dao2BwZk7u0Dwz+ap5pltFzJqZdQZ8UCxssHQCv6gCtPhqdNix3y0PfmXPFoMDX+7Sf6PqMuP9t5Rsbi+smUkXrNsQ9dv/qH9YcXvKnpRufqNSJL5CUBBhkhQsapmmnJnsbwcgVUTqMuMsOBjSpELIscKsSONF6RwlVSpdOG/3cwm+f/XQiyfumXTvu3Fi06ceSoqTpKJGRJKy4N6qquicvt8+bg0cOe7W3233wRPOc6M8xxGhr0bpf7dy16zsut1cxLKvZe57IsQbUWCMqoTwx1bFsUGSpccSQIb+cNn78DxLZ7FlWVTVh5Zq1f6ipqx2HjeRI3HGRwYk7/1mMC7NQCheJRPThBUOenTl16lPCTSbRT5e4nkDgPxEQxF08FQIBgcB/ILCDUv+nq/bd9c9PNj5eZ7pSDMkPVNbAojo6l7PETiQg1CYgOe3zQY+njmLzoYz69WadLasxcwLhmFRqqiLnjchduejGC6//ukTUtk5fK+KOGne5u1Tc4+OnlGrPrT22+OUP1jxcH6WpxOVjxB03xEdiv62xAbil4s4lNO2TyzAfeskNwUgYiKawhFVFAdDrqyBAg3DJlNHPfW/mWU/lJcjnPRQK5Xz46aq/V1ZXjPH5/DVer/fwoMGD387MzH07J9XT5l6Gtj4PHbEfpVTdsmfPXZs3b3rKpk6GjZoTFiDF011B4paWcVcZrGCz5k/bgd6ZGWsvPO+869K93hM6InXEWGMLRK1oxxeLNm/6/IcgES8+S+z7MSYQf5Lwu/FGZ0KdqpnnXrBgUF7Ou4lcYHTUPYvzCARONwQEcT/dZlTcj0DgFBHYTWngo/Wld7z+0ZpHKkJ2puxKBtsi4Pb6mCd11AhBINWLlThQQW03cece6lixt0GlaCpJwZHQB14BwwaQbR3c4UqYWpD96eKbZ990Ip/2E912ZxJ3XIRIeiP0C5CSRTfOXdAWV5mvGy9z7ik89OCL/97wQFgNpMftKuMEvsWFL75Yah9p59eWwLElZktoWiFQ3S5W5XeoBUmaDMGje2HB3HOfO2/MyKfP6pMY2czWrV/cFdL1/Jzs3qvS+vQpSmqHJOpEz0FHfr738OG5W77Y/quqqqqBbq8HwlEdFE1lzdQYKIWadvzjwmZjdJYh3MbS7/FWjB498uHxBQV/7cjxnOhcZdXVw9Zt2Pj/SsuOzcCEY4tyJ6jWunY8R5y0YzNwTlbW6hkzZlyX6fMdNyfhRNcWnwsEBAIdg4Ag7h2DoziLQOC0QIDLYw4sfOWTzQ+Wh6GXJ5AMhgWgYJXXNEHWVJDRQjAaBEWRgFD5lIg76riRuEuOyciDI7l4RdIyHZfZIE3pl/zJklsvuqWtlo/Hm4REEPe+AXL0vhvmzp8zwL2svQ8EkvelRRWL//TWJw+ZCcO+2AAAIABJREFUsjfFIioLWsKFDidYXNfOvdxPZePWm/jmBGyDeafLXj+TTURCYcjwyhA5uhvuuGb2b66aNfyp/oTUn8rV2nIspdRHCAm1Zd+u3qc2GBy9unD9rw+XFJ+L6a3haJTZPyKeummzgCXckKirkgy2ZbDPZCCR3lm9X7ns/PMWJVJ6gm8Hth88OL9w3bqfmYYVwIUaNtB+3YbEndlu2nbD2JGjfzxl/NhfEkLMrsZcXF8gIBBoSckWWAgEBAJnOAIoj/ms8MDC15cVPVoSlFPdSb1irjFcjoGhSVz9ii4n3H8dPaqPp3GPu2nEI+tbV/bwex6PB6pq6yA5ORUMkzdKKtQANVgJUwqylj1006z5g7wnDldqy9TFiXvRoZoJkssjm+gf3xz91JYz/Oc+LAGWuePIrOKe76NHF1130YJLBvs/at8Z+VFov/nBmkMPvLh004NB2ZdmYYMjunvYAPh3n0sDx7Gavd5bX6t1uuxXK6n/MSbCG155wFNMNsF09CjPQW29DlZtiXnD7LP+OO/ScU8m2m3mVDDszGMbGqKDirYWPX2w+Mj1NiEszYvJTRiWLVfGBS9Lf0V/GWwClmRITgqsPWvqlPn9MjJ2deYYv3rumnA4b+Wq1b8rr6i8BN8GoN0oPisyvnHRdb6Ac/g4LUzbdbkgORBYd/4559zSKzl5XyLHKq4lEBAIfDMCouIung6BgECAEcWl64rvevn9lY/VWu4M6kqDsIGv+HlzJBBsuLNjYT5I6jhT4XKXb95ORCINXYdAUgqEdK4DxiAio+qoM2fCwGULrzl/0Yhksr+jpqcVcR8vuTxKJxH30kXXX3z7JYN8S0913GWUet8qLL/n78sKH64OWWmuQCoLZ0LMbQOJFg/L+bot/v3jEncMbAKbkU2bcc8WX3vU/zv4OSHggig41Qfh2+dPfuGOKyY/mtPN5SunivuJjg9Rmr2+sPCpg4eKv2tR6rZbtXh81ZUFF4aObTJSjLaeiiSXXnjehXf2y85870TX6cjPsdq+ec+e6774YsezTeFQisSIO/fHxzcCmqJANBoFD8pncKGBz5VDIyNHDf/RjPETf0EIweYWsQkEBALdAAFB3LvBJIghCAS6EgFsiny+sOzO15ateqo8TDOp5gegCsiqFkuoRNGrFZNn8Ffr2NSGtO9EdpDxsJmvVtrxHKwCqapgGBZIqgZ2uBHkYAXMHD/k/e/OnXL/uF7uDq3ydSZxlzCASW+Evn7oMOKOGOGC6t1P9z7w8qfbF9c5WrqqKhDVDdC8PghFdXApXI7xTeT9xMSdqx8odaEZJz8NugQRdLTBx0ACPRqEJMmySX2ZPPeskX+968Zz7+9LSF1XPrNdde0gBhft3PXo3v37bw9Fwj7V5f5KY+eXG7Udy2A+6Fh5N/RocNSIkT+fPmHcDxPd5FlRXz9g1Zq1f66srp7BknTR7QbzAWSZSeC8bg3C4TC4NS1G2m3QVPXwrPMvuDG3V691iR5vV82vuK5AoCcgIIh7T5glMUaBQCchsINSbWNR2Z1/Xbr2sZKgle1O7g0Gvj4Hm1feYsFIWGFHrxcZ0ysx0ZJgHE7b3GRak0ck8vGNadptGzRZAtPQAZqq4MKx/d6/4/KZi8dkkj0dfctI3J96aeW/1h9mUpkOrbh3FnFHDCorqf/VvaUPvLa86N7SmsaMQFomS+Q07bh0qZ1IxSvujKzjAgDTSZUWIorzDBRUVQbbjIDHMcATqYELRg9++Z6bzrkjh5BwO6/cIw/DhNcdGzc/vnX7FwslRfahnt2KJ9g231HLzwRb2qIcCxdAthPN65P75jmTJt0XCASqEgkAVts3bt9586atW561HOrFaju+GcCfxXhjKgv5IgQ17aBIEvaY6AUDBz0/cvr0pzMJaUrkeMW1BAICgeMjIIi7eEIEAmcoApRS5Q9FJXe9+v6KJ8ubpF5KciboloTcDSiNAiXorY6v+CXQ0OWFNUTarBJrYrMdFmaxie04Wpmvq7Qj3DxYCI91gFhRoI2VcP74gvfnX3pup5B2vGZnEnckvUq04yvu8UezitLAK5/uuf/1lbuW1BiQ5HUhcaeAjattXUB93WOOfQsSLtRic4j++ej0E9dpK8QBExsYJRkU3M8IgRatg/NG5/9p0a0zF/YnJHom/Pggad+++fMlO3fvvNdynAAumVD+Yjlf//DH6bsqKxAJBWlGStrGi2bPvC09ENiZaLyw2r5ixcpXKmprzlI0F8tGiIcuoaQK78M2DSaXQeKOwVBJHk/xOeeee2v/7OwViR6vuJ5AQCAgiLt4BgQCAoGvIICk/YW1h+7/x7Kix6t1kmoRL1BV46FHFJseuS6XNa85Eigoc4+dA//RN7EqhzZyFInf8eH9qs6dkXaC/u82gBkBu6kaZk4a8e/vXDztwbMyyd7OmqzOJu4olenvg9JF1158+yUFp65x/yoO6Pjzyupj9//j4zUPNYX1JElzgyO7WSBTezZOzuPNxphWi23HXP7Em1UBK6+s9wDtObFC61ElMIPVNF2j0Wkj+v7ruuunzZt4mruNYNLozs2fP7xr1857o5YZcHncYNgWw0OKvZH6Kv5xH3RTj0JaStqRKZMm3DM4P/+d9szTqRyDMrhte/bMX71m7S8kTfEQWQPdtpi2nfvNO/zv+LMY07rroaBeMHjQn6eec94TSQlMzz2V+xTHCgTOJARExf1Mmm1xrwIBnoyo/AVJ+79XPH044gooKRlA7SjImgwRE328AfxJadBYXw9uhTRX1VmVjlVjeUNqvGJ+ogCg1o4yjCTELPIkW2eV9pmTR71zw5wpD07r1XGNqF830T2duOM9ofPPx6sOPfCP5Z/fFyTudKz4ItE+oXvM1wASd5Lhc2kBN4eMBTqhZAadclQ3mBGTfd/vdYNhhJk2GjQFrOpi46qR2W/8ZP6lt5yuVoFVVVWBI+XlD27Y8vliy7EDqscNEUMHzeWONXF+/a+UOHF3qcrRsaPH/mj80CEvEEK+3nuxE38rVVRUDCjcsvmfJaXHxuGCA9+omCy0SwJJxmRi3uOAC3BsSMU/AY+7eOrks+4clJe3jBC0HRKbQEAg0J0QEMS9O82GGItAIAEI/H7tkcX/evejx2p0OcNKzoMmk4ImG0AdAwg2pBIJwhEb/F4vUDPKm9WwEkuAJ3lSqbn6jlIXXqdldDxWreXNq8xvHD/Bd/P4Sp5IMRcLC2xLB8moh/NGDvz3d6+Ycf/EFHKgs2+9s4g7LkywF6CzK+5xfNBt5u+rSh98eemKJabqTkIy5mBjKVZQId6sGneIic/Nl9Ftkddw+0LK+BnafMbJe0z3TlwgEQWIbYFuREBSJQBNg7BNICAZRmr9IW360Lx//uT2S6/vCmLamc8MpTR57aZNj27fuXuRTahf0TSI6FEWrATYnB2zTuTEt2UkcdIuAa0dNXL0L4eNGfVsGiENnTnWrzs3Vtu37tr1wKo1a59R3JqHyAobM2Yn4OIr/uYLQ73Q/tHjcUO4sSlaMHjgC9PPOe/73T38KtF4iusJBLoLAoK4d5eZEOMQCHQyApRS8pu15Q/+44PVj9dHzFTZE2AaabT+k8BqvjqTUKCzCNOgIyvhXt+MmsfkFXF5DCMsBAkfNrpRMInMzmdJeE4HNDzIMMCruMGM6iBjpx4YjhmtkyYPy/3wse/MWjjETQ528q2z07ci7hM7ysfdxqWKhBVvGSBSD/39ULLouovv6Ag7yONhgm4z76/dt+Qv769c0giqH2SvZODKSvaywCy36maNv0yXznoTeOEUCTt3BIrNLxhsTnFBhvOGG+4vU6zAYwWWS2fw8/gxzK+ckXwHNGpZ0FRDzx8z8O1f3jr1tCHvlcFg1q6dux/dtXvXfArETyW+cOV3zjf8f9O2wO12M104jQUtWYYJHlWLZmVlvn7+BTMf9hNSnojn+6vXKKuqn7B8xSd/0k1zFDrHMDeZ+BuvViauLDtBkiEcbIJUf1LxrPPPvSO7V6+PRbW9K2ZNXFMgcGIEBHE/MUZiD4HAaYHAC2sPLP7DO4VPhpTkVFvSwJFkIN+QnNjWG443NbKAJkYAJda0Gq/ooo6d6ib4NDdoBMAxwqA3lsP0SSM+/N63z/7eOA853NZrnep+iSLud1930e1zB/k/ONXxnuh4TFh9t/DAkj+9s/xxovklU/K4DMkFIKOkxQKXorJKOSPhrCKMshqZEXcbK/RswdVC3ONzxur2FI/jZWRsUebEnmvpeaqmxebbBA1c1DDUhjKYOXbAu7+4dQaS95ZV4Iluoht+js2cO3bvfWTfgX03oQsLEts4aY8PF8k7WyepCpPMYFOnpqrI5MGIRs1+eXnLpo+f+kBmZlKn9WwcDzpMoF25YcOTe/cfXGzYlhbXsscD0Voyd0mzxt0yTLNgUMELU8aNejrRzjfd8DEQQxIIdFsEBHHvtlMjBiYQ6DgEnl1d9sCf//3xj23V5dYdJGFe0DxeFuRzIo36N42CEzxOAUwJz8mrtYwWMqs5CVR3gPmNI3EIIK+pKTanjuy/ZtG1M+eNSSGHOu4OT3ymziTuSGVJtIFV3BNF3PGO0c5z2Zq6+95dvvLxuqidYrl8EKVItCUgMm86RJLN7DwZEec2nkzfHvNr5/Pf0mQcr85zRONpql+2/sR98BomyOD1qI6q1wE0lDjnjer/z4W3Xnzb4B4a2FNSUTF14+db/ruk9NjZqktT7ZgE5qvV9uanTQLmg46kHRdHjmGaudk5heNGjljcLzd384mfys7ZY1dx8WVFRRt+H45Es/CtEFtwybwXgjeLx22EUOZFwLEs8Hm8B6ZPn3b/4Nzc94Rve+fMizirQKAjEBDEvSNQFOcQCHRjBH63+vCS3/97/Q8ims+lSo6sqC7QLRl0ywZVwl8B7es/Q/LGyAoBMCQUxTigUgsUx2ZEEfXWQZOCPyUZzGijbdSXyReM7rvqrhtm3jzeQ4oTDVlnEHe8d94Y2kLc773uotsvSkDFPY7fOkqTfvrTZYVHahv6G5rXaxAZHFUFC0k7WnZi4ynz4acgYdotE8Fg9Zzr27FPASvs8U9YNbmVVp73MLQQe96kjG9WJPbWxkHr0HB9OF2z3El2rXTJWcN/suRbcx5L9PyeyvUope69hw9cvmbd+p+FI9H8pJRUaAwGQZLwDUXLmb/6k0KxuwDdlyy0UbSs3N7Za8aPHf9Mv6yMNV315qGR0oyPln7wt8rqqjlo49ns1R4j7a2JO5O6OejhLkUG9B/wlyljpj4TCJDKU8FSHCsQEAh0LgKCuHcuvuLsAoEuReDZlUce+OuHa54KqymptuQCokd4xHkgAMFwCDRFPqGd4/FuIO73zWuzDiPt2IiKgT5oU2iivMKJgsupg9F5yYWP33bpDSM85EhXgJIY4k6O3nvd3DsuGuTudKkMYriRUrXws8ZHPlhZ+HBt1AgEKQHZF4BQs6Y5nnrLiTvzAqJc545fsfIeJ+4YuoUb0nRL4k3ITE7jOKBQ7izDPicKGBLvjaDEArdGwG3rNm04Jp03esA7t1458+6xXlLaFXPcnmsGKe29Y+vW277Ysf0+ClI2VqajEZ01oWLvQrzvlD/rX6buisT14SiPyUzPWDt5wvjv983KWt1VLjuUUmn9tm2PfLF9xxOWY/uQuGPTMm42pbFqO9c7yUCAMFN3Culp6esmTJj00MCcXqvbg6E4RiAgEEgcAoK4Jw5rcSWBQEIReKnw6KLn3l/985ArzR3STcB4dge/ygoE9RAkJSWBpRvtHlNc044n4JV2LLNzcohtqfi5KlMwm8phbN/ApsfvuOK6Ue7Od4/5phvqLOLOrycxV5kBfnLk3hvmLpgzwL2s3cC28UC09fzjqopFL7+34hlL0lJ0bCBV3RB2HLDQKx/NT9h0tGjc4278rOoeI+9xTTuXT3CZDerZsaouM5mNBaqjszo9I/VEA9TSM423EwUnUkdTZcceMyBnxeIbZt483EeOtfEWuny3vcXFs7bv2vl0dXX1eFVVvWivqZsmq7TbKPuK6fpbFqgtxJ35JlkW/rHy++SvHTdm1Pf79u69qqtIO4K579Ch89ZsKHrRcmh/vA985cKkMDELVtyHucmgjTuX9oDX7WkcOmjw/0ydMO43hJBgl0+KGIBAQCBwXAQEcRcPiEDgNEMA3WNe2Fh394tvf/LDepMkKR6fZJg6EFkGzeuHpqYmSPZ5IRqNMmu49m4olTAkienavZbJvtoU3UcUMGQZZGqCplfB6NykDQ/dftl1YzyJ1bR/9b4SQdz7+8nR+2+Yu2D2APdH7cW1Lcfto9S1tvDInf9c/fmS4vpIHigaOFQD1e2FhqYQuN1eXjtHq8pmxyBsTiXc/jGmXY/beOI143afSOodIrNjkbgrjgkKNRhxt9FKkKhgEDebb7dRTzNdDh2Zm778jusvuGWEv2scVNqCWet96urqUsqqqq5bt2HTDyOmnolyFyS5pmmBpMigKi6ImsZ/+OPjW6XmzUHHHmplpqWuGzt27PcH5Oau6Cp5DI6psbExffmata+VV1ZcIMkKoBMOyqUok3LxAC0WfMb0U5TZtMq2DTnZ2WsmjRt/X05m5qaTxVHsLxAQCCQeAUHcE4+5uKJAoFMReHnlrkX/b9m2Hx0z3JbX60+ORsOK24WUw4aQRUFzuUDSLZBk7vt9guDTbxwrEncLmyDBAY/Fq7oORQkF9wV30WC4IA12PXPXVdePcHduuFJbAG1F3CdJLo9kUmzVPLVfgS2VWF5xTwRx30qpb+OakoWvfvTpo2UmSQNfMtg2AVlSwdBtUFUXUBtAJpS5BnFHGXT9oYzEMVlzzGc/7hxjs+/zSnvcFrLFXcZmBJ6Re7YPimo0cDk6JOu1MDYv/d/33XrxvMEBUtWWeejKfSil8rHq6nG7d+364Z59+86VNJeHyhKTkLAKOzotEQI29gK08mnnY44bYrIQM0bae6WnFU6dOOmp7MxMlMe0r1mkAwChlKqri4qe2HPg4IMOUH84qoPHh9agVvPiI34/rEEVFyCmDX63q3bIwEE/mD5x4q87YBjiFAIBgUACEDi1f7USMEBxCYGAQKDtCGA8+89/+9oHnxzSR4V9vVwAkuo4FqgKBcMywZIVUFQVFBPDkpw2EffWqZzxFFRG4iTCqpPhcBQCbj/YFuXVXCtspShRJS/gfPHfd197+dAurrTH0fsqccd2zLgffdsR/vKeiSbu6N/+3spDd//z07UP1VpKr5CmgcXkHBLzXJcwHIvy8CVsEOYBWZx0sjmL/caPL9Y4jUcbT+42g1ae8Q3TNOM2gvGwHmzCdGkygGUCaarS5wztu/KuG8+7tV83l8fgW6hQKNRrz5EjN+zes3thQ0PDYFVVIWJaIKMjjMTJO8UJjRN5G5t7Y6m0Dl+44DLVti1wuVxGSiB5zYxpU36QlZKC8pguI+04rn1Hj573ySefvUpkqRdq9A3LZj+bEV0Hj8cDhmGAjG/BCDD7SnzDYOqGPmzgwFfGT5jwdLrXW9LenwFxnEBAIJBYBARxTyze4moCgU5HAMndD59f/q9NxdUXOJ4Ul07BMU1dwqAYdAFB+zqXLIGu6yArLCKp3ZtpGJAUSIG6pjC4vR4AKwIuswGG9VK3PXbblVeOTklMuFJbbqCnE3ec16Uriu96p3DDgyVBJ8fyBiBKbVY9R9IeT7Tl5J1rmFvcYI7PK/EczW9eCJfYMKKquaEpYoCiusE0dEhyyWA0VEOSYsL0YX0//d7l58wblpo4L/62zHPrfZCw1wEkVZeWnr17967bS4+VzXYIeBRZAxuJuaKwryxRlC1s5OaQIrbccRxwqTL7WVEkCQk76JFIuFdm5urp0yY9lZ2cUXSyY+ro/cvq6vpu3LD5hYqqigsxEArvCQk7jtXCRnRc3FkW+7l3a2rz/aYGkvZMGT/+ocF9+77b0WMS5xMICAQ6DwFB3DsPW3FmgUCXIYDhPM+9sPy1D3aXXWYHMnWLqi6sskWDTeD1uMBgVoESENZM2r5NQr2s5TDyb8oqWGYjaFYjDEiCL3686IbZ3U3v3JOJO2raV60qn/d24cYnDlQ35JruJKCq0iL0YU4xLfP4Jbef2BTHyTzuxdsVkay3lNhRCy9Tu1kTj82rOmgguQIQtQEUbFKNNkKGZtojsnwf33/znHlDfaSsfU9P5x6FhB0AAofLq8ftP7j/1uIjh7+lW1Y6OqwgicUmWyS0WGWPk3ZedecSGbbowedbBrR5BKzO4xsICUhV/wH9Xx81bNj/9k5JOdC5d3His6ON5bLCwhf37N5ztdvr0Uwb8xNienaZ96/gPeIs4wLFpaqs+g4AwTEjRvxpxoQJjxBCIie+kthDICAQ6C4ICOLeXWZCjEMg0MEIIHn/37+tfGPNnsqLg7IfTKpAkiZBMNgILl8SoFiGYoWuDdydez/HPcv5QFGKoaG8wrRAxygeGoKCTHXTjxZfc9lw0v2cRXoqcS+n1PfBuqr5/1xWuORo0MiTk1MhQoE1T7pbqfS5dp3LYXgD6pc35jbPgpj4V9x4Gio2GMcSVsFkAVr8MxnCtgyS5gOCfuCRICTTkD1xYMbS++edd+dQ0v1IO9ohNjRAcnl98diKysqr9x84eLVhmb1tSgmmnCITZxV2XLJgj4ZhMgkJa9jkluaMuGPvQ5y0u1RelXepStnQIQV/HDlu3K+TCKnp4B/Xkz4d6vU37Nx5y/YdO34WCoUyUPKDDejsjZrHw5rPcbGORB3fFqCbFPapWoZBM3v1Wj5j8uT7s9PTd5z0hcUBAgGBQJciIIh7l8IvLi4Q6FwEkPT95M+fvfrxzoqZJCnDRa0I86e2LAWwtspbU48vo4iT9q8Sd8mh4JFVIFYU9FBleET/tD0/vOfyywcRcrRz76p9Z++JxB3n718f77/jg6LdDx1tjGZHJA2o5gZZlYDaDuAcoDQmPocO4RVXbBBukb+0qqojaWduM4hhPIgJF2EtxB3PhdV2rNMSxQPhcBj8LhVkvR4m9M96++Hbz7t9MOlejahojdnU1JRcVdc0rrj06LUlZaWX1Tc2ZNmWQzx+HyPnummAaVNWacdqOlbeWcNpTN+O5FwmhJFd1LIzzbuFuaOOkZaSuqOgYMgfxw4Z8gLpJqmwe4sPzFyzYcuLoXA4T1FUQJkMs35EeYybu0Zp6C7DchVshoFtGhDw+UvHjRv79KiBA19s30+SOEogIBDoSgQEce9K9MW1BQIJQAAr7z9+YeU/ivYf+RaobssERbVsF/d1Z013bSfuLZVJJI02yJZpy9EGefLwvpvuvum8K8Z4SbdtcksEcR/gJyX33TB3fkfYQZZR6n1vTekd76za8NC+8mCOlpoJmIqKTcYYnEXQOoYqvILePIfoHtPShIrWnKwC3+o5i9WWGXFvOR5bda2YVzsez/9pYAQ22gheqkenjRr44cIrpy3sLvIYrK7XAvijTdXZNeV1Eyqrqy4sL6+8uL6+PhvvGavOqqpBKBRipBYJO3PesS1mhcgDlngoUVwug5VpfMbxLRISe5/HHclMz/h07JhhP+rXu8/aBPy4tukSpTU1eUWbiv5RUlo+TdE0Nr9IzLG6jrIeAyVssgyOaQH2tphGlP1dlqXQkEGDXxg5bcrjWYSE2nQxsZNAQCDQrRAQxL1bTYcYjECgcxCopNT/4z998PLKXeXfsr2ZYEsamBZWG9t2PSQ3cWcRPAKrk8TRQTWDMKpP5ob7F8y5erK3e1ba43eYKOK+6Ma5Cy7u7/6wbch+/V6oaV+/vuKuv7y/4qF6cOcEQQFbVrmsA9+SWCYjo6C4OGlD/TVzkkH1NuXNqsy+kRN3tHjkhP7LLjNxBxrUvGMRHi0+WThTLHzJZeugRmoAE1Fvu2zGA92p2biqsapg5+5DCypqa8fW1tZONAwjBUk3r6Cz9wbM6QiJrKoojJxb6KaExjGxBCJ8Q4HPMhJ2RnRxH8tishKPx1OZnpb68dQJE36UEQjsOpX57MhjSxob0/fv/OJnu/fvu9EBxY0uMpZls4UJhi7hfViWw94ccLIug2ObKP+xc7Oy1owdNWJJfnb2ho4ckziXQEAgkDgEBHFPHNbiSgKBLkVgH6VJv3t14x8/3rDrWqq4LeLxKQb3HeEVWya5QILH2TwSQYkgQbcBVcGs2o5/HAeobYJiBmF4btK6JQsuvW6ihxzp0ptrw8WRuD/5t5VvFB2qmYg+7h1jBxnHygEZk1MDUHL3DZfMmzPA3+7kVKy0rywqn/fi28serzC1bNuTBJaqMYcQxJ4LXAibIAuFHLEEVOw5kJ04eW+xgsTP0W8/TuAhRt6x2RKPiW8tiamEkX/NiYJLr7VmjR385m1zJj80PJUUtwHmhO1SXFo861/vffgX2aX1UmVFxsbTFq9yPi9MDIYe7bbNmzRjxB4/Y02o2HyKfR6SDCrKaTBJ2LGN3r177+nXr9/vhg0b9nqgG8mCsBl1467tD27avOVhx3GSZNXFyDqSdLaYZqSdv13gLjIaRMMRUCUZUpKT9owZMfqREYP7v52wSRIXEggIBDocAUHcOxxScUKBQPdF4AClyS+8uv7F9z5dfZWvd19aQzQie3xgRiKAtVxJ9kPY4FHvboWAh0TA0oNgOCbILmx+U8GKRsAlOTAozbPpR9+77Nru4tN+ItRbVdwnSy4POdUAJq4h5wFUqBFXow3Q1++U3HP9pQtmDU5uV8UdSfsbK44sePuz9U+UNxm9iC+ZJZW2hCbF7xK92lHTrDM9ug0uFn7FrCDBAZWa7HMgqNEGsLApExtRY4szlNfgmHEBhhVZ1H4rHg9YNmWyCj/2cYaqnZnjB7wx7+JpS7obaUcUGinNWL923TN7D+yfr8qyh4cNccLOqursvrh7Em5IbHHD78dDiNBVSVUkcEwHTD0KPq+/rl9+3vtDBg58sU8f/ST/AAAgAElEQVRW1icneqYS+Tk2o27du/earTt3/qShqbGfy+VmzbWKooEde1MgqRLzb2cLlVj4loJBa6YVHjl85HMzJkx4ghDCbGXEJhAQCPRMBARx75nzJkYtEGg3AkWVNOv9let+9e6qjdfoybmSIbspcUwigwKO5AZJcgMBFSLhRtBoBNxuTMs0QVUVsEwdQlXlMHVkwcr7vnPh3ZMCZHu7B5LgAzsnOZWTQk7cmyDfb5UtvPHS2y8emPz+yd4e+rR/sP7YnW+v3LTkcHUwVwukQ9TCmnprPVNMoR5PPgWdk1JwsTo8UPRDwYUESiOwfwEj77lDDEtEZZp4/oYFK+5uTWEe5QR92rFyiyVoMwQeJ+RMG9733VsvmrpkQq+uT739Jiz3l5ZOX79x499qa2v7YZXZxrdEksRkRMw1BqvqaHsqxwg9kxJxEo9//G4XRIIhjPw1s3pnbRk8cOBrOfn5L2UFApUnO3+dvf++0tLLNm3Z8uPq+rqR2IwaRbcYooCCUhhspEWtPnHAcnCBQsGlaSyAKxIOw6C++YWjxoxa0C8jp9tIfjobL3F+gcDpioAg7qfrzIr7EggcB4GNVTT7tY/X/d/b63Zf683MpdFIE2M2mtcHetQCydFAUtGfXQIbvb0lExQ7Anb9MZgyrO+aRZdddOfkbNKjrOSYVOavK/9ZVFyDFXfpVCvuiBf3Q+e2ipIehHw/lN1z/Zw7Lh3oe+9kHkDUtK9ZW7zg7RUbHj1YHepD3clgyhoA4V7cLdfiVf7WPu3x1tO4xSP/pf7ldtRYnNJXzgVgGjb4AknMOQYcG7wyBUVvsCYNz/nglkvPfXhqBunWRC9IadbqVSt/s3v33qs9Pm8zcccGXgwiQgkJ8213HN6jgWovBgYn8GZUd5IDSWV5efmrBg0c+L/5mZkbT2beErXv/pKS8zd/vuWXVTW1Y2z0l4/J1qhF2RsEdkcoYZM4gcdUZJTH2JYBXpf76PSpU+4Zmi8kMomaL3EdgUBnIiCIe2eiK84tEOjGCOwO0Zw//nv7T5cWbrpJS0oG0DSIRLDC7oZwyACXPwXqLQmIKoFL0iFcfgDOH5G38r5rL7l7UlrPqbTHp6AVcT+rI6QyvDsArfYIGJIGRI9An4Bz7N7r5t5++UClzcR9B6Xa5xtK57+1fM1T+ysas9WUXmCpXqhvCoPq9nDLwlgKKr8XnnKKUh22YGCyF+xWsFklnXu4y82yGEb6m51nWlxncPRo2Y6hQzIBcBMTIFwDU4cNeOuOK85+cmx691+YobPM1v17rtmycetzUUNPl2QFTMTAcQDdVvAtAhJ23tSLYUpmzJNddrwuT1Vmr8w1+Xn5/8ju3/+jNEIauuOPa0l5+ZQNn2/51dGSssmay83ccOILE2xCRctHvF98g6BqMpcImQaT0WiK1DB29OifTxk99scELXTEJhAQCPR4BARx7/FTKG5AINB+BA4Gae/fv1X086VbD91sqB7bhT6D4IBNbIg4CjhaGtiOCU7jETh/eM7Key8+e9HELNcX7b9i1x3ZGcQdk0ZRY24QD1AjBPl+6djC6+bcfnUbiftGStVN60oXfLhi7UNHa0P9bS0ABnGBCQrIqGG2DZ7Y+SXiHgtZQqcZcDGyLlMdZDABCKaCYjOqCsCkMwpzmlEcbMXFKjwFRwIwsJGTSOBW3WCEQuABGzSryZo2ou+7N100/bFJmWRP183UyV25LhLpu3HD5v/btXf3FW6vB0yKxJ2yint8QwzR4hGbe30eb0Nudu9Pcnpn/TsnP/+jdK+321qY1kci/VcVrvlFSUnZ5bKqSIbFNfuK6oKmcAg0DUOVeFMuetDHrSzxflVZCfXvn//a5JGjlyQnJ9eeHKpib4GAQKC7IiCIe3edGTEugUCCEDgcotm/evPzny3bvPM7suamjipLjkaoKUkEg5qcSANMHpCxbPE1Fy6Zkka2JWhYHX6ZziDuWPtG0YVNNABWcYdjC6+7uE3EHf31P1xXcvt7Kz9/7NCxymxvSgbooEHIcICoGoAsATZPcn/1eGgSL5qizzrzaAeVVdNl1LpjxZwturASjw2tCsgOpqI6oDoG92hHDTQj7vi5BDKGDhkR8NMITBvZ/42b5kx9vCeRdoYFpcoXu/fNX7228P8jquxHwm6jk0zMRcbUdVZp93k8oayMzG35efn/6p+T9a+UlJSjhBDesdoNt7pIXd8tW/c8duDQgZt13fSiLz263iBJVzU3b7ZVeZAUtiSjgwxW2VGzH/D7Inl9+rw7efKkJeleb7cMROuGkIshCQR6BAKCuPeIaRKDFAh0LgJHUDbz7vafvL1+240kJT0Scgxbkm3NDFZ5phbkfbj48osemNDN9c4nQqijiXvL9biNJhiNkO+D8rtvuOT2bw10//t448FG1E83lS/82weFD1aE7GwqqUBcHohi0VzVgCgqhEJN4Ma/x4g7VstRVc+Ze8zuMPYVK+2tE1OR1OOevNrugMJcZjiptySJEXfcXHoYfDRoThveb+m8b01/eExSz6m0t8a3tKpq/Pr1618oKa8Yq3k9zMMdCS4GErld7lBmWtq23KycN/Nzsj7K7dVrJyFsldNtt4pgRe8DB8sf/XzbF/MlSQqgTztuzEHGtrEdAdxeF0RtndtaAmFe9I5l4cybffPyl48YVvBIXu/ePXah3W0nRwxMINDFCAji3sUTIC4vEOguCCB5f+7d7T97e+2W76ipSdGmpgr3jJE5Hy28ZvYDUwKund1lnO0dByPuL618vehwzZSO0LjH7SBxPEiQ0cc93++U3/3tubfPHeL7RuKOuuy/FpU99Nd/f3JvtaHlgCcJTEqZFaOkecBCgm1TcLlUcCwulUHvdQlThb5C3HngEjbHIq2XWIASc4+J6drR7YaNDVNWYzaJ3GFGAcUxwRWpoueOHvTOVRdOf/ycbNJj55hS6lm/ZcvTazdsfMDlcbuYKIjSxqzevbfl9enzr759+y7L8vv39QQrxKampl7bDh14ZOsX2253KAmwuWyeUx4whQs3yzHBlnjQErUdsAwDXLIMWZmZW4YPH35fQX7+qvb+rIjjBAICge6LgCDu3XduxMgEAglHAMn7H97d8Ot/LP/k6kmTRn28+PpL7pmYRHYnfCCdcMHOIO4sudQ0QHJscJkN0NfnlC+6bs7tc4akfSNx/92KfY+8umzDw3WWkuaoPrAkjDviwVexwFNeUWdBSUjMWznExCvs6LmPhBxMJpVBMo7SGObVzpiexQi/Qy1G7JDsoXMMVvA1dFqJ6iDrtfbscQPe+c7Msx8Z14vs6wTIE3rKg0fKzinavP43wXA4Na9f/5W9MjKW9cnPL8xwuYoJGt73gK0iGOy9c+f2JXv3H7zTok6gRasv8cp6vL0UF3Eol8LkV8cCl6Iy8u7VXBWjR49aNK6g4C1CCPqBik0gIBA4zRAQxP00m1BxOwKBU0VgRyUdtKO05ILc3D5F03uRz0/1fN3l+M4g7qxKLkkoNQZVr4O+XqP87usu+VriTilV/7D64OLXP1rzQD1N6m2pftAd9GnnG7d4xGp5K6IeSzltxjBG3LEhliWfAkpg8AiuWefHY10eOZsDoMrQGA6Bz58EDobyRCOgmgaoRtiYM2XE0ttmT7x3RFr3T71tyzNEKfUfOnp0mkOIlJTa5/NMH9R0d0lM6/uqCYf7fLFt20MHig/NixqW38b5VWPSGIf706NLP3tKCH512H/MRUY3wKNpNcMGD3162oSxL/SUhUpb5lXsIxAQCHwZAUHcxRMhEBAI/AcCKOcg5KussWcD1dHEHdGwgVsNEocADdfAwCRafs+3Z/0HcUef9mWrj9793soNjx2ti2aEwAX+1F5gGNEWoo5wN1fa40Q+hnmrSnvLLMQlNFzzjsFKXDqD3+eJqaaC9ogEsDXVp6pM0y4Fq+GC0YPfnX/Z1Hu6YyJqz37K2jf6qlAo+4utW584VHzk1oge9YMkswRUVK+jpSVzklEwPIsHR6GmHf3aNU3lEhmXWjtk4OCfD50w4beZhDS1bxTiKIGAQKAnICCIe0+YJTFGgYBA4JQRQOL+xEsrX9vANe4dEsDEUjmJDIbtgBSuh4EpUHHv9ZcsmDOwReNOKdWeX1Ny31vL1z1UrZNM6k4CgyqgmzaoMnNkj9VRWyrtNGa57bDKakszaryiHgeDxtZWcfcYlM9wl3eLad0NWYYoWgjKKqi2AR69MTJ9aL+PFl8//Z5BXiLcRk75qTr1E5Q1Ng7d8cW2nx48eHg2JeBmrjg2ltgJUIeA6djch541nxqMsLOEW6BAOYkPDhs25FfjJk7+ZRIhNac+InEGgYBAoDsjIIh7d54dMTaBgECgwxDoDOJOHaxuy0yfLhtNMDAAlXdfd8l3Lx7ofp/xbUrlF1YdvPf1z7Y8UBGiedTlBxNURqSxCZVQbuH45bRT3oSKencWksQ2/rVZ48zkNC2NqLwB1eINrAQ9VbjXOxoFulwaRBoawC/pMK5v5vL7rp91x+gUcrDDgBUnajcClQ0Ng4s2b37maEnJtwlIKkWyTilbDJqWBaqq8iRUyl1yKNixngV8OCgYwbA5rGDwsrETJ96e6fOVtXsg4kCBgECgxyAgiHuPmSoxUIGAQOBUEOgU4h7rJmVymWgD9PVD2T23XXXrRbnkYyTtf1539PY3l6975mgTZGGl3aKcbEcNC7w+N/fgRtcYRtV5M2rc9vGbiHtzsyo7F29GlQADlpCmc692rnfnFoE0EoIkxbYKeievWrxg9u2j3OTAqeAoju0YBMpraqas2bjx2drGhrGRSFSRsW8hFqaExB3/zpZwhHDPduIwIm/bFrO5JBSs/jk5a6dPnHhHRkbGadFA3jHIirMIBE5vBARxP73nV9ydQEAgEEOAadz/tvLVokM1UztCKoNVdknicfMuJM6RBsgPSDWLFlzz7TlZ5JOXN5U/8Ne3lz8Qlf151REKiicAlNoQ0U3w+PwQjIQZEeMbOoZwzTrbYpp2vEbrDffBX9qc7GMsk8Iq60jaUTaDtpBxm0pU4bhsE1zRBmvigF6F99x64c0jPKdHI2pPfqgppeTQoUOXbd72xf8crqwYHkhNZcRcj0RAU92x9FNO0g0zGiPrJiPwiqZCNBoBKhErOyO9aOq4iXcJr/ae/DSIsQsETh4BQdxPHjNxhEBAINADEegM4u5QwtxavDIFSQ9Cbqrn0Pyb5t7fWG/mvPLa6/8TdDwpjSaA5PKBaaP9iwWKSwN2HBJuh3vK4N9ZlbxZsx6vwvP6O99aSDxW3blsBsk7lmU5abfR4htVzxRAc0xQIzUweUD2mkXXzrx+TDop6YHTdloNmVLq3bJ96/wD+w8/UFlX098dSGauP0jKNUw+tRz2TKCeHeUxuLk0BXQdg5a4TMayLCu7d2bRpNFj7+mXm7v5tAJI3IxAQCBwQgQEcT8hRGIHgYBA4HRAoKOJOyfc6KcOQB0LZOKA36MFAx73QV3X+zc0NQao5AaKIhj0aI/FJ8WJOJJvTDRFom1ILrBIzNIRJRGOyTTrzcFJgKFJ6PWucGIeq9CjfzxrkJVViNomSwzFK3mIAyRUGZnYP3Pz4hvmfke4x3T9E9zY2Jixedeex/bt33NHRDf8SNTR1jNuKYr6dsexgMhcMoNVeE1RIRoOgdftAUIphBuD1oB++RsmTZx4f3ZGRlHX35UYgUBAIJBoBARxTzTi4noCAYFAlyDQGcQdyRXTt8eIVty2D6ulcRu/b7pZJN/ow45U2yQuplfH78QJfZuIO0tfcsACmVVoJWKzxYBq1MHEQTmr77hy1oJJmWRPlwAuLsoQQGvVsuqmwbv27njqwOGDV+um6VZdGu9qsPgyjmAaKtp3OiYj7sxBBptRMdgLw5VMCwOW7Lys3mvHDB+zOD8/e4OAVyAgEDgzERDE/cycd3HXAoEzDoHOIO6MLDNLSF4hRbKFG4uljzUWHg9oHrrU2i2G/3/rtFTeaMr2anUqfh2ZKGA5lC0eqG2BX6Ug6/Xm8D7J6xZcN+eWqank8Bk30d3ohimlrp0HDp+/fdeOn1dWVw3HErvmcTOrx1AkAi7FxZ4d3PDZsdAZSOLEnds+ErBNC4htmTnZ2evGjZ9wX79evbZ0o1sUQxEICAQSjIAg7gkGXFxOICAQ6BoEeADTqn8UHa6e1hHNqYw4y3IzYUcCFifscX3y8Um7BBZRWLOp6hgohmFpqLjZRGaV+NbNqbwxtcXrHXXylHJ/bzwOG2QVo84e1S9j+cM3z/7uUB8R9oBd86ixq4bD4dyd+w5cve/gwcer6mp6y6oKsqyAaVtsFuOadvaOBavrlIKsEO4mw/Tt2BOBOiwa6puTtWbMqDGP9OnV67RJMu7CqRGXFgj0aAQEce/R0ycGLxAQCLQVgc4g7kia0dIRiReSeFb5jvlucz/ub/4Vi9IY1LVjY6nL1pnERQYkdUjoVSadwT9I2FE2w3TtsVZVi/nQKCARjTW8+iQb7MZKGJ2XuuIH9196fX9CytuKi9ivYxGglKoHj5aPPXj44OP7Dh2YRYH6ZFUDWVWYfMqwLJ6CKuOzg3PKiTsSeM2loCQGLMsEGV1kJLlu8MB+rw4ZMvSn2amp4u1Jx06VOJtAoEciIIh7j5w2MWiBgEDgZBHoDOIer6y3rrS3/t7xKu+2JIENLkbBNYcTdyTnWGmPE3fe/IpNrAYj7VhZxz1MJPwggUIksMNNkCyb+qi+6YUP3nrhd4d7SPHJYiP27xgEaihNKt2376o9e/Y9fayivD9q2W2snqP0JbaIQwKPz0U0ilaPXCqDZB2JuyITMKM607b7fL6qgkEDXxw6fPhv071ekXLbMVMkziIQ6PEICOLe46dQ3IBAQCDQFgQ6i7jHm1OxahrXuCMZa5E8fP3ouL4dA5R4RT2+IXFnjaqEmz0iWVdjpB793VnUksT9392ORUmwmpw1NPfD+2+5cNEIN9nfFizEPh2LADagVgSDw/ft2vOdXXv33BWJRJP9gQDYQMGwuAc7knessOPCC58ZwO+hPEaWwbFsZgOJCbi2ZUFKUlLlgPx+vx1RMPA3ycnJtR07WnE2gYBAoCcjIIh7T549MXaBgECgzQh0RnMqXjyedomkPd5YiN/HZtV4Jf6bBvnVJtR4eFK8aVVhune72RaSnTeWmIpkXg5WWxeOH/bBjZdOvm9SCjnYZjDEjh2GQCOlGSWHD5+9fcfOxyorK8dKiqwpsgqGbbEmVCaZijsPUf684B+UWOFnaPlILRuA2qASCTRFKSsYOPDZqZMm/IYQEuywgYoTCQQEAqcFAoK4nxbTKG5CICAQOBECnVFxP9E1j/c5s4OkNtsFm1Hjmnb8f1ZXp1ibtZkcJu5eg82KcZ07baqCWWP7Lb3l0nMWjhPuMacyFe06FsOUjlY3DN9/YO9tBw4eulbXo70w7RT92HHRhqSdaddZOq7E9O24oVQGN/x/mb1VQc7uoK2nlZmavmvUiJG/HT643+8JQa9PsQkEBAICgS8jIIi7eCIEAgKBMwKBzqq4txc87teOYgok7tiMipScWz4y6QwGMakqNIVD4NI8YBgGuDFc1dQBjKA5Y8SAFQsuP+ueiRmu3e0dgzju5BGglJJjNTVDj5VWXnWwpPiKxqamMdFoVJVUhb1hsRy7ZaElSWzekJ6jiwxu/P/RVQYbUW0wdQO8Lreem5NdWNB/0I8G9evzycmPShwhEBAInCkICOJ+psy0uE+BwBmOQHck7pi6ihtPReWNqEjY45V4CxtQNTdETAcwJRXdY+RwrT1ucM5n8y674IFpWeSLM3xaE3r7dXV1/Uoqqi8oPnLkxrLyY1N1y/JihT3uEoNvRrDazuQwKI+htNnqMS6RiQ8Y3WSwETUp4G/Iyc1dNrB/v58OzMnZmNAbEhcTCAgEehwCgrj3uCkTAxYICATag0B3I+54D/gLmHN3rLRzn3bmHgMW93EHGXTbAUXRwIXhPE3VdNrwfktvvWzG42f1Jlvbg4M45uQRaGpqyjxSVTVn/779N1ZUVZ1tWVYAibjscgElPDwp7sWOZ0cHGdaQ6jjNmnbmyY5z7lBWkXeoDSlJycWDBw18flBu7ivp6enCOebkp0YcIRA44xAQxP2Mm3JxwwKBMxOB7kfcWwKWeLgS1teR3KGTDJI/1EO7IYpSGUUGEqqxpw/r+8G8q857bGKaqLQn4immlPr2l5RMPFR85KbSY2VXNjUG05GQM9mLHNOtS/yfUbR9RKkMc4nBFFTLApeqsK8ykcClqkwmY0R18Hg80fSUtI0jhg35XcGAAa8TQrh+RmwCAYGAQOAECAjiLh4RgYBA4IxAoLsRd+4gwxsVecBSC3HHujvW41mSqhEFHzFgwqA+7900d8aj07PI9jNiwrrwJsso9ZqVldMOHDp0ZVVNzfl1dXVDDMuSMflU0dRmH3ZWdUdrR/RpZ2mn3DWGVdQdB1RZYumnTDJjce17kj9wrG/fvu/3y8t9vm9OzqYuvE1xaYGAQKAHIiCIew+cNDFkgYBA4OQR6J7EHZXOAFIsGZXJLrDuTiRWdQcjDC6zyTpnZL/lN1129sNT0si2k79zcURbEaCUBo5UVk45fLD4irLyY7OD4VB/wzJlnI+4S4yD7vsKNppy+0/8KE7U4z7+GKaEGwtWkmW2DJOJpKenpu0Y1HfAc/3yst4NBAKVbR2X2E8gIBAQCMQREMRdPAsCAYHAGYFAhxN3wiUtjKChHh0ZXEyrjk2n3KMd/8Q/x79x15h4U2oL8Hw/9G9nJBFdRxwTlGg9nDU0772bZk15YkYfTWjaO+lJDYfDfUqqqsYeKTl2ZWVF+blNoWA/0zRlWVHBog5IiswaUK14yFZMHoPVdBqb43jzKc4tq75joFLMr92ruRvy8/r8bcjAIa/lZWeuE9KYTppIcVqBwBmAgCDuZ8Aki1sUCAgEAJC4P/HSytc2HK6ZIrk8kkmBxcy3dyNgM7913EziAQoqq5ZjS6ni4GcG4D5YRec+7ViaRWmMxBIymQyG6kxmISkKRA0LVM3LCL8TbgKvHXJmDM99/4bLzn1kSjrZ2d5xiuP+EwFMOsW1UYOu5+w5cGBuWVnZpaFQaHiwKZTrOA7BSjrzYpcVHqAU067bYDen42IlnenXsaIek8o4GKqEzcQSYbr2aDhip6enFw8dMODZgsED/+73+yvEfAgEBAICgVNBoP3/ap3KVcWxAgGBgEAgwQh0PHFHmm6ySrsNLq5Xp7gUQDtHE2RG6v+TuBPKyT0Sd0W2IRQNgceTDLplArUoaMQGJVJnnj92yIffvWLKg2OTyN4EQ3VGXG7H3r13btuz5wbdMEY0NDZl/P/t3XtwVNUdB/DfOffe3Ww2gQAJkISQkBDxCSIq4BBRUXFwUEdBLFKKL1TUaq3jtHU6U2faPzsdp6PVmU5V8NEBta2PGZ8ooGgQ1IooIiqo1WLEmJDd7O59nM7vnKxStBV1k+zmfHfGEZPl3nM+Zwe+nvzu73AAD0Old9b54dN82UsQfhXWlTQdYfI/anEkP3xqfrLCD596jssHKVHEp6ZGUcehrZMera8bc1/z+PEbhBBZK2AxSQhAoF8FENz7lRcXhwAEikWg0MGd58WlLflXvvzFfMmUvphX/qxTUwLDL1NGo59k1A8z5sKIYo4kN8qR09tJbZNbnlh0+syrTxgtdhaL31Abx9s7dy56esPzf3LL4iOy2ZwO6/ke7CRMZxizREL31s//mnfXufhJn4rqmK4x/DV+WqG3N82BPdvUMP7VQ1on3dZQM/IJ1LIPtU8O5gOBwRVAcB9cf9wdAhAYIIH9gvtMGU+IH1oq899dYUxZDO+k6zp1coh0NYYJ61wLz9/jQG/q2M1DqEI4ukVg3PUoRjmi1N7MMRPrXrx28alXYKe9fz8YSqlhax557JG9XZ0nCl4nx3SGCXVrTod/VqIHwDvxjjAHK+WDvY7uinfnPf2eMOeTH+TU8MphHU3NE+5sbm5eNX7kyB1CCL9/Z4GrQwACtgkguNu24pgvBCwVKHxwdykkzxyTpLLkkE8kAh3IA8GBjktnXF3P7kbc7pGDu6JIEuUk/5dLUSQpGY+R37WXhjk5OmLc8GcvXzT3atS0D8yH9NWt227Y0P7SzY7nlptuMZ4O7vzcAXeRybd41Icn6cOUdHcY/dApf8/3ff63Ki9L7K2rr3uqdcLElS3jajcKIboHZga4CwQgYJsAgrttK475QsBSgcIHd96hjZuadsoS6c3VSD+EGgpP17w7kXkQ1YtyumAmEhEFOrjz9yU5kUsyk6IqNxdNrCnfcOMVZ1wxOS62W7pEAz7tjlSq7snHn9zYk041cmB3vBhlw8D0Yu/725FLYvgnJp7eeefe+opC3zyEWl5e3lVTU7OhZXzjqvqxNc9WVlZ2DPgkcEMIQMAqAQR3q5Ybk4WAvQK6HeSq9Ws2ma4yP7hUhiWF7hIT6Z120z2G6951Xxndr8bstkfkKp/4dFQO9YGUOrhz8Uw8l6NYbp+aOqH6+Z8uPuWSqcPFO/au0ODMfEN7+2/e3L7jl6GKYuQ6FEp+BkHqnfd8txju/qjbPPqBPkipPOZlksnkexNbW++Y0NLy0MhE4hMhRDg4M8BdIQABmwQQ3G1abcwVAhYLFDq4m4OTuB7aBHbeQQ+5jWBfH3bepeUTUTm8O8pkuq9aQ7q6fCbWuy+Y2lSz5arFJ194bJV41+LlGbSp79nzRfMTa59cmwn9Rp/X09E9f0zJDJ96KoQ+AZV32JUf+BWJ5K5DW5vvam5tfbC6svI91LEP2tLhxhCwUgDB3cplx6QhYJ9APrhv/qBzhnJjggP21w9COngX0/bRBHLu086lMaHgHXjeig90u8cw8nW3knw9ND+EqsKQZKQo5qeCI2or3rp8wbyFs+rF2wd/Z7yz0ALrXnrpltff2Dlp/nQAAAwLSURBVLqiYniVm85kzP9gcWd+abrLqDDKViaTnzQ3NtzX0tS8sq66ehfaOxZ6FXA9CEDgYAQQ3A9GCe+BAARKXqA/gjt3cOdXRKZm/csuMrqHe6TLLnJRSEK65EhJXhSSk81ETqZHHtNS++LyC069FA+iDv5H66M9e6Y89cwzj6WzufqIFCWSSd3m0ff97PDhw3c3NTbe3dLS8mBdZeVOlMQM/nphBBCwWQDB3ebVx9whYJFAoYN7vre3JlSS+GAlfSKqrnk3zQSdigrq7EmRiCfICUMqy/VSWa6bjmuu3bTigjk/mlwl3rNoCYp2qkqp2IZNm36/fcfbFwVhmHAcr8fx3I4jjzpqZX3NuPsbRg/HswdFu3oYGATsEkBwt2u9MVsIWCugg/vK9Q9s/rBzeiFKZfL92Bk03z2Ga97NcUuBrnVPK0XcCNKLlVHSIZLdHTRl3Kj1N15y+tLDE2K3tYtRhBPfuXv3tBc2bryrurr6o5qxY+89ZOLEF6oSifeLcKgYEgQgYLEAgrvFi4+pQ8AmgcIHd47o5oAl8wBqQFIpfcomR3euk/aVICkFxYWgoHtPdEzT6E03XT1vwSQh/mWTfSnMVSmV/PCTT6Y11NZuFkKkS2HMGCMEIGCfAIK7fWuOGUPASoH+CO58wBK/pN5XD77s1W4CvaC451GU7iE3t8+fNLbqjRuvmr9oahlaPlr5AcSkIQABCBRAAMG9AIi4BAQgUPwC+wX345Ubkz+0qwzHddV3Sg+HdiW4T7vp464PV1JEZXxiancHzTik7vnrLj7t4sMR2ov/g4IRQgACEChiAQT3Il4cDA0CECicgA7u96x/aPPuTg7uupSFe63zi4N2PnBzqYsT8Vf7HjTt21M3b+X3md+jW0lGpjSGX6E0Byzlu8vEwxx5vZ/TrMOanr3y3FmXHYU+7YVbTFwJAhCAgKUCCO6WLjymDQHbBDi4/3rV+gfbd+09TsYTMopC8rhbtyDKiQQFoq+lo4hM20aV033a+Q/JiBwd7LlPuwnmEUmhSIRZkg4Hf4ci6ZAfmu8mSJFIf0bHNla/uPz8ucum14gdtnljvhCAAAQgUHgBBPfCm+KKEIBAEQrsF9yPl/GE4JMxPS5xIUm+iOtQzgGd2zm6yu879bTvxFNy9G561BfcdctHiqgsJqgn1U1uLEHZXEAx1yPhZ0mmvghnHt7UfsWC2cuPHyW2FSEHhgQBCEAAAiUogOBegouGIUMAAt9dYL/gPl3GE+RzlYswfwQeeIKqCebmle8ckz9cyXzVfD+gQJ+MmvOVPim1nC+U7qSpTaNfXnr2qStOrhObv/tI8TsgAAEIQAAC3yyA4I5PBgQgYIXAgcE9p+vVPV0K40U53lPX4ZtfoXC+rHvP43CP9gMDfTaKSClFiXiMYpFPfte/1YzDmtYtO+fkG9pqxBYrYDFJCEAAAhAYMAEE9wGjxo0gAIHBFDgwuGfIJSVi+uHSeJg15TEUcPW6rnfn0hn+hwM792jn0G4OV+JgrwtqiFyP/GwvVUgilfqMph9S99zF58y5/oTR4tXBnCvuDQEIQAACQ1MAwX1oritmBQEIHCDwTTvuoSjTgTwWmeDOv+bSmHxw5wdSObi7ivfnTTkMv8PnB1mFJM+JUdS7j8qCFE1rrX1u2Zmzb2irw047PnwQgAAEINA/Agju/eOKq0IAAkUmkO/jvmn33hn5GnfSpTJmRz3/4uCuH1QVuvmjDutePtRHQj+kGkiPSEnywiw5vd1q5mHjNiyd1/bzWahpL7JVx3AgAAEIDC0BBPehtZ6YDQQg8D8E9gvu/HCqCCPSLR33D+z5Xu75Xu0c6Dm8c1tIfnE9O3ee4WDP33N6Pqfpkxqfv3Be2w2nNIh24EMAAhCAAAT6UwDBvT91cW0IQKBoBHRwX7V+zaZdesfdtIPc72HUfE07D1hSoHfaFYW6QaSUknzfp7gX01/PZDJUFvbSrNbapxfNO+nG2fWoaS+ahcZAIAABCAxhAQT3Iby4mBoEIPCVAAf3m1atX/3yrr0z88E9psM5P2zKD6PmTz0lUzrTdyKqH4VUnqignp4ekkGOKmIuhb1davqkhrVXnnfS9dNGitfhDAEIQAACEBgIAQT3gVDGPSAAgUEX+Kbg7vKxqTq4c2tI8yAqB/Z8aUwk+VAmSblIUNyRFI+y5KQ/p5lHNK1bOPf4a2aPjW8d9IlhABCAAAQgYI0Agrs1S42JQsBugf2CO5fKSD6AictgzEvqQ5XyLR9F34mqJD3a15shz4tT0iFyevYGR44f1X7tkjNWYKfd7s8TZg8BCEBgMAQQ3AdDHfeEAAQGXODrwV0SCRPdzeFK/CAqF85wJxki3ozPBYoqk+WU3tdNZUEPHVFXteWqJfOXz6wRrwz4BHBDCEAAAhCwXgDB3fqPAAAgYIfANwd3T0/eHLD0VXDn8hgiQY4gUvqAJZ+aRiTaf3HJWVcePQIPotrxicEsIQABCBSfAIJ78a0JRgQBCPSDwP/fcTcno/Iuuz4fVUi96x4XIUXdn9KUhhEvX790/qUoj+mHhcElIQABCEDgoAUQ3A+aCm+EAARKWcAE93Wrt7z/2XQqSzq+kiQE/xHIUT3SU4vI1eGdD1fSp6WmPs8c01S9fcXiuT+Zge4xpbz8GDsEIACBISGA4D4klhGTgAAEvk1AB/e7Hl/92sep40KR8HRIpxw5MUlBROQHirx4kvhkJun3kpftjiaPq9x22dmnLDuxKYma9m8DxvchAAEIQKDfBRDc+50YN4AABIpB4IOUqvvdmmfvf/GdPTMjOcwjJ04ksxSqgELlUBgJEkpSTIXkZvaFRzdWb73s/FOXtY0R/yyG8WMMEIAABCAAAQR3fAYgAAFrBH679p2bH37hjet6Mu4wDu5uXFAqk6Z4WZKkUOTkgkD2drlTmqpfufSsOYtn1Yu3rcHBRCEAAQhAoOgFENyLfokwQAhAoFACd72VPu8v/3jujs+6/FGREycRc6k3mybPcWlYzKGgu4MOra3a/KuLzjx/SpV4v1D3xXUgAAEIQAAChRBAcC+EIq4BAQiUhMC9O7Ln3vbA47d39kQ1wqugQHLn9pDioU9B157MlMbqN29aMf/8o8rEuyUxIQwSAhCAAASsEkBwt2q5MVkI2C1wz87solv/+tgf96VUjfQqKKsUuRzc/Z6opSbx5k3L519wdKXYZrcSZg8BCEAAAsUqgOBerCuDcUEAAgUXuP+9YMFt9z18e09ajVIirls/hukudWzrmFevWTJnybRK8VbBb4oLQgACEIAABAokgOBeIEhcBgIQKH6Be7enF96x5tHbshlZrSKRU0FGTm6p37z03NlLZ48W7xT/DDBCCEAAAhCwWQDB3ebVx9whYJnAna93LF7196duSafCSuHnYkc2jnllycIzfzy7Djvtln0UMF0IQAACJSmA4F6Sy4ZBQwAC30fg7tc+XrL60af/0NmRih/WVP/6ikXzr51WJ7Z8n2vh90AAAhCAAAQGWgDBfaDFcT8IQGDQBFa/suuSP9//t1vHjKrdtvzCc1e0NcTaB20wuDEEIAABCEDgOwoguH9HMLwdAhAoXYEH29+6ZuNr2y4+45Q5PzutdcRzpTsTjBwCEIAABGwUQHC3cdUxZwhYKrDlg0/bUoHqapsweqsQQlnKgGlDAAIQgECJCiC4l+jCYdgQgAAEIAABCEAAAnYJILjbtd6YLQQgAAEIQAACEIBAiQoguJfowmHYEIAABCAAAQhAAAJ2CSC427XemC0EIAABCEAAAhCAQIkKILiX6MJh2BCAAAQgAAEIQAACdgkguNu13pgtBCAAAQhAAAIQgECJCiC4l+jCYdgQgAAEIAABCEAAAnYJILjbtd6YLQQgAAEIQAACEIBAiQoguJfowmHYEIAABCAAAQhAAAJ2CSC427XemC0EIAABCEAAAhCAQIkKILiX6MJh2BCAAAQgAAEIQAACdgkguNu13pgtBCAAAQhAAAIQgECJCiC4l+jCYdgQgAAEIAABCEAAAnYJILjbtd6YLQQgAAEIQAACEIBAiQoguJfowmHYEIAABCAAAQhAAAJ2CSC427XemC0EIAABCEAAAhCAQIkK/AeQz5h0Sh+jKwAAAABJRU5ErkJggg==;" vertex="1" parent="1">
          <mxGeometry x="250" y="257.8" width="100" height="44.4" as="geometry" />
        </mxCell>
      </root>
    </mxGraphModel>
  </diagram>
</mxfile>
